<svg width="552" height="452" viewBox="0 0 552 452" fill="none" xmlns="http://www.w3.org/2000/svg">
<line x1="533.758" y1="2.22949" x2="-26.0016" y2="2.22949" stroke="black" stroke-opacity="0.07" stroke-width="3"/>
<line x1="533.758" y1="110.365" x2="-26.0016" y2="110.365" stroke="black" stroke-opacity="0.07" stroke-width="3"/>
<line x1="533.758" y1="218.5" x2="-26.0016" y2="218.5" stroke="black" stroke-opacity="0.07" stroke-width="3"/>
<line x1="533.758" y1="326.636" x2="-26.0016" y2="326.636" stroke="black" stroke-opacity="0.07" stroke-width="3"/>
<line x1="533.758" y1="434.771" x2="-26.0016" y2="434.771" stroke="black" stroke-opacity="0.07" stroke-width="3"/>
<line x1="162.086" y1="0.729492" x2="162.086" y2="433.271" stroke="black" stroke-opacity="0.07" stroke-width="3"/>
<line x1="535.258" y1="0.729492" x2="535.258" y2="433.271" stroke="black" stroke-opacity="0.07" stroke-width="3"/>
<line x1="348.672" y1="0.729492" x2="348.672" y2="433.271" stroke="black" stroke-opacity="0.07" stroke-width="3"/>
<path d="M-13.0198 242.218H-7.12784V242.722H-13.5358V240.838C-13.5358 240.102 -13.2558 239.534 -12.6958 239.134C-12.1278 238.734 -11.3318 238.534 -10.3078 238.534C-9.44384 238.534 -8.78384 238.374 -8.32784 238.054C-7.86384 237.726 -7.63184 237.254 -7.63184 236.638C-7.63184 236.046 -7.87584 235.578 -8.36384 235.234C-8.84384 234.882 -9.49184 234.706 -10.3078 234.706C-11.1318 234.706 -11.7798 234.87 -12.2518 235.198C-12.7238 235.526 -12.9638 235.974 -12.9718 236.542H-13.4878C-13.4878 236.07 -13.3598 235.658 -13.1038 235.306C-12.8398 234.954 -12.4678 234.686 -11.9878 234.502C-11.5078 234.31 -10.9478 234.214 -10.3078 234.214C-9.66784 234.214 -9.10784 234.314 -8.62784 234.514C-8.13984 234.714 -7.76784 234.998 -7.51184 235.366C-7.24784 235.726 -7.11584 236.15 -7.11584 236.638C-7.11584 237.406 -7.39184 237.998 -7.94384 238.414C-8.48784 238.83 -9.26384 239.038 -10.2718 239.038C-11.1518 239.038 -11.8318 239.194 -12.3118 239.506C-12.7838 239.81 -13.0198 240.254 -13.0198 240.838V242.218ZM0.616563 240.298V240.802H-0.439437V242.722H-0.955437V240.802H-6.12744L-6.19944 240.274L-1.02744 234.322H-0.439437V240.298H0.616563ZM-0.955437 234.994L-5.57544 240.298H-0.955437V234.994Z" fill="black"/>
<path d="M-13.0198 349.293H-7.12784V349.797H-13.5358V347.913C-13.5358 347.177 -13.2558 346.609 -12.6958 346.209C-12.1278 345.809 -11.3318 345.609 -10.3078 345.609C-9.44384 345.609 -8.78384 345.449 -8.32784 345.129C-7.86384 344.801 -7.63184 344.329 -7.63184 343.713C-7.63184 343.121 -7.87584 342.653 -8.36384 342.309C-8.84384 341.957 -9.49184 341.781 -10.3078 341.781C-11.1318 341.781 -11.7798 341.945 -12.2518 342.273C-12.7238 342.601 -12.9638 343.049 -12.9718 343.617H-13.4878C-13.4878 343.145 -13.3598 342.733 -13.1038 342.381C-12.8398 342.029 -12.4678 341.761 -11.9878 341.577C-11.5078 341.385 -10.9478 341.289 -10.3078 341.289C-9.66784 341.289 -9.10784 341.389 -8.62784 341.589C-8.13984 341.789 -7.76784 342.073 -7.51184 342.441C-7.24784 342.801 -7.11584 343.225 -7.11584 343.713C-7.11584 344.481 -7.39184 345.073 -7.94384 345.489C-8.48784 345.905 -9.26384 346.113 -10.2718 346.113C-11.1518 346.113 -11.8318 346.269 -12.3118 346.581C-12.7838 346.885 -13.0198 347.329 -13.0198 347.913V349.293ZM-5.96394 341.397H0.264063V341.781L-4.36794 349.797H-4.96794L-0.395937 341.901H-5.96394V341.397Z" fill="black"/>
<g filter="url(#filter0_d_2451_14340)">
<mask id="path-11-inside-1_2451_14340" fill="white">
<path d="M160.586 110.865C160.586 109.761 161.481 108.865 162.586 108.865H347.293C348.397 108.865 349.293 109.761 349.293 110.865V215.001C349.293 216.105 348.397 217.001 347.293 217.001H162.586C161.481 217.001 160.586 216.105 160.586 215.001V110.865Z"/>
</mask>
<path d="M160.586 110.865C160.586 109.761 161.481 108.865 162.586 108.865H347.293C348.397 108.865 349.293 109.761 349.293 110.865V215.001C349.293 216.105 348.397 217.001 347.293 217.001H162.586C161.481 217.001 160.586 216.105 160.586 215.001V110.865Z" fill="white"/>
<path d="M160.586 108.865H349.293H160.586ZM349.293 215.001C349.293 218.314 346.606 221.001 343.293 221.001H166.586C163.272 221.001 160.586 218.314 160.586 215.001V213.001C160.586 213.001 161.481 213.001 162.586 213.001H347.293C348.397 213.001 349.293 213.001 349.293 213.001V215.001ZM160.586 217.001V108.865V217.001ZM349.293 108.865V217.001V108.865Z" fill="#E43B07" mask="url(#path-11-inside-1_2451_14340)"/>
</g>
<g filter="url(#filter1_d_2451_14340)">
<mask id="path-13-inside-2_2451_14340" fill="white">
<path d="M349.293 327.136C349.293 326.031 350.188 325.136 351.293 325.136H536C537.104 325.136 538 326.031 538 327.136V431.271C538 432.376 537.104 433.271 536 433.271H351.293C350.188 433.271 349.293 432.376 349.293 431.271V327.136Z"/>
</mask>
<path d="M349.293 327.136C349.293 326.031 350.188 325.136 351.293 325.136H536C537.104 325.136 538 326.031 538 327.136V431.271C538 432.376 537.104 433.271 536 433.271H351.293C350.188 433.271 349.293 432.376 349.293 431.271V327.136Z" fill="white"/>
<path d="M349.293 325.136H538H349.293ZM538 431.271C538 434.585 535.313 437.271 532 437.271H355.293C351.979 437.271 349.293 434.585 349.293 431.271V429.271C349.293 429.271 350.188 429.271 351.293 429.271H536C537.104 429.271 538 429.271 538 429.271V431.271ZM349.293 433.271V325.136V433.271ZM538 325.136V433.271V325.136Z" fill="#8EBFB0" mask="url(#path-13-inside-2_2451_14340)"/>
</g>
<path d="M175.01 24.8876H176.702V25.3916H172.706V24.8876H174.494V17.5796L172.898 17.9756V17.4596L174.938 16.9676H175.01V24.8876ZM180.98 16.8836C181.644 16.8836 182.228 16.9916 182.732 17.2076C183.236 17.4156 183.624 17.7156 183.896 18.1076C184.176 18.4916 184.316 18.9396 184.316 19.4516V22.8596C184.316 23.6756 184.02 24.3156 183.428 24.7796C182.836 25.2436 182.032 25.4756 181.016 25.4756C180.096 25.4756 179.348 25.2916 178.772 24.9236C178.204 24.5476 177.896 24.0356 177.848 23.3876H178.376C178.4 23.8676 178.656 24.2516 179.144 24.5396C179.632 24.8276 180.26 24.9716 181.028 24.9716C181.876 24.9716 182.548 24.7876 183.044 24.4196C183.548 24.0436 183.8 23.5236 183.8 22.8596V20.8676C183.152 21.6436 182.204 22.0316 180.956 22.0316C180.3 22.0316 179.72 21.9236 179.216 21.7076C178.72 21.4916 178.332 21.1916 178.052 20.8076C177.78 20.4156 177.644 19.9636 177.644 19.4516C177.644 18.9396 177.78 18.4916 178.052 18.1076C178.332 17.7156 178.724 17.4156 179.228 17.2076C179.732 16.9916 180.316 16.8836 180.98 16.8836ZM180.98 21.5276C181.836 21.5276 182.52 21.3396 183.032 20.9636C183.544 20.5876 183.8 20.0836 183.8 19.4516C183.8 18.8196 183.544 18.3156 183.032 17.9396C182.52 17.5636 181.836 17.3756 180.98 17.3756C180.124 17.3756 179.44 17.5636 178.928 17.9396C178.416 18.3156 178.16 18.8196 178.16 19.4516C178.16 20.0836 178.416 20.5876 178.928 20.9636C179.44 21.3396 180.124 21.5276 180.98 21.5276Z" fill="black"/>
<path d="M174.806 133.966H179.81V135.646H172.85V133.642C172.85 132.73 173.15 132.038 173.75 131.566C174.358 131.086 175.226 130.846 176.354 130.846C176.81 130.846 177.174 130.746 177.446 130.546C177.726 130.346 177.866 130.09 177.866 129.778C177.866 129.474 177.738 129.234 177.482 129.058C177.234 128.882 176.89 128.794 176.45 128.794C175.978 128.794 175.61 128.882 175.346 129.058C175.09 129.234 174.95 129.49 174.926 129.826H172.958C172.974 128.986 173.29 128.33 173.906 127.858C174.53 127.378 175.378 127.138 176.45 127.138C177.138 127.138 177.738 127.246 178.25 127.462C178.762 127.67 179.154 127.974 179.426 128.374C179.706 128.766 179.846 129.226 179.846 129.754C179.846 131.554 178.694 132.454 176.39 132.454C175.886 132.454 175.494 132.554 175.214 132.754C174.942 132.946 174.806 133.226 174.806 133.594V133.966ZM183.021 133.966H188.025V135.646H181.065V133.642C181.065 132.73 181.365 132.038 181.965 131.566C182.573 131.086 183.441 130.846 184.569 130.846C185.025 130.846 185.389 130.746 185.661 130.546C185.941 130.346 186.081 130.09 186.081 129.778C186.081 129.474 185.953 129.234 185.697 129.058C185.449 128.882 185.105 128.794 184.665 128.794C184.193 128.794 183.825 128.882 183.561 129.058C183.305 129.234 183.165 129.49 183.141 129.826H181.173C181.189 128.986 181.505 128.33 182.121 127.858C182.745 127.378 183.593 127.138 184.665 127.138C185.353 127.138 185.953 127.246 186.465 127.462C186.977 127.67 187.369 127.974 187.641 128.374C187.921 128.766 188.061 129.226 188.061 129.754C188.061 131.554 186.909 132.454 184.605 132.454C184.101 132.454 183.709 132.554 183.429 132.754C183.157 132.946 183.021 133.226 183.021 133.594V133.966Z" fill="black"/>
<path d="M363.509 350.238H368.513V351.918H361.553V349.914C361.553 349.002 361.853 348.31 362.453 347.838C363.061 347.358 363.929 347.118 365.057 347.118C365.513 347.118 365.877 347.018 366.149 346.818C366.429 346.618 366.569 346.362 366.569 346.05C366.569 345.746 366.441 345.506 366.185 345.33C365.937 345.154 365.593 345.066 365.153 345.066C364.681 345.066 364.313 345.154 364.049 345.33C363.793 345.506 363.653 345.762 363.629 346.098H361.661C361.677 345.258 361.993 344.602 362.609 344.13C363.233 343.65 364.081 343.41 365.153 343.41C365.841 343.41 366.441 343.518 366.953 343.734C367.465 343.942 367.857 344.246 368.129 344.646C368.409 345.038 368.549 345.498 368.549 346.026C368.549 347.826 367.397 348.726 365.093 348.726C364.589 348.726 364.197 348.826 363.917 349.026C363.645 349.218 363.509 349.498 363.509 349.866V350.238ZM373.2 343.386C373.912 343.386 374.54 343.506 375.084 343.746C375.628 343.986 376.052 344.322 376.356 344.754C376.66 345.178 376.812 345.67 376.812 346.23V349.17C376.812 349.754 376.664 350.262 376.368 350.694C376.072 351.126 375.652 351.462 375.108 351.702C374.564 351.934 373.936 352.05 373.224 352.05C372.12 352.05 371.26 351.83 370.644 351.39C370.036 350.95 369.728 350.326 369.72 349.518H371.688C371.704 349.79 371.848 350.006 372.12 350.166C372.4 350.326 372.76 350.406 373.2 350.406C373.656 350.406 374.036 350.29 374.34 350.058C374.652 349.818 374.808 349.506 374.808 349.122V348.354C374.28 348.754 373.608 348.954 372.792 348.954C372.16 348.954 371.608 348.846 371.136 348.63C370.664 348.406 370.3 348.09 370.044 347.682C369.788 347.266 369.66 346.786 369.66 346.242C369.66 345.674 369.804 345.174 370.092 344.742C370.388 344.31 370.804 343.978 371.34 343.746C371.876 343.506 372.496 343.386 373.2 343.386ZM373.236 347.406C373.708 347.406 374.088 347.302 374.376 347.094C374.672 346.878 374.82 346.594 374.82 346.242C374.82 345.898 374.672 345.622 374.376 345.414C374.088 345.198 373.708 345.09 373.236 345.09C372.756 345.09 372.372 345.198 372.084 345.414C371.796 345.622 371.652 345.898 371.652 346.242C371.652 346.594 371.796 346.878 372.084 347.094C372.372 347.302 372.756 347.406 373.236 347.406Z" fill="black"/>
<path d="M178.921 201.419H179.701V198.311L178.963 198.509V198.029L180.223 197.657V201.419H180.985V201.857H178.921V201.419ZM182.107 199.757C182.353 199.421 182.749 199.247 183.301 199.247C183.469 199.247 183.631 199.265 183.787 199.295C183.943 199.325 184.099 199.373 184.243 199.439C184.387 199.511 184.519 199.595 184.627 199.691C184.735 199.793 184.819 199.919 184.885 200.075C184.945 200.231 184.981 200.399 184.981 200.585C184.981 200.813 184.927 201.017 184.831 201.191C184.735 201.371 184.603 201.509 184.441 201.611C184.273 201.719 184.093 201.797 183.901 201.845C183.709 201.899 183.505 201.923 183.295 201.923C183.001 201.923 182.731 201.881 182.479 201.791C182.227 201.701 182.017 201.551 181.849 201.335C181.675 201.125 181.591 200.867 181.591 200.567V198.851C181.591 198.449 181.753 198.137 182.077 197.921C182.401 197.705 182.791 197.591 183.247 197.591C183.709 197.591 184.099 197.693 184.411 197.885C184.723 198.077 184.885 198.359 184.903 198.731H184.381C184.369 198.515 184.255 198.341 184.039 198.221C183.823 198.101 183.559 198.035 183.253 198.035C182.941 198.035 182.677 198.113 182.449 198.257C182.221 198.407 182.107 198.605 182.107 198.857V199.757ZM183.295 201.443C183.493 201.443 183.679 201.413 183.847 201.359C184.015 201.311 184.159 201.215 184.279 201.083C184.399 200.951 184.459 200.789 184.459 200.585C184.459 200.297 184.345 200.075 184.123 199.931C183.895 199.787 183.625 199.715 183.307 199.715C182.989 199.715 182.713 199.793 182.473 199.943C182.233 200.099 182.119 200.309 182.119 200.585C182.119 200.873 182.233 201.089 182.467 201.233C182.701 201.377 182.977 201.443 183.295 201.443ZM185.709 199.811C185.709 199.715 185.739 199.637 185.805 199.577C185.871 199.517 185.943 199.487 186.027 199.487C186.111 199.487 186.183 199.517 186.249 199.577C186.315 199.637 186.351 199.715 186.351 199.811C186.351 199.913 186.315 199.991 186.249 200.051C186.183 200.111 186.111 200.135 186.027 200.135C185.943 200.135 185.871 200.111 185.805 200.051C185.739 199.991 185.709 199.913 185.709 199.811ZM185.709 201.581C185.709 201.485 185.739 201.407 185.805 201.347C185.871 201.287 185.943 201.257 186.027 201.257C186.111 201.257 186.183 201.287 186.249 201.347C186.315 201.407 186.351 201.485 186.351 201.581C186.351 201.683 186.315 201.761 186.249 201.821C186.183 201.881 186.111 201.905 186.027 201.905C185.943 201.905 185.871 201.881 185.805 201.821C185.739 201.761 185.709 201.683 185.709 201.581ZM187.162 198.749L187.15 198.743C187.15 198.533 187.198 198.347 187.294 198.191C187.39 198.035 187.522 197.915 187.69 197.831C187.852 197.747 188.02 197.687 188.2 197.651C188.38 197.615 188.566 197.591 188.77 197.591C189.232 197.591 189.61 197.699 189.91 197.915C190.21 198.131 190.36 198.419 190.366 198.779C190.366 198.995 190.294 199.187 190.156 199.355C190.012 199.523 189.832 199.637 189.616 199.685C189.85 199.745 190.048 199.865 190.21 200.045C190.366 200.225 190.45 200.423 190.45 200.651C190.45 201.053 190.288 201.365 189.976 201.581C189.658 201.797 189.256 201.905 188.764 201.905C188.602 201.905 188.446 201.899 188.296 201.875C188.146 201.851 187.996 201.815 187.846 201.755C187.696 201.695 187.564 201.623 187.456 201.533C187.348 201.449 187.258 201.335 187.192 201.191C187.12 201.053 187.09 200.891 187.09 200.711H187.612C187.612 201.191 188.002 201.425 188.776 201.425C189.118 201.425 189.394 201.359 189.61 201.227C189.82 201.095 189.928 200.909 189.928 200.669C189.928 200.471 189.832 200.297 189.646 200.147C189.454 199.997 189.172 199.919 188.8 199.919H188.122V199.481H188.764C189.082 199.481 189.34 199.415 189.544 199.283C189.742 199.151 189.844 198.989 189.85 198.785C189.85 198.593 189.76 198.431 189.58 198.287C189.4 198.143 189.13 198.071 188.776 198.071C188.644 198.071 188.524 198.083 188.41 198.101C188.29 198.125 188.176 198.155 188.062 198.197C187.942 198.245 187.852 198.311 187.78 198.407C187.708 198.503 187.678 198.617 187.678 198.749H187.162ZM191.163 199.337C191.163 199.061 191.211 198.803 191.307 198.575C191.403 198.347 191.535 198.167 191.691 198.029C191.847 197.891 192.033 197.783 192.237 197.705C192.441 197.633 192.645 197.591 192.861 197.591C193.071 197.591 193.281 197.633 193.485 197.705C193.689 197.783 193.869 197.891 194.025 198.029C194.181 198.173 194.313 198.353 194.409 198.581C194.505 198.809 194.559 199.061 194.559 199.337V200.177C194.559 200.549 194.475 200.867 194.307 201.137C194.139 201.413 193.929 201.611 193.677 201.731C193.425 201.857 193.149 201.917 192.861 201.917C192.567 201.917 192.297 201.857 192.045 201.737C191.793 201.617 191.583 201.419 191.415 201.143C191.247 200.873 191.163 200.549 191.163 200.177V199.337ZM191.685 200.177C191.685 200.405 191.727 200.609 191.811 200.789C191.895 200.969 192.009 201.107 192.147 201.203C192.285 201.299 192.441 201.365 192.609 201.407C192.777 201.449 192.945 201.449 193.113 201.401C193.281 201.359 193.431 201.293 193.569 201.197C193.707 201.107 193.821 200.969 193.905 200.789C193.989 200.609 194.037 200.399 194.037 200.171V199.331C194.037 199.103 193.989 198.905 193.905 198.725C193.821 198.545 193.707 198.413 193.569 198.317C193.431 198.227 193.281 198.161 193.113 198.113C192.945 198.071 192.777 198.071 192.609 198.113C192.441 198.155 192.285 198.221 192.147 198.317C192.009 198.413 191.895 198.545 191.811 198.725C191.727 198.905 191.685 199.109 191.685 199.337V200.177Z" fill="#A9A9A9"/>
<path d="M367.688 415.608C367.688 415.332 367.736 415.074 367.832 414.846C367.928 414.618 368.06 414.438 368.216 414.3C368.372 414.162 368.558 414.054 368.762 413.976C368.966 413.904 369.17 413.862 369.386 413.862C369.596 413.862 369.806 413.904 370.01 413.976C370.214 414.054 370.394 414.162 370.55 414.3C370.706 414.444 370.838 414.624 370.934 414.852C371.03 415.08 371.084 415.332 371.084 415.608V416.448C371.084 416.82 371 417.138 370.832 417.408C370.664 417.684 370.454 417.882 370.202 418.002C369.95 418.128 369.674 418.188 369.386 418.188C369.092 418.188 368.822 418.128 368.57 418.008C368.318 417.888 368.108 417.69 367.94 417.414C367.772 417.144 367.688 416.82 367.688 416.448V415.608ZM368.21 416.448C368.21 416.676 368.252 416.88 368.336 417.06C368.42 417.24 368.534 417.378 368.672 417.474C368.81 417.57 368.966 417.636 369.134 417.678C369.302 417.72 369.47 417.72 369.638 417.672C369.806 417.63 369.956 417.564 370.094 417.468C370.232 417.378 370.346 417.24 370.43 417.06C370.514 416.88 370.562 416.67 370.562 416.442V415.602C370.562 415.374 370.514 415.176 370.43 414.996C370.346 414.816 370.232 414.684 370.094 414.588C369.956 414.498 369.806 414.432 369.638 414.384C369.47 414.342 369.302 414.342 369.134 414.384C368.966 414.426 368.81 414.492 368.672 414.588C368.534 414.684 368.42 414.816 368.336 414.996C368.252 415.176 368.21 415.38 368.21 415.608V416.448ZM371.801 416.94C371.801 416.712 371.873 416.508 372.029 416.328C372.179 416.148 372.371 416.028 372.611 415.956C372.131 415.77 371.891 415.464 371.891 415.044C371.891 414.84 371.939 414.654 372.035 414.498C372.131 414.342 372.257 414.216 372.425 414.12C372.587 414.03 372.767 413.964 372.959 413.916C373.151 413.868 373.349 413.844 373.565 413.844C373.853 413.844 374.117 413.886 374.363 413.958C374.603 414.036 374.813 414.168 374.993 414.354C375.167 414.54 375.257 414.768 375.257 415.044C375.257 415.248 375.185 415.434 375.053 415.596C374.915 415.758 374.735 415.878 374.513 415.95C374.741 416.022 374.939 416.148 375.095 416.334C375.251 416.526 375.329 416.73 375.335 416.952C375.335 417.192 375.281 417.396 375.179 417.564C375.077 417.738 374.939 417.87 374.765 417.96C374.585 418.056 374.399 418.122 374.201 418.158C374.003 418.2 373.793 418.218 373.565 418.218C373.337 418.218 373.121 418.2 372.929 418.158C372.737 418.122 372.551 418.056 372.371 417.96C372.191 417.87 372.053 417.738 371.951 417.564C371.849 417.39 371.801 417.18 371.801 416.94ZM374.729 415.032C374.729 414.87 374.663 414.732 374.543 414.612C374.417 414.492 374.267 414.408 374.099 414.36C373.925 414.312 373.745 414.282 373.559 414.282C373.367 414.282 373.181 414.312 373.013 414.36C372.845 414.414 372.701 414.498 372.587 414.618C372.467 414.738 372.413 414.876 372.413 415.032C372.413 415.272 372.533 415.446 372.773 415.566C373.013 415.686 373.277 415.746 373.565 415.746C373.745 415.746 373.919 415.728 374.087 415.68C374.255 415.638 374.399 415.56 374.531 415.446C374.663 415.332 374.729 415.194 374.729 415.032ZM373.565 416.16C373.373 416.16 373.193 416.178 373.013 416.226C372.833 416.274 372.671 416.358 372.533 416.478C372.389 416.604 372.323 416.754 372.323 416.934C372.323 417.204 372.443 417.408 372.695 417.54C372.947 417.672 373.235 417.738 373.559 417.738C373.763 417.738 373.955 417.714 374.135 417.666C374.315 417.618 374.471 417.528 374.609 417.402C374.741 417.282 374.813 417.126 374.813 416.94C374.813 416.766 374.741 416.616 374.597 416.49C374.453 416.37 374.297 416.28 374.117 416.232C373.937 416.184 373.751 416.16 373.565 416.16ZM376.092 416.082C376.092 415.986 376.122 415.908 376.188 415.848C376.254 415.788 376.326 415.758 376.41 415.758C376.494 415.758 376.566 415.788 376.632 415.848C376.698 415.908 376.734 415.986 376.734 416.082C376.734 416.184 376.698 416.262 376.632 416.322C376.566 416.382 376.494 416.406 376.41 416.406C376.326 416.406 376.254 416.382 376.188 416.322C376.122 416.262 376.092 416.184 376.092 416.082ZM376.092 417.852C376.092 417.756 376.122 417.678 376.188 417.618C376.254 417.558 376.326 417.528 376.41 417.528C376.494 417.528 376.566 417.558 376.632 417.618C376.698 417.678 376.734 417.756 376.734 417.852C376.734 417.954 376.698 418.032 376.632 418.092C376.566 418.152 376.494 418.176 376.41 418.176C376.326 418.176 376.254 418.152 376.188 418.092C376.122 418.032 376.092 417.954 376.092 417.852ZM377.544 415.02L377.532 415.014C377.532 414.804 377.58 414.618 377.676 414.462C377.772 414.306 377.904 414.186 378.072 414.102C378.234 414.018 378.402 413.958 378.582 413.922C378.762 413.886 378.948 413.862 379.152 413.862C379.614 413.862 379.992 413.97 380.292 414.186C380.592 414.402 380.742 414.69 380.748 415.05C380.748 415.266 380.676 415.458 380.538 415.626C380.394 415.794 380.214 415.908 379.998 415.956C380.232 416.016 380.43 416.136 380.592 416.316C380.748 416.496 380.832 416.694 380.832 416.922C380.832 417.324 380.67 417.636 380.358 417.852C380.04 418.068 379.638 418.176 379.146 418.176C378.984 418.176 378.828 418.17 378.678 418.146C378.528 418.122 378.378 418.086 378.228 418.026C378.078 417.966 377.946 417.894 377.838 417.804C377.73 417.72 377.64 417.606 377.574 417.462C377.502 417.324 377.472 417.162 377.472 416.982H377.994C377.994 417.462 378.384 417.696 379.158 417.696C379.5 417.696 379.776 417.63 379.992 417.498C380.202 417.366 380.31 417.18 380.31 416.94C380.31 416.742 380.214 416.568 380.028 416.418C379.836 416.268 379.554 416.19 379.182 416.19H378.504V415.752H379.146C379.464 415.752 379.722 415.686 379.926 415.554C380.124 415.422 380.226 415.26 380.232 415.056C380.232 414.864 380.142 414.702 379.962 414.558C379.782 414.414 379.512 414.342 379.158 414.342C379.026 414.342 378.906 414.354 378.792 414.372C378.672 414.396 378.558 414.426 378.444 414.468C378.324 414.516 378.234 414.582 378.162 414.678C378.09 414.774 378.06 414.888 378.06 415.02H377.544ZM381.546 415.608C381.546 415.332 381.594 415.074 381.69 414.846C381.786 414.618 381.918 414.438 382.074 414.3C382.23 414.162 382.416 414.054 382.62 413.976C382.824 413.904 383.028 413.862 383.244 413.862C383.454 413.862 383.664 413.904 383.868 413.976C384.072 414.054 384.252 414.162 384.408 414.3C384.564 414.444 384.696 414.624 384.792 414.852C384.888 415.08 384.942 415.332 384.942 415.608V416.448C384.942 416.82 384.858 417.138 384.69 417.408C384.522 417.684 384.312 417.882 384.06 418.002C383.808 418.128 383.532 418.188 383.244 418.188C382.95 418.188 382.68 418.128 382.428 418.008C382.176 417.888 381.966 417.69 381.798 417.414C381.63 417.144 381.546 416.82 381.546 416.448V415.608ZM382.068 416.448C382.068 416.676 382.11 416.88 382.194 417.06C382.278 417.24 382.392 417.378 382.53 417.474C382.668 417.57 382.824 417.636 382.992 417.678C383.16 417.72 383.328 417.72 383.496 417.672C383.664 417.63 383.814 417.564 383.952 417.468C384.09 417.378 384.204 417.24 384.288 417.06C384.372 416.88 384.42 416.67 384.42 416.442V415.602C384.42 415.374 384.372 415.176 384.288 414.996C384.204 414.816 384.09 414.684 383.952 414.588C383.814 414.498 383.664 414.432 383.496 414.384C383.328 414.342 383.16 414.342 382.992 414.384C382.824 414.426 382.668 414.492 382.53 414.588C382.392 414.684 382.278 414.816 382.194 414.996C382.11 415.176 382.068 415.38 382.068 415.608V416.448Z" fill="#A9A9A9"/>
<path fill-rule="evenodd" clip-rule="evenodd" d="M172.248 203.131C173.722 203.131 174.992 202.09 175.281 200.645C175.569 199.199 174.798 197.751 173.437 197.184C172.076 196.618 170.504 197.091 169.682 198.314C168.86 199.538 169.016 201.172 170.055 202.218C170.635 202.802 171.425 203.131 172.248 203.131Z" stroke="#A9A9A9" stroke-width="0.5" stroke-linecap="round" stroke-linejoin="round"/>
<path d="M171.766 199.228V200.735H173.209" stroke="#A9A9A9" stroke-width="0.5" stroke-linecap="round" stroke-linejoin="round"/>
<path fill-rule="evenodd" clip-rule="evenodd" d="M360.951 419.401C362.426 419.401 363.695 418.361 363.984 416.915C364.273 415.47 363.501 414.021 362.14 413.455C360.779 412.888 359.207 413.361 358.385 414.585C357.563 415.808 357.719 417.442 358.758 418.488C359.338 419.073 360.128 419.401 360.951 419.401Z" stroke="#A9A9A9" stroke-width="0.5" stroke-linecap="round" stroke-linejoin="round"/>
<path d="M360.469 415.498V417.005H361.912" stroke="#A9A9A9" stroke-width="0.5" stroke-linecap="round" stroke-linejoin="round"/>
<path d="M175.904 168.825C176.912 168.834 177.695 169.158 178.253 169.797C178.811 170.445 179.09 171.21 179.09 172.101C179.09 172.524 179.018 172.929 178.883 173.307C178.748 173.694 178.55 174.045 178.298 174.351C178.046 174.657 177.713 174.909 177.299 175.089C176.885 175.269 176.417 175.359 175.895 175.359C175.373 175.359 174.896 175.269 174.482 175.089C174.068 174.909 173.726 174.657 173.474 174.351C173.222 174.045 173.024 173.694 172.889 173.316C172.754 172.938 172.691 172.533 172.691 172.101C172.691 171.165 172.979 170.391 173.564 169.761C174.149 169.14 174.932 168.825 175.904 168.825ZM178.307 172.101C178.307 171.66 178.226 171.255 178.064 170.877C177.893 170.499 177.623 170.184 177.245 169.932C176.867 169.68 176.426 169.554 175.904 169.545C175.13 169.545 174.536 169.797 174.113 170.283C173.681 170.769 173.474 171.381 173.474 172.101C173.474 172.803 173.681 173.397 174.104 173.883C174.518 174.378 175.121 174.621 175.904 174.621C176.678 174.621 177.272 174.378 177.686 173.874C178.1 173.379 178.307 172.785 178.307 172.101ZM180.834 170.787L180.843 170.778L180.897 171.444C181.158 170.958 181.617 170.706 182.265 170.706C182.652 170.697 182.994 170.805 183.3 171.039L182.967 171.669C182.733 171.507 182.472 171.426 182.193 171.426C181.824 171.435 181.518 171.561 181.266 171.804C181.014 172.047 180.888 172.362 180.888 172.758V175.233H180.15V170.787H180.834ZM183.891 169.428C183.891 169.635 183.972 169.779 184.134 169.86C184.296 169.95 184.458 169.95 184.62 169.869C184.782 169.788 184.863 169.644 184.863 169.437C184.863 169.239 184.782 169.095 184.62 169.005C184.458 168.924 184.296 168.924 184.134 169.005C183.972 169.086 183.891 169.23 183.891 169.428ZM183.999 170.769H184.737V175.233H183.999V170.769ZM190.078 174.522H190.069C189.853 174.783 189.565 174.981 189.223 175.116C188.872 175.251 188.512 175.314 188.152 175.314C187.45 175.314 186.892 175.107 186.46 174.684C186.028 174.261 185.812 173.694 185.812 172.992C185.812 172.326 186.028 171.768 186.46 171.336C186.892 170.904 187.441 170.688 188.116 170.688C188.836 170.688 189.403 170.913 189.826 171.363C190.249 171.813 190.42 172.452 190.339 173.298H186.559C186.595 173.703 186.766 174.027 187.072 174.27C187.369 174.513 187.738 174.63 188.17 174.63C188.431 174.63 188.692 174.585 188.962 174.486C189.232 174.387 189.439 174.252 189.583 174.072L190.078 174.522ZM189.637 172.677V172.686C189.619 172.263 189.475 171.939 189.205 171.705C188.935 171.471 188.575 171.354 188.134 171.354C187.729 171.354 187.378 171.471 187.09 171.705C186.793 171.939 186.613 172.263 186.559 172.677H189.637ZM191.364 170.787V170.778H192.039L192.075 171.489C192.453 170.976 192.957 170.715 193.596 170.715C194.172 170.715 194.64 170.904 195 171.273C195.36 171.642 195.549 172.146 195.549 172.776V175.233H194.811V172.785C194.811 172.353 194.685 172.02 194.451 171.768C194.208 171.525 193.875 171.399 193.461 171.399C193.056 171.408 192.723 171.552 192.471 171.822C192.219 172.101 192.093 172.443 192.093 172.848V175.233H191.364V170.787ZM197.977 169.491V170.796H199.354V171.426H197.968V173.775C197.968 174.351 198.202 174.63 198.67 174.63C198.868 174.63 199.075 174.576 199.291 174.468L199.507 175.08C199.201 175.224 198.913 175.296 198.643 175.296C197.707 175.314 197.239 174.81 197.239 173.775V171.426H196.348V170.796H197.239V169.572L197.977 169.491ZM203.975 175.233L203.957 175.251L203.939 174.441C203.768 174.738 203.534 174.963 203.237 175.116C202.931 175.269 202.625 175.341 202.301 175.341C201.644 175.341 201.104 175.134 200.672 174.711C200.24 174.288 200.024 173.721 200.024 173.01C200.024 172.308 200.24 171.75 200.672 171.336C201.104 170.922 201.653 170.715 202.31 170.715C202.652 170.715 202.967 170.796 203.273 170.949C203.57 171.102 203.795 171.318 203.957 171.597L203.966 170.787H204.686V175.233H203.975ZM202.346 171.408L202.337 171.417C201.887 171.417 201.509 171.57 201.203 171.867C200.897 172.164 200.744 172.551 200.744 173.037C200.744 173.523 200.897 173.919 201.203 174.216C201.509 174.522 201.887 174.666 202.337 174.666C202.625 174.666 202.886 174.612 203.12 174.486C203.354 174.369 203.525 174.216 203.651 174.018C203.768 173.829 203.858 173.622 203.912 173.388C203.966 173.154 203.966 172.929 203.912 172.695C203.858 172.461 203.768 172.254 203.651 172.056C203.525 171.867 203.354 171.714 203.129 171.588C202.895 171.471 202.634 171.408 202.346 171.408ZM207.284 169.491V170.796H208.661V171.426H207.275V173.775C207.275 174.351 207.509 174.63 207.977 174.63C208.175 174.63 208.382 174.576 208.598 174.468L208.814 175.08C208.508 175.224 208.22 175.296 207.95 175.296C207.014 175.314 206.546 174.81 206.546 173.775V171.426H205.655V170.796H206.546V169.572L207.284 169.491ZM209.503 169.428C209.503 169.635 209.584 169.779 209.746 169.86C209.908 169.95 210.07 169.95 210.232 169.869C210.394 169.788 210.475 169.644 210.475 169.437C210.475 169.239 210.394 169.095 210.232 169.005C210.07 168.924 209.908 168.924 209.746 169.005C209.584 169.086 209.503 169.23 209.503 169.428ZM209.611 170.769H210.349V175.233H209.611V170.769ZM211.414 173.019C211.414 172.335 211.63 171.777 212.062 171.345C212.494 170.913 213.052 170.688 213.718 170.688C214.393 170.688 214.951 170.904 215.383 171.336C215.815 171.768 216.031 172.335 216.031 173.019C216.031 173.694 215.806 174.243 215.374 174.675C214.942 175.107 214.384 175.314 213.718 175.314C213.052 175.314 212.494 175.107 212.062 174.675C211.63 174.243 211.414 173.694 211.414 173.019ZM215.302 173.019C215.302 172.533 215.149 172.137 214.852 171.831C214.546 171.525 214.177 171.363 213.727 171.363C213.268 171.363 212.89 171.516 212.593 171.822C212.296 172.128 212.152 172.533 212.152 173.019C212.152 173.487 212.296 173.874 212.593 174.171C212.881 174.477 213.259 174.621 213.718 174.621C214.168 174.621 214.546 174.477 214.843 174.171C215.14 173.874 215.293 173.487 215.302 173.019ZM217.09 170.787V170.778H217.765L217.801 171.489C218.179 170.976 218.683 170.715 219.322 170.715C219.898 170.715 220.366 170.904 220.726 171.273C221.086 171.642 221.275 172.146 221.275 172.776V175.233H220.537V172.785C220.537 172.353 220.411 172.02 220.177 171.768C219.934 171.525 219.601 171.399 219.187 171.399C218.782 171.408 218.449 171.552 218.197 171.822C217.945 172.101 217.819 172.443 217.819 172.848V175.233H217.09V170.787ZM224.58 173.019C224.58 172.335 224.796 171.777 225.228 171.345C225.66 170.913 226.218 170.688 226.884 170.688C227.559 170.688 228.117 170.904 228.549 171.336C228.981 171.768 229.197 172.335 229.197 173.019C229.197 173.694 228.972 174.243 228.54 174.675C228.108 175.107 227.55 175.314 226.884 175.314C226.218 175.314 225.66 175.107 225.228 174.675C224.796 174.243 224.58 173.694 224.58 173.019ZM228.468 173.019C228.468 172.533 228.315 172.137 228.018 171.831C227.712 171.525 227.343 171.363 226.893 171.363C226.434 171.363 226.056 171.516 225.759 171.822C225.462 172.128 225.318 172.533 225.318 173.019C225.318 173.487 225.462 173.874 225.759 174.171C226.047 174.477 226.425 174.621 226.884 174.621C227.334 174.621 227.712 174.477 228.009 174.171C228.306 173.874 228.459 173.487 228.468 173.019ZM230.672 175.233L230.681 175.242V171.489H229.808V170.841H230.681V170.49C230.681 169.986 230.807 169.59 231.077 169.302C231.338 169.023 231.707 168.879 232.175 168.879C232.526 168.879 232.859 168.987 233.183 169.203L232.877 169.752C232.625 169.608 232.391 169.527 232.193 169.527C231.671 169.527 231.41 169.851 231.41 170.49V170.841H232.805V171.489H231.41V175.233H230.672ZM235.723 170.787V170.778H236.398L236.434 171.489C236.812 170.976 237.316 170.715 237.955 170.715C238.531 170.715 238.999 170.904 239.359 171.273C239.719 171.642 239.908 172.146 239.908 172.776V175.233H239.17V172.785C239.17 172.353 239.044 172.02 238.81 171.768C238.567 171.525 238.234 171.399 237.82 171.399C237.415 171.408 237.082 171.552 236.83 171.822C236.578 172.101 236.452 172.443 236.452 172.848V175.233H235.723V170.787ZM245.185 174.522H245.176C244.96 174.783 244.672 174.981 244.33 175.116C243.979 175.251 243.619 175.314 243.259 175.314C242.557 175.314 241.999 175.107 241.567 174.684C241.135 174.261 240.919 173.694 240.919 172.992C240.919 172.326 241.135 171.768 241.567 171.336C241.999 170.904 242.548 170.688 243.223 170.688C243.943 170.688 244.51 170.913 244.933 171.363C245.356 171.813 245.527 172.452 245.446 173.298H241.666C241.702 173.703 241.873 174.027 242.179 174.27C242.476 174.513 242.845 174.63 243.277 174.63C243.538 174.63 243.799 174.585 244.069 174.486C244.339 174.387 244.546 174.252 244.69 174.072L245.185 174.522ZM244.744 172.677V172.686C244.726 172.263 244.582 171.939 244.312 171.705C244.042 171.471 243.682 171.354 243.241 171.354C242.836 171.354 242.485 171.471 242.197 171.705C241.9 171.939 241.72 172.263 241.666 172.677H244.744ZM245.97 170.787H246.789L247.986 174.45L249.165 170.787H249.768L250.947 174.45L252.144 170.787H252.954L251.397 175.242H250.551L249.948 173.586L249.471 171.966L248.985 173.586L248.382 175.242H247.545L245.97 170.787ZM258.87 171.768L258.861 171.777C258.537 171.489 258.123 171.345 257.61 171.345C257.286 171.345 257.016 171.399 256.809 171.507C256.602 171.624 256.503 171.786 256.512 171.993C256.512 172.353 256.881 172.569 257.619 172.65C257.826 172.677 257.997 172.704 258.132 172.722C258.267 172.749 258.429 172.794 258.627 172.857C258.816 172.92 258.969 172.992 259.077 173.082C259.185 173.172 259.284 173.298 259.374 173.46C259.455 173.622 259.491 173.802 259.491 174.009C259.482 174.441 259.302 174.765 258.951 174.999C258.591 175.233 258.15 175.341 257.628 175.341C256.746 175.341 256.08 175.062 255.639 174.504L256.062 173.991C256.431 174.45 256.962 174.675 257.646 174.675C257.934 174.675 258.195 174.621 258.42 174.513C258.645 174.405 258.762 174.234 258.771 173.982C258.771 173.766 258.672 173.604 258.465 173.496C258.258 173.397 257.961 173.325 257.574 173.271C257.322 173.244 257.106 173.208 256.926 173.154C256.746 173.109 256.557 173.037 256.377 172.947C256.188 172.857 256.044 172.74 255.945 172.578C255.846 172.416 255.801 172.227 255.801 171.993C255.801 171.696 255.891 171.444 256.08 171.237C256.26 171.039 256.485 170.895 256.746 170.805C257.007 170.724 257.295 170.688 257.601 170.688C258.285 170.688 258.852 170.886 259.293 171.282L258.87 171.768ZM261.75 169.491V170.796H263.127V171.426H261.741V173.775C261.741 174.351 261.975 174.63 262.443 174.63C262.641 174.63 262.848 174.576 263.064 174.468L263.28 175.08C262.974 175.224 262.686 175.296 262.416 175.296C261.48 175.314 261.012 174.81 261.012 173.775V171.426H260.121V170.796H261.012V169.572L261.75 169.491ZM267.523 175.233H267.532L267.496 174.522C267.118 175.035 266.596 175.296 265.948 175.305C265.372 175.305 264.904 175.125 264.544 174.756C264.184 174.387 264.013 173.883 264.013 173.244V170.787H264.751V173.235C264.751 173.667 264.868 174.009 265.111 174.252C265.345 174.504 265.678 174.621 266.101 174.621C266.497 174.621 266.83 174.477 267.082 174.198C267.334 173.928 267.469 173.586 267.469 173.172V170.787H268.207V175.233H267.523ZM273.926 168.933L273.935 168.924V175.224H273.242L273.206 174.414C273.026 174.711 272.792 174.936 272.495 175.089C272.198 175.242 271.883 175.314 271.541 175.314C270.884 175.314 270.344 175.116 269.921 174.702C269.498 174.288 269.291 173.73 269.291 173.01C269.291 172.29 269.498 171.723 269.921 171.318C270.335 170.913 270.875 170.706 271.532 170.706C271.865 170.706 272.189 170.787 272.504 170.94C272.81 171.093 273.044 171.309 273.197 171.597V168.933H273.926ZM271.586 171.39H271.595C271.145 171.39 270.767 171.534 270.47 171.822C270.173 172.11 270.029 172.497 270.029 173.001C270.029 173.505 270.173 173.892 270.47 174.18C270.767 174.468 271.145 174.612 271.595 174.612C272.045 174.612 272.414 174.468 272.72 174.162C273.017 173.865 273.17 173.478 273.17 172.992C273.17 172.524 273.017 172.146 272.711 171.84C272.405 171.543 272.036 171.39 271.586 171.39ZM279.269 174.522H279.26C279.044 174.783 278.756 174.981 278.414 175.116C278.063 175.251 277.703 175.314 277.343 175.314C276.641 175.314 276.083 175.107 275.651 174.684C275.219 174.261 275.003 173.694 275.003 172.992C275.003 172.326 275.219 171.768 275.651 171.336C276.083 170.904 276.632 170.688 277.307 170.688C278.027 170.688 278.594 170.913 279.017 171.363C279.44 171.813 279.611 172.452 279.53 173.298H275.75C275.786 173.703 275.957 174.027 276.263 174.27C276.56 174.513 276.929 174.63 277.361 174.63C277.622 174.63 277.883 174.585 278.153 174.486C278.423 174.387 278.63 174.252 278.774 174.072L279.269 174.522ZM278.828 172.677V172.686C278.81 172.263 278.666 171.939 278.396 171.705C278.126 171.471 277.766 171.354 277.325 171.354C276.92 171.354 276.569 171.471 276.281 171.705C275.984 171.939 275.804 172.263 275.75 172.677H278.828ZM280.556 170.787V170.778H281.231L281.267 171.489C281.645 170.976 282.149 170.715 282.788 170.715C283.364 170.715 283.832 170.904 284.192 171.273C284.552 171.642 284.741 172.146 284.741 172.776V175.233H284.003V172.785C284.003 172.353 283.877 172.02 283.643 171.768C283.4 171.525 283.067 171.399 282.653 171.399C282.248 171.408 281.915 171.552 281.663 171.822C281.411 172.101 281.285 172.443 281.285 172.848V175.233H280.556V170.787ZM287.168 169.491V170.796H288.545V171.426H287.159V173.775C287.159 174.351 287.393 174.63 287.861 174.63C288.059 174.63 288.266 174.576 288.482 174.468L288.698 175.08C288.392 175.224 288.104 175.296 287.834 175.296C286.898 175.314 286.43 174.81 286.43 173.775V171.426H285.539V170.796H286.43V169.572L287.168 169.491ZM292.356 171.768L292.347 171.777C292.023 171.489 291.609 171.345 291.096 171.345C290.772 171.345 290.502 171.399 290.295 171.507C290.088 171.624 289.989 171.786 289.998 171.993C289.998 172.353 290.367 172.569 291.105 172.65C291.312 172.677 291.483 172.704 291.618 172.722C291.753 172.749 291.915 172.794 292.113 172.857C292.302 172.92 292.455 172.992 292.563 173.082C292.671 173.172 292.77 173.298 292.86 173.46C292.941 173.622 292.977 173.802 292.977 174.009C292.968 174.441 292.788 174.765 292.437 174.999C292.077 175.233 291.636 175.341 291.114 175.341C290.232 175.341 289.566 175.062 289.125 174.504L289.548 173.991C289.917 174.45 290.448 174.675 291.132 174.675C291.42 174.675 291.681 174.621 291.906 174.513C292.131 174.405 292.248 174.234 292.257 173.982C292.257 173.766 292.158 173.604 291.951 173.496C291.744 173.397 291.447 173.325 291.06 173.271C290.808 173.244 290.592 173.208 290.412 173.154C290.232 173.109 290.043 173.037 289.863 172.947C289.674 172.857 289.53 172.74 289.431 172.578C289.332 172.416 289.287 172.227 289.287 171.993C289.287 171.696 289.377 171.444 289.566 171.237C289.746 171.039 289.971 170.895 290.232 170.805C290.493 170.724 290.781 170.688 291.087 170.688C291.771 170.688 292.338 170.886 292.779 171.282L292.356 171.768Z" fill="#777777"/>
<path d="M367.037 385.366C366.407 385.996 365.624 386.302 364.697 386.302C363.644 386.302 362.834 385.996 362.267 385.375C361.7 384.754 361.412 383.989 361.412 383.089C361.403 382.513 361.52 381.982 361.754 381.496C361.988 381.01 362.357 380.614 362.87 380.29C363.374 379.966 363.986 379.804 364.697 379.804C365.588 379.804 366.353 380.119 367.001 380.749L366.461 381.253C365.984 380.785 365.399 380.551 364.697 380.551C363.887 380.551 363.266 380.803 362.834 381.289C362.402 381.784 362.186 382.378 362.195 383.08C362.204 383.782 362.42 384.367 362.852 384.844C363.275 385.321 363.887 385.555 364.697 385.555C365.399 385.555 366.002 385.312 366.488 384.826L367.037 385.366ZM368.81 379.903V386.203H368.072V379.903H368.81ZM373.887 386.203L373.869 386.221L373.851 385.411C373.68 385.708 373.446 385.933 373.149 386.086C372.843 386.239 372.537 386.311 372.213 386.311C371.556 386.311 371.016 386.104 370.584 385.681C370.152 385.258 369.936 384.691 369.936 383.98C369.936 383.278 370.152 382.72 370.584 382.306C371.016 381.892 371.565 381.685 372.222 381.685C372.564 381.685 372.879 381.766 373.185 381.919C373.482 382.072 373.707 382.288 373.869 382.567L373.878 381.757H374.598V386.203H373.887ZM372.258 382.378L372.249 382.387C371.799 382.387 371.421 382.54 371.115 382.837C370.809 383.134 370.656 383.521 370.656 384.007C370.656 384.493 370.809 384.889 371.115 385.186C371.421 385.492 371.799 385.636 372.249 385.636C372.537 385.636 372.798 385.582 373.032 385.456C373.266 385.339 373.437 385.186 373.563 384.988C373.68 384.799 373.77 384.592 373.824 384.358C373.878 384.124 373.878 383.899 373.824 383.665C373.77 383.431 373.68 383.224 373.563 383.026C373.437 382.837 373.266 382.684 373.041 382.558C372.807 382.441 372.546 382.378 372.258 382.378ZM378.808 382.738L378.799 382.747C378.475 382.459 378.061 382.315 377.548 382.315C377.224 382.315 376.954 382.369 376.747 382.477C376.54 382.594 376.441 382.756 376.45 382.963C376.45 383.323 376.819 383.539 377.557 383.62C377.764 383.647 377.935 383.674 378.07 383.692C378.205 383.719 378.367 383.764 378.565 383.827C378.754 383.89 378.907 383.962 379.015 384.052C379.123 384.142 379.222 384.268 379.312 384.43C379.393 384.592 379.429 384.772 379.429 384.979C379.42 385.411 379.24 385.735 378.889 385.969C378.529 386.203 378.088 386.311 377.566 386.311C376.684 386.311 376.018 386.032 375.577 385.474L376 384.961C376.369 385.42 376.9 385.645 377.584 385.645C377.872 385.645 378.133 385.591 378.358 385.483C378.583 385.375 378.7 385.204 378.709 384.952C378.709 384.736 378.61 384.574 378.403 384.466C378.196 384.367 377.899 384.295 377.512 384.241C377.26 384.214 377.044 384.178 376.864 384.124C376.684 384.079 376.495 384.007 376.315 383.917C376.126 383.827 375.982 383.71 375.883 383.548C375.784 383.386 375.739 383.197 375.739 382.963C375.739 382.666 375.829 382.414 376.018 382.207C376.198 382.009 376.423 381.865 376.684 381.775C376.945 381.694 377.233 381.658 377.539 381.658C378.223 381.658 378.79 381.856 379.231 382.252L378.808 382.738ZM383.299 382.738L383.29 382.747C382.966 382.459 382.552 382.315 382.039 382.315C381.715 382.315 381.445 382.369 381.238 382.477C381.031 382.594 380.932 382.756 380.941 382.963C380.941 383.323 381.31 383.539 382.048 383.62C382.255 383.647 382.426 383.674 382.561 383.692C382.696 383.719 382.858 383.764 383.056 383.827C383.245 383.89 383.398 383.962 383.506 384.052C383.614 384.142 383.713 384.268 383.803 384.43C383.884 384.592 383.92 384.772 383.92 384.979C383.911 385.411 383.731 385.735 383.38 385.969C383.02 386.203 382.579 386.311 382.057 386.311C381.175 386.311 380.509 386.032 380.068 385.474L380.491 384.961C380.86 385.42 381.391 385.645 382.075 385.645C382.363 385.645 382.624 385.591 382.849 385.483C383.074 385.375 383.191 385.204 383.2 384.952C383.2 384.736 383.101 384.574 382.894 384.466C382.687 384.367 382.39 384.295 382.003 384.241C381.751 384.214 381.535 384.178 381.355 384.124C381.175 384.079 380.986 384.007 380.806 383.917C380.617 383.827 380.473 383.71 380.374 383.548C380.275 383.386 380.23 383.197 380.23 382.963C380.23 382.666 380.32 382.414 380.509 382.207C380.689 382.009 380.914 381.865 381.175 381.775C381.436 381.694 381.724 381.658 382.03 381.658C382.714 381.658 383.281 381.856 383.722 382.252L383.299 382.738ZM388.915 385.492H388.906C388.69 385.753 388.402 385.951 388.06 386.086C387.709 386.221 387.349 386.284 386.989 386.284C386.287 386.284 385.729 386.077 385.297 385.654C384.865 385.231 384.649 384.664 384.649 383.962C384.649 383.296 384.865 382.738 385.297 382.306C385.729 381.874 386.278 381.658 386.953 381.658C387.673 381.658 388.24 381.883 388.663 382.333C389.086 382.783 389.257 383.422 389.176 384.268H385.396C385.432 384.673 385.603 384.997 385.909 385.24C386.206 385.483 386.575 385.6 387.007 385.6C387.268 385.6 387.529 385.555 387.799 385.456C388.069 385.357 388.276 385.222 388.42 385.042L388.915 385.492ZM388.474 383.647V383.656C388.456 383.233 388.312 382.909 388.042 382.675C387.772 382.441 387.412 382.324 386.971 382.324C386.566 382.324 386.215 382.441 385.927 382.675C385.63 382.909 385.45 383.233 385.396 383.647H388.474ZM393.063 382.738L393.054 382.747C392.73 382.459 392.316 382.315 391.803 382.315C391.479 382.315 391.209 382.369 391.002 382.477C390.795 382.594 390.696 382.756 390.705 382.963C390.705 383.323 391.074 383.539 391.812 383.62C392.019 383.647 392.19 383.674 392.325 383.692C392.46 383.719 392.622 383.764 392.82 383.827C393.009 383.89 393.162 383.962 393.27 384.052C393.378 384.142 393.477 384.268 393.567 384.43C393.648 384.592 393.684 384.772 393.684 384.979C393.675 385.411 393.495 385.735 393.144 385.969C392.784 386.203 392.343 386.311 391.821 386.311C390.939 386.311 390.273 386.032 389.832 385.474L390.255 384.961C390.624 385.42 391.155 385.645 391.839 385.645C392.127 385.645 392.388 385.591 392.613 385.483C392.838 385.375 392.955 385.204 392.964 384.952C392.964 384.736 392.865 384.574 392.658 384.466C392.451 384.367 392.154 384.295 391.767 384.241C391.515 384.214 391.299 384.178 391.119 384.124C390.939 384.079 390.75 384.007 390.57 383.917C390.381 383.827 390.237 383.71 390.138 383.548C390.039 383.386 389.994 383.197 389.994 382.963C389.994 382.666 390.084 382.414 390.273 382.207C390.453 382.009 390.678 381.865 390.939 381.775C391.2 381.694 391.488 381.658 391.794 381.658C392.478 381.658 393.045 381.856 393.486 382.252L393.063 382.738ZM397.733 379.903V382.567C397.877 382.279 398.111 382.063 398.426 381.91C398.732 381.757 399.056 381.676 399.398 381.676C400.055 381.676 400.595 381.883 401.018 382.288C401.432 382.693 401.648 383.26 401.648 383.98C401.648 384.7 401.432 385.258 401.009 385.672C400.586 386.086 400.046 386.284 399.389 386.284C399.047 386.284 398.723 386.212 398.426 386.059C398.129 385.915 397.895 385.69 397.733 385.393L397.697 386.203H396.995V379.903H397.733ZM399.344 382.369C398.894 382.369 398.525 382.522 398.219 382.819C397.913 383.125 397.769 383.503 397.769 383.971C397.769 384.457 397.913 384.844 398.219 385.141C398.516 385.447 398.894 385.591 399.344 385.591C399.794 385.591 400.163 385.447 400.46 385.159C400.757 384.871 400.91 384.484 400.91 383.98C400.91 383.476 400.757 383.089 400.46 382.801C400.163 382.513 399.794 382.369 399.344 382.369ZM406.713 385.492H406.704C406.488 385.753 406.2 385.951 405.858 386.086C405.507 386.221 405.147 386.284 404.787 386.284C404.085 386.284 403.527 386.077 403.095 385.654C402.663 385.231 402.447 384.664 402.447 383.962C402.447 383.296 402.663 382.738 403.095 382.306C403.527 381.874 404.076 381.658 404.751 381.658C405.471 381.658 406.038 381.883 406.461 382.333C406.884 382.783 407.055 383.422 406.974 384.268H403.194C403.23 384.673 403.401 384.997 403.707 385.24C404.004 385.483 404.373 385.6 404.805 385.6C405.066 385.6 405.327 385.555 405.597 385.456C405.867 385.357 406.074 385.222 406.218 385.042L406.713 385.492ZM406.272 383.647V383.656C406.254 383.233 406.11 382.909 405.84 382.675C405.57 382.441 405.21 382.324 404.769 382.324C404.364 382.324 404.013 382.441 403.725 382.675C403.428 382.909 403.248 383.233 403.194 383.647H406.272ZM408.494 386.95C408.494 387.355 408.638 387.661 408.944 387.859C409.25 388.066 409.619 388.174 410.069 388.174C410.501 388.174 410.87 388.093 411.176 387.922C411.482 387.751 411.635 387.481 411.635 387.121C411.635 386.779 411.482 386.518 411.185 386.329C410.888 386.149 410.519 386.05 410.078 386.05C409.367 386.05 408.8 385.861 408.368 385.465C407.936 385.078 407.729 384.538 407.729 383.854C407.729 383.17 407.963 382.63 408.431 382.234C408.899 381.847 409.448 381.649 410.078 381.649C410.6 381.649 411.014 381.766 411.338 381.982L411.815 381.406L412.337 381.82L411.833 382.414C412.211 382.846 412.409 383.332 412.409 383.854C412.409 384.268 412.301 384.637 412.085 384.97C411.869 385.303 411.563 385.537 411.158 385.663C411.968 385.906 412.382 386.392 412.382 387.112C412.382 387.661 412.148 388.084 411.698 388.39C411.239 388.696 410.69 388.849 410.06 388.849C409.376 388.849 408.818 388.687 408.395 388.345C407.972 388.003 407.765 387.544 407.783 386.95H408.494ZM408.458 383.854C408.458 384.349 408.62 384.727 408.926 384.997C409.232 385.267 409.619 385.402 410.087 385.402C410.555 385.402 410.933 385.258 411.239 384.961C411.536 384.664 411.689 384.295 411.689 383.863C411.689 383.377 411.527 382.999 411.212 382.729C410.897 382.459 410.519 382.324 410.078 382.324C409.646 382.324 409.268 382.459 408.944 382.729C408.62 382.999 408.458 383.368 408.458 383.854ZM413.393 380.398C413.393 380.605 413.474 380.749 413.636 380.83C413.798 380.92 413.96 380.92 414.122 380.839C414.284 380.758 414.365 380.614 414.365 380.407C414.365 380.209 414.284 380.065 414.122 379.975C413.96 379.894 413.798 379.894 413.636 379.975C413.474 380.056 413.393 380.2 413.393 380.398ZM413.501 381.739H414.239V386.203H413.501V381.739ZM415.593 381.757V381.748H416.268L416.304 382.459C416.682 381.946 417.186 381.685 417.825 381.685C418.401 381.685 418.869 381.874 419.229 382.243C419.589 382.612 419.778 383.116 419.778 383.746V386.203H419.04V383.755C419.04 383.323 418.914 382.99 418.68 382.738C418.437 382.495 418.104 382.369 417.69 382.369C417.285 382.378 416.952 382.522 416.7 382.792C416.448 383.071 416.322 383.413 416.322 383.818V386.203H415.593V381.757ZM421.069 381.757V381.748H421.744L421.78 382.459C422.158 381.946 422.662 381.685 423.301 381.685C423.877 381.685 424.345 381.874 424.705 382.243C425.065 382.612 425.254 383.116 425.254 383.746V386.203H424.516V383.755C424.516 383.323 424.39 382.99 424.156 382.738C423.913 382.495 423.58 382.369 423.166 382.369C422.761 382.378 422.428 382.522 422.176 382.792C421.924 383.071 421.798 383.413 421.798 383.818V386.203H421.069V381.757ZM426.436 380.398C426.436 380.605 426.517 380.749 426.679 380.83C426.841 380.92 427.003 380.92 427.165 380.839C427.327 380.758 427.408 380.614 427.408 380.407C427.408 380.209 427.327 380.065 427.165 379.975C427.003 379.894 426.841 379.894 426.679 379.975C426.517 380.056 426.436 380.2 426.436 380.398ZM426.544 381.739H427.282V386.203H426.544V381.739ZM428.636 381.757V381.748H429.311L429.347 382.459C429.725 381.946 430.229 381.685 430.868 381.685C431.444 381.685 431.912 381.874 432.272 382.243C432.632 382.612 432.821 383.116 432.821 383.746V386.203H432.083V383.755C432.083 383.323 431.957 382.99 431.723 382.738C431.48 382.495 431.147 382.369 430.733 382.369C430.328 382.378 429.995 382.522 429.743 382.792C429.491 383.071 429.365 383.413 429.365 383.818V386.203H428.636V381.757ZM434.607 386.95C434.607 387.355 434.751 387.661 435.057 387.859C435.363 388.066 435.732 388.174 436.182 388.174C436.614 388.174 436.983 388.093 437.289 387.922C437.595 387.751 437.748 387.481 437.748 387.121C437.748 386.779 437.595 386.518 437.298 386.329C437.001 386.149 436.632 386.05 436.191 386.05C435.48 386.05 434.913 385.861 434.481 385.465C434.049 385.078 433.842 384.538 433.842 383.854C433.842 383.17 434.076 382.63 434.544 382.234C435.012 381.847 435.561 381.649 436.191 381.649C436.713 381.649 437.127 381.766 437.451 381.982L437.928 381.406L438.45 381.82L437.946 382.414C438.324 382.846 438.522 383.332 438.522 383.854C438.522 384.268 438.414 384.637 438.198 384.97C437.982 385.303 437.676 385.537 437.271 385.663C438.081 385.906 438.495 386.392 438.495 387.112C438.495 387.661 438.261 388.084 437.811 388.39C437.352 388.696 436.803 388.849 436.173 388.849C435.489 388.849 434.931 388.687 434.508 388.345C434.085 388.003 433.878 387.544 433.896 386.95H434.607ZM434.571 383.854C434.571 384.349 434.733 384.727 435.039 384.997C435.345 385.267 435.732 385.402 436.2 385.402C436.668 385.402 437.046 385.258 437.352 384.961C437.649 384.664 437.802 384.295 437.802 383.863C437.802 383.377 437.64 382.999 437.325 382.729C437.01 382.459 436.632 382.324 436.191 382.324C435.759 382.324 435.381 382.459 435.057 382.729C434.733 382.999 434.571 383.368 434.571 383.854ZM439.559 383.134C439.559 382.99 439.604 382.873 439.703 382.783C439.802 382.693 439.91 382.648 440.036 382.648C440.162 382.648 440.27 382.693 440.369 382.783C440.468 382.873 440.522 382.99 440.522 383.134C440.522 383.287 440.468 383.404 440.369 383.494C440.27 383.584 440.162 383.62 440.036 383.62C439.91 383.62 439.802 383.584 439.703 383.494C439.604 383.404 439.559 383.287 439.559 383.134ZM439.559 385.789C439.559 385.645 439.604 385.528 439.703 385.438C439.802 385.348 439.91 385.303 440.036 385.303C440.162 385.303 440.27 385.348 440.369 385.438C440.468 385.528 440.522 385.645 440.522 385.789C440.522 385.942 440.468 386.059 440.369 386.149C440.27 386.239 440.162 386.275 440.036 386.275C439.91 386.275 439.802 386.239 439.703 386.149C439.604 386.059 439.559 385.942 439.559 385.789ZM367.037 396.366C366.407 396.996 365.624 397.302 364.697 397.302C363.644 397.302 362.834 396.996 362.267 396.375C361.7 395.754 361.412 394.989 361.412 394.089C361.403 393.513 361.52 392.982 361.754 392.496C361.988 392.01 362.357 391.614 362.87 391.29C363.374 390.966 363.986 390.804 364.697 390.804C365.588 390.804 366.353 391.119 367.001 391.749L366.461 392.253C365.984 391.785 365.399 391.551 364.697 391.551C363.887 391.551 363.266 391.803 362.834 392.289C362.402 392.784 362.186 393.378 362.195 394.08C362.204 394.782 362.42 395.367 362.852 395.844C363.275 396.321 363.887 396.555 364.697 396.555C365.399 396.555 366.002 396.312 366.488 395.826L367.037 396.366ZM367.624 394.989C367.624 394.305 367.84 393.747 368.272 393.315C368.704 392.883 369.262 392.658 369.928 392.658C370.603 392.658 371.161 392.874 371.593 393.306C372.025 393.738 372.241 394.305 372.241 394.989C372.241 395.664 372.016 396.213 371.584 396.645C371.152 397.077 370.594 397.284 369.928 397.284C369.262 397.284 368.704 397.077 368.272 396.645C367.84 396.213 367.624 395.664 367.624 394.989ZM371.512 394.989C371.512 394.503 371.359 394.107 371.062 393.801C370.756 393.495 370.387 393.333 369.937 393.333C369.478 393.333 369.1 393.486 368.803 393.792C368.506 394.098 368.362 394.503 368.362 394.989C368.362 395.457 368.506 395.844 368.803 396.141C369.091 396.447 369.469 396.591 369.928 396.591C370.378 396.591 370.756 396.447 371.053 396.141C371.35 395.844 371.503 395.457 371.512 394.989ZM373.3 392.757V392.748H373.975L374.011 393.459C374.389 392.946 374.893 392.685 375.532 392.685C376.108 392.685 376.576 392.874 376.936 393.243C377.296 393.612 377.485 394.116 377.485 394.746V397.203H376.747V394.755C376.747 394.323 376.621 393.99 376.387 393.738C376.144 393.495 375.811 393.369 375.397 393.369C374.992 393.378 374.659 393.522 374.407 393.792C374.155 394.071 374.029 394.413 374.029 394.818V397.203H373.3V392.757ZM379.912 391.461V392.766H381.289V393.396H379.903V395.745C379.903 396.321 380.137 396.6 380.605 396.6C380.803 396.6 381.01 396.546 381.226 396.438L381.442 397.05C381.136 397.194 380.848 397.266 380.578 397.266C379.642 397.284 379.174 396.78 379.174 395.745V393.396H378.283V392.766H379.174V391.542L379.912 391.461ZM382.13 391.398C382.13 391.605 382.211 391.749 382.373 391.83C382.535 391.92 382.697 391.92 382.859 391.839C383.021 391.758 383.102 391.614 383.102 391.407C383.102 391.209 383.021 391.065 382.859 390.975C382.697 390.894 382.535 390.894 382.373 390.975C382.211 391.056 382.13 391.2 382.13 391.398ZM382.238 392.739H382.976V397.203H382.238V392.739ZM384.33 392.757V392.748H385.005L385.041 393.459C385.419 392.946 385.923 392.685 386.562 392.685C387.138 392.685 387.606 392.874 387.966 393.243C388.326 393.612 388.515 394.116 388.515 394.746V397.203H387.777V394.755C387.777 394.323 387.651 393.99 387.417 393.738C387.174 393.495 386.841 393.369 386.427 393.369C386.022 393.378 385.689 393.522 385.437 393.792C385.185 394.071 385.059 394.413 385.059 394.818V397.203H384.33V392.757ZM393.253 397.203H393.262L393.226 396.492C392.848 397.005 392.326 397.266 391.678 397.275C391.102 397.275 390.634 397.095 390.274 396.726C389.914 396.357 389.743 395.853 389.743 395.214V392.757H390.481V395.205C390.481 395.637 390.598 395.979 390.841 396.222C391.075 396.474 391.408 396.591 391.831 396.591C392.227 396.591 392.56 396.447 392.812 396.168C393.064 395.898 393.199 395.556 393.199 395.142V392.757H393.937V397.203H393.253ZM395.182 391.398C395.182 391.605 395.263 391.749 395.425 391.83C395.587 391.92 395.749 391.92 395.911 391.839C396.073 391.758 396.154 391.614 396.154 391.407C396.154 391.209 396.073 391.065 395.911 390.975C395.749 390.894 395.587 390.894 395.425 390.975C395.263 391.056 395.182 391.2 395.182 391.398ZM395.29 392.739H396.028V397.203H395.29V392.739ZM397.382 392.757V392.748H398.057L398.093 393.459C398.471 392.946 398.975 392.685 399.614 392.685C400.19 392.685 400.658 392.874 401.018 393.243C401.378 393.612 401.567 394.116 401.567 394.746V397.203H400.829V394.755C400.829 394.323 400.703 393.99 400.469 393.738C400.226 393.495 399.893 393.369 399.479 393.369C399.074 393.378 398.741 393.522 398.489 393.792C398.237 394.071 398.111 394.413 398.111 394.818V397.203H397.382V392.757ZM403.353 397.95C403.353 398.355 403.497 398.661 403.803 398.859C404.109 399.066 404.478 399.174 404.928 399.174C405.36 399.174 405.729 399.093 406.035 398.922C406.341 398.751 406.494 398.481 406.494 398.121C406.494 397.779 406.341 397.518 406.044 397.329C405.747 397.149 405.378 397.05 404.937 397.05C404.226 397.05 403.659 396.861 403.227 396.465C402.795 396.078 402.588 395.538 402.588 394.854C402.588 394.17 402.822 393.63 403.29 393.234C403.758 392.847 404.307 392.649 404.937 392.649C405.459 392.649 405.873 392.766 406.197 392.982L406.674 392.406L407.196 392.82L406.692 393.414C407.07 393.846 407.268 394.332 407.268 394.854C407.268 395.268 407.16 395.637 406.944 395.97C406.728 396.303 406.422 396.537 406.017 396.663C406.827 396.906 407.241 397.392 407.241 398.112C407.241 398.661 407.007 399.084 406.557 399.39C406.098 399.696 405.549 399.849 404.919 399.849C404.235 399.849 403.677 399.687 403.254 399.345C402.831 399.003 402.624 398.544 402.642 397.95H403.353ZM403.317 394.854C403.317 395.349 403.479 395.727 403.785 395.997C404.091 396.267 404.478 396.402 404.946 396.402C405.414 396.402 405.792 396.258 406.098 395.961C406.395 395.664 406.548 395.295 406.548 394.863C406.548 394.377 406.386 393.999 406.071 393.729C405.756 393.459 405.378 393.324 404.937 393.324C404.505 393.324 404.127 393.459 403.803 393.729C403.479 393.999 403.317 394.368 403.317 394.854ZM412.429 392.28C412.267 392.019 412.024 391.821 411.7 391.686C411.376 391.551 411.025 391.479 410.656 391.47C410.206 391.47 409.81 391.569 409.486 391.749C409.162 391.929 409 392.199 409 392.55C409 392.712 409.036 392.856 409.126 392.973C409.207 393.099 409.333 393.198 409.513 393.27C409.684 393.351 409.855 393.414 410.035 393.459C410.215 393.504 410.44 393.549 410.71 393.585C411.016 393.639 411.268 393.684 411.466 393.72C411.655 393.765 411.871 393.837 412.123 393.927C412.375 394.017 412.564 394.125 412.708 394.242C412.843 394.368 412.96 394.53 413.059 394.737C413.158 394.944 413.212 395.187 413.212 395.457C413.212 395.799 413.131 396.087 412.978 396.339C412.825 396.591 412.618 396.789 412.366 396.924C412.114 397.068 411.844 397.167 411.556 397.23C411.268 397.302 410.962 397.329 410.647 397.329C410.044 397.329 409.504 397.212 409.036 396.978C408.559 396.744 408.208 396.375 407.983 395.871L408.631 395.493C408.82 395.853 409.099 396.123 409.477 396.312C409.855 396.51 410.242 396.6 410.656 396.6C410.863 396.6 411.061 396.582 411.259 396.546C411.457 396.51 411.646 396.456 411.826 396.366C412.006 396.285 412.159 396.168 412.267 396.006C412.375 395.844 412.438 395.655 412.438 395.43C412.438 395.25 412.384 395.088 412.294 394.944C412.204 394.809 412.06 394.701 411.88 394.611C411.691 394.53 411.502 394.467 411.313 394.413C411.124 394.368 410.89 394.323 410.62 394.278C410.332 394.242 410.089 394.197 409.891 394.152C409.693 394.107 409.486 394.044 409.261 393.954C409.027 393.864 408.847 393.765 408.712 393.648C408.568 393.531 408.451 393.378 408.361 393.189C408.271 393 408.226 392.784 408.226 392.532C408.217 392.226 408.289 391.947 408.433 391.713C408.577 391.479 408.775 391.29 409.018 391.155C409.261 391.029 409.522 390.93 409.792 390.867C410.062 390.804 410.35 390.768 410.638 390.768C411.178 390.768 411.646 390.849 412.042 391.011C412.438 391.173 412.762 391.479 413.023 391.911L412.429 392.28ZM415.376 391.461V392.766H416.753V393.396H415.367V395.745C415.367 396.321 415.601 396.6 416.069 396.6C416.267 396.6 416.474 396.546 416.69 396.438L416.906 397.05C416.6 397.194 416.312 397.266 416.042 397.266C415.106 397.284 414.638 396.78 414.638 395.745V393.396H413.747V392.766H414.638V391.542L415.376 391.461ZM421.149 397.203H421.158L421.122 396.492C420.744 397.005 420.222 397.266 419.574 397.275C418.998 397.275 418.53 397.095 418.17 396.726C417.81 396.357 417.639 395.853 417.639 395.214V392.757H418.377V395.205C418.377 395.637 418.494 395.979 418.737 396.222C418.971 396.474 419.304 396.591 419.727 396.591C420.123 396.591 420.456 396.447 420.708 396.168C420.96 395.898 421.095 395.556 421.095 395.142V392.757H421.833V397.203H421.149ZM427.552 390.903L427.561 390.894V397.194H426.868L426.832 396.384C426.652 396.681 426.418 396.906 426.121 397.059C425.824 397.212 425.509 397.284 425.167 397.284C424.51 397.284 423.97 397.086 423.547 396.672C423.124 396.258 422.917 395.7 422.917 394.98C422.917 394.26 423.124 393.693 423.547 393.288C423.961 392.883 424.501 392.676 425.158 392.676C425.491 392.676 425.815 392.757 426.13 392.91C426.436 393.063 426.67 393.279 426.823 393.567V390.903H427.552ZM425.212 393.36H425.221C424.771 393.36 424.393 393.504 424.096 393.792C423.799 394.08 423.655 394.467 423.655 394.971C423.655 395.475 423.799 395.862 424.096 396.15C424.393 396.438 424.771 396.582 425.221 396.582C425.671 396.582 426.04 396.438 426.346 396.132C426.643 395.835 426.796 395.448 426.796 394.962C426.796 394.494 426.643 394.116 426.337 393.81C426.031 393.513 425.662 393.36 425.212 393.36ZM432.895 396.492H432.886C432.67 396.753 432.382 396.951 432.04 397.086C431.689 397.221 431.329 397.284 430.969 397.284C430.267 397.284 429.709 397.077 429.277 396.654C428.845 396.231 428.629 395.664 428.629 394.962C428.629 394.296 428.845 393.738 429.277 393.306C429.709 392.874 430.258 392.658 430.933 392.658C431.653 392.658 432.22 392.883 432.643 393.333C433.066 393.783 433.237 394.422 433.156 395.268H429.376C429.412 395.673 429.583 395.997 429.889 396.24C430.186 396.483 430.555 396.6 430.987 396.6C431.248 396.6 431.509 396.555 431.779 396.456C432.049 396.357 432.256 396.222 432.4 396.042L432.895 396.492ZM432.454 394.647V394.656C432.436 394.233 432.292 393.909 432.022 393.675C431.752 393.441 431.392 393.324 430.951 393.324C430.546 393.324 430.195 393.441 429.907 393.675C429.61 393.909 429.43 394.233 429.376 394.647H432.454ZM434.182 392.757V392.748H434.857L434.893 393.459C435.271 392.946 435.775 392.685 436.414 392.685C436.99 392.685 437.458 392.874 437.818 393.243C438.178 393.612 438.367 394.116 438.367 394.746V397.203H437.629V394.755C437.629 394.323 437.503 393.99 437.269 393.738C437.026 393.495 436.693 393.369 436.279 393.369C435.874 393.378 435.541 393.522 435.289 393.792C435.037 394.071 434.911 394.413 434.911 394.818V397.203H434.182V392.757ZM440.794 391.461V392.766H442.171V393.396H440.785V395.745C440.785 396.321 441.019 396.6 441.487 396.6C441.685 396.6 441.892 396.546 442.108 396.438L442.324 397.05C442.018 397.194 441.73 397.266 441.46 397.266C440.524 397.284 440.056 396.78 440.056 395.745V393.396H439.165V392.766H440.056V391.542L440.794 391.461ZM445.982 393.738L445.973 393.747C445.649 393.459 445.235 393.315 444.722 393.315C444.398 393.315 444.128 393.369 443.921 393.477C443.714 393.594 443.615 393.756 443.624 393.963C443.624 394.323 443.993 394.539 444.731 394.62C444.938 394.647 445.109 394.674 445.244 394.692C445.379 394.719 445.541 394.764 445.739 394.827C445.928 394.89 446.081 394.962 446.189 395.052C446.297 395.142 446.396 395.268 446.486 395.43C446.567 395.592 446.603 395.772 446.603 395.979C446.594 396.411 446.414 396.735 446.063 396.969C445.703 397.203 445.262 397.311 444.74 397.311C443.858 397.311 443.192 397.032 442.751 396.474L443.174 395.961C443.543 396.42 444.074 396.645 444.758 396.645C445.046 396.645 445.307 396.591 445.532 396.483C445.757 396.375 445.874 396.204 445.883 395.952C445.883 395.736 445.784 395.574 445.577 395.466C445.37 395.367 445.073 395.295 444.686 395.241C444.434 395.214 444.218 395.178 444.038 395.124C443.858 395.079 443.669 395.007 443.489 394.917C443.3 394.827 443.156 394.71 443.057 394.548C442.958 394.386 442.913 394.197 442.913 393.963C442.913 393.666 443.003 393.414 443.192 393.207C443.372 393.009 443.597 392.865 443.858 392.775C444.119 392.694 444.407 392.658 444.713 392.658C445.397 392.658 445.964 392.856 446.405 393.252L445.982 393.738Z" fill="#777777"/>
<path d="M174.86 155.092H177.893V158.782C177.893 159.592 177.641 160.249 177.155 160.753C176.669 161.257 176.012 161.509 175.193 161.509C174.392 161.509 173.744 161.275 173.249 160.798C172.745 160.33 172.502 159.673 172.502 158.836H173.492C173.492 159.394 173.636 159.817 173.933 160.114C174.221 160.42 174.644 160.564 175.193 160.564C175.724 160.564 176.138 160.402 176.435 160.078C176.732 159.754 176.885 159.322 176.885 158.782V156.028H174.86V155.092ZM182.648 157.657L182.675 156.955H183.575V161.392H182.693L182.648 160.672C182.504 160.942 182.288 161.149 182 161.293C181.712 161.437 181.415 161.509 181.118 161.509C180.452 161.518 179.903 161.311 179.48 160.897C179.048 160.483 178.841 159.907 178.841 159.169C178.841 158.449 179.057 157.891 179.489 157.477C179.921 157.063 180.47 156.856 181.136 156.856C181.451 156.856 181.748 156.928 182.027 157.072C182.297 157.216 182.504 157.414 182.648 157.657ZM181.208 157.702C180.794 157.702 180.452 157.837 180.182 158.107C179.903 158.377 179.768 158.728 179.768 159.169C179.768 159.619 179.903 159.97 180.182 160.24C180.452 160.51 180.794 160.645 181.208 160.645C181.469 160.645 181.703 160.591 181.91 160.483C182.117 160.375 182.27 160.24 182.378 160.06C182.486 159.889 182.558 159.7 182.612 159.493C182.666 159.286 182.666 159.079 182.612 158.863C182.558 158.656 182.486 158.467 182.378 158.287C182.27 158.116 182.117 157.972 181.91 157.864C181.703 157.756 181.469 157.702 181.208 157.702ZM189.135 161.392H188.199V159.016C188.199 158.629 188.091 158.323 187.884 158.089C187.668 157.855 187.38 157.738 187.002 157.738C186.642 157.738 186.345 157.873 186.111 158.125C185.877 158.386 185.76 158.701 185.76 159.07V161.392H184.833V156.946H185.679L185.733 157.594C186.147 157.126 186.651 156.883 187.227 156.883C187.785 156.883 188.235 157.072 188.595 157.45C188.955 157.828 189.135 158.35 189.135 159.007V161.392ZM190.254 156.955H191.181V159.331C191.181 159.718 191.28 160.024 191.496 160.258C191.712 160.492 192.009 160.609 192.387 160.609C192.747 160.609 193.035 160.483 193.269 160.222C193.503 159.97 193.62 159.646 193.62 159.268V156.955H194.547V161.401H193.71L193.656 160.744C193.233 161.23 192.72 161.464 192.126 161.464C191.568 161.464 191.109 161.275 190.767 160.897C190.425 160.519 190.254 160.006 190.254 159.34V156.955ZM199.348 157.657L199.375 156.955H200.275V161.392H199.393L199.348 160.672C199.204 160.942 198.988 161.149 198.7 161.293C198.412 161.437 198.115 161.509 197.818 161.509C197.152 161.518 196.603 161.311 196.18 160.897C195.748 160.483 195.541 159.907 195.541 159.169C195.541 158.449 195.757 157.891 196.189 157.477C196.621 157.063 197.17 156.856 197.836 156.856C198.151 156.856 198.448 156.928 198.727 157.072C198.997 157.216 199.204 157.414 199.348 157.657ZM197.908 157.702C197.494 157.702 197.152 157.837 196.882 158.107C196.603 158.377 196.468 158.728 196.468 159.169C196.468 159.619 196.603 159.97 196.882 160.24C197.152 160.51 197.494 160.645 197.908 160.645C198.169 160.645 198.403 160.591 198.61 160.483C198.817 160.375 198.97 160.24 199.078 160.06C199.186 159.889 199.258 159.7 199.312 159.493C199.366 159.286 199.366 159.079 199.312 158.863C199.258 158.656 199.186 158.467 199.078 158.287C198.97 158.116 198.817 157.972 198.61 157.864C198.403 157.756 198.169 157.702 197.908 157.702ZM201.532 156.955H202.396L202.459 157.54C202.711 157.09 203.152 156.856 203.764 156.856C204.214 156.856 204.574 156.982 204.862 157.234L204.439 158.044C204.214 157.864 203.953 157.774 203.656 157.774C203.314 157.774 203.026 157.882 202.801 158.089C202.567 158.305 202.459 158.602 202.459 158.989V161.392H201.532V156.955ZM208.709 156.955H209.744L206.945 163.453H205.919L206.837 161.329L205.064 156.955H206.144L206.909 159.052L207.35 160.312L207.827 159.07L208.709 156.955ZM213.68 161.392H212.681V155.092H213.68V161.392ZM219.361 161.392H218.425V159.016C218.425 158.629 218.317 158.323 218.11 158.089C217.894 157.855 217.606 157.738 217.228 157.738C216.868 157.738 216.571 157.873 216.337 158.125C216.103 158.386 215.986 158.701 215.986 159.07V161.392H215.059V156.946H215.905L215.959 157.594C216.373 157.126 216.877 156.883 217.453 156.883C218.011 156.883 218.461 157.072 218.821 157.45C219.181 157.828 219.361 158.35 219.361 159.007V161.392ZM220.968 155.776L221.904 155.677V156.964H223.2V157.765H221.895V159.88C221.895 160.366 222.102 160.609 222.534 160.609C222.705 160.609 222.894 160.564 223.101 160.456L223.371 161.248C223.065 161.383 222.768 161.446 222.48 161.446C221.994 161.464 221.616 161.338 221.355 161.068C221.094 160.798 220.968 160.402 220.968 159.88V157.765H220.113V156.964H220.968V155.776ZM227.675 157.657L227.702 156.955H228.602V161.392H227.72L227.675 160.672C227.531 160.942 227.315 161.149 227.027 161.293C226.739 161.437 226.442 161.509 226.145 161.509C225.479 161.518 224.93 161.311 224.507 160.897C224.075 160.483 223.868 159.907 223.868 159.169C223.868 158.449 224.084 157.891 224.516 157.477C224.948 157.063 225.497 156.856 226.163 156.856C226.478 156.856 226.775 156.928 227.054 157.072C227.324 157.216 227.531 157.414 227.675 157.657ZM226.235 157.702C225.821 157.702 225.479 157.837 225.209 158.107C224.93 158.377 224.795 158.728 224.795 159.169C224.795 159.619 224.93 159.97 225.209 160.24C225.479 160.51 225.821 160.645 226.235 160.645C226.496 160.645 226.73 160.591 226.937 160.483C227.144 160.375 227.297 160.24 227.405 160.06C227.513 159.889 227.585 159.7 227.639 159.493C227.693 159.286 227.693 159.079 227.639 158.863C227.585 158.656 227.513 158.467 227.405 158.287C227.297 158.116 227.144 157.972 226.937 157.864C226.73 157.756 226.496 157.702 226.235 157.702ZM229.859 155.101H230.795V158.773L232.442 156.955H233.567V157.009L231.65 159.043L233.828 161.329V161.392H232.694L230.795 159.34V161.392H229.859V155.101ZM238.503 159.52H234.903C234.939 159.862 235.092 160.132 235.353 160.33C235.614 160.537 235.947 160.636 236.352 160.636C236.586 160.636 236.829 160.6 237.072 160.51C237.315 160.42 237.504 160.303 237.639 160.159L238.242 160.744C238.017 160.987 237.729 161.176 237.387 161.302C237.045 161.437 236.694 161.5 236.334 161.5C235.605 161.5 235.02 161.293 234.588 160.861C234.156 160.438 233.94 159.871 233.94 159.151C233.94 158.476 234.156 157.918 234.588 157.486C235.02 157.054 235.578 156.838 236.271 156.838C237.009 156.838 237.594 157.072 238.008 157.522C238.422 157.981 238.584 158.647 238.503 159.52ZM234.921 158.737H237.612C237.585 158.395 237.45 158.134 237.216 157.945C236.982 157.765 236.676 157.666 236.298 157.666C235.947 157.666 235.65 157.765 235.398 157.945C235.146 158.134 234.993 158.395 234.921 158.737ZM241.852 155.092H244.237C244.75 155.092 245.209 155.182 245.623 155.353C246.037 155.533 246.361 155.767 246.613 156.064C246.865 156.361 247.054 156.685 247.189 157.045C247.315 157.405 247.387 157.792 247.396 158.188C247.405 158.602 247.351 158.989 247.225 159.367C247.099 159.745 246.91 160.078 246.658 160.384C246.406 160.69 246.073 160.942 245.659 161.122C245.236 161.302 244.759 161.392 244.237 161.392H241.852V155.092ZM242.851 156.055V160.42H244.237C244.957 160.42 245.497 160.204 245.866 159.763C246.226 159.322 246.406 158.791 246.397 158.179C246.379 157.81 246.307 157.468 246.163 157.153C246.019 156.847 245.776 156.586 245.443 156.37C245.11 156.163 244.705 156.055 244.237 156.055H242.851ZM252.689 159.52H249.089C249.125 159.862 249.278 160.132 249.539 160.33C249.8 160.537 250.133 160.636 250.538 160.636C250.772 160.636 251.015 160.6 251.258 160.51C251.501 160.42 251.69 160.303 251.825 160.159L252.428 160.744C252.203 160.987 251.915 161.176 251.573 161.302C251.231 161.437 250.88 161.5 250.52 161.5C249.791 161.5 249.206 161.293 248.774 160.861C248.342 160.438 248.126 159.871 248.126 159.151C248.126 158.476 248.342 157.918 248.774 157.486C249.206 157.054 249.764 156.838 250.457 156.838C251.195 156.838 251.78 157.072 252.194 157.522C252.608 157.981 252.77 158.647 252.689 159.52ZM249.107 158.737H251.798C251.771 158.395 251.636 158.134 251.402 157.945C251.168 157.765 250.862 157.666 250.484 157.666C250.133 157.666 249.836 157.765 249.584 157.945C249.332 158.134 249.179 158.395 249.107 158.737ZM257.171 157.657L257.198 156.955H258.098V161.392H257.216L257.171 160.672C257.027 160.942 256.811 161.149 256.523 161.293C256.235 161.437 255.938 161.509 255.641 161.509C254.975 161.518 254.426 161.311 254.003 160.897C253.571 160.483 253.364 159.907 253.364 159.169C253.364 158.449 253.58 157.891 254.012 157.477C254.444 157.063 254.993 156.856 255.659 156.856C255.974 156.856 256.271 156.928 256.55 157.072C256.82 157.216 257.027 157.414 257.171 157.657ZM255.731 157.702C255.317 157.702 254.975 157.837 254.705 158.107C254.426 158.377 254.291 158.728 254.291 159.169C254.291 159.619 254.426 159.97 254.705 160.24C254.975 160.51 255.317 160.645 255.731 160.645C255.992 160.645 256.226 160.591 256.433 160.483C256.64 160.375 256.793 160.24 256.901 160.06C257.009 159.889 257.081 159.7 257.135 159.493C257.189 159.286 257.189 159.079 257.135 158.863C257.081 158.656 257.009 158.467 256.901 158.287C256.793 158.116 256.64 157.972 256.433 157.864C256.226 157.756 255.992 157.702 255.731 157.702ZM261.417 157.729C261.012 157.729 260.679 157.864 260.409 158.116C260.139 158.377 260.013 158.728 260.013 159.169C260.013 159.61 260.139 159.961 260.409 160.222C260.679 160.492 261.012 160.618 261.417 160.618C261.813 160.618 262.146 160.483 262.416 160.213C262.686 159.943 262.83 159.601 262.83 159.169C262.83 158.755 262.686 158.404 262.416 158.134C262.146 157.864 261.813 157.729 261.417 157.729ZM262.893 155.101H263.82V161.392H262.947L262.893 160.69C262.569 161.221 262.056 161.482 261.354 161.482C260.688 161.482 260.148 161.275 259.725 160.861C259.293 160.447 259.086 159.889 259.086 159.169C259.086 158.44 259.293 157.873 259.707 157.468C260.121 157.063 260.67 156.856 261.336 156.856C261.624 156.856 261.921 156.928 262.227 157.072C262.533 157.216 262.749 157.405 262.893 157.648V155.101ZM265.113 155.101H266.04V161.392H265.113V155.101ZM268.263 156.937V161.392H267.336V156.937H268.263ZM267.228 155.65C267.228 155.893 267.318 156.064 267.516 156.163C267.705 156.262 267.894 156.262 268.092 156.163C268.281 156.064 268.38 155.893 268.38 155.65C268.38 155.416 268.281 155.245 268.092 155.146C267.894 155.056 267.705 155.056 267.516 155.146C267.318 155.245 267.228 155.416 267.228 155.65ZM273.827 161.392H272.891V159.016C272.891 158.629 272.783 158.323 272.576 158.089C272.36 157.855 272.072 157.738 271.694 157.738C271.334 157.738 271.037 157.873 270.803 158.125C270.569 158.386 270.452 158.701 270.452 159.07V161.392H269.525V156.946H270.371L270.425 157.594C270.839 157.126 271.343 156.883 271.919 156.883C272.477 156.883 272.927 157.072 273.287 157.45C273.647 157.828 273.827 158.35 273.827 159.007V161.392ZM279.311 159.52H275.711C275.747 159.862 275.9 160.132 276.161 160.33C276.422 160.537 276.755 160.636 277.16 160.636C277.394 160.636 277.637 160.6 277.88 160.51C278.123 160.42 278.312 160.303 278.447 160.159L279.05 160.744C278.825 160.987 278.537 161.176 278.195 161.302C277.853 161.437 277.502 161.5 277.142 161.5C276.413 161.5 275.828 161.293 275.396 160.861C274.964 160.438 274.748 159.871 274.748 159.151C274.748 158.476 274.964 157.918 275.396 157.486C275.828 157.054 276.386 156.838 277.079 156.838C277.817 156.838 278.402 157.072 278.816 157.522C279.23 157.981 279.392 158.647 279.311 159.52ZM275.729 158.737H278.42C278.393 158.395 278.258 158.134 278.024 157.945C277.79 157.765 277.484 157.666 277.106 157.666C276.755 157.666 276.458 157.765 276.206 157.945C275.954 158.134 275.801 158.395 275.729 158.737ZM283.613 157.432L283.091 158.044C282.785 157.774 282.398 157.63 281.921 157.63C281.633 157.63 281.399 157.675 281.228 157.765C281.057 157.855 280.976 157.99 280.976 158.161C280.976 158.485 281.3 158.674 281.939 158.728C282.191 158.755 282.407 158.791 282.587 158.827C282.767 158.863 282.965 158.935 283.172 159.025C283.379 159.115 283.541 159.259 283.649 159.439C283.757 159.628 283.82 159.853 283.82 160.123C283.811 160.546 283.64 160.888 283.298 161.14C282.956 161.401 282.497 161.527 281.93 161.527C281.066 161.527 280.391 161.257 279.905 160.708L280.391 160.051C280.769 160.483 281.291 160.699 281.948 160.708C282.2 160.708 282.416 160.663 282.605 160.564C282.785 160.474 282.884 160.33 282.893 160.132C282.893 159.943 282.812 159.799 282.641 159.709C282.47 159.619 282.209 159.556 281.867 159.52C280.661 159.412 280.058 158.962 280.058 158.188C280.058 157.738 280.238 157.405 280.616 157.18C280.994 156.955 281.417 156.838 281.903 156.838C282.596 156.838 283.163 157.036 283.613 157.432Z" fill="black"/>
<path d="M366.713 372.361L366.11 371.038H362.699L362.105 372.361H361.034L363.86 366.061H364.958L367.784 372.361H366.713ZM365.741 370.12L364.409 367.123L363.077 370.12H365.741ZM371.465 371.164L372.095 371.785C371.627 372.253 371.06 372.478 370.412 372.478C369.737 372.478 369.179 372.28 368.738 371.866C368.288 371.461 368.072 370.885 368.072 370.147C368.072 369.409 368.288 368.842 368.738 368.428C369.179 368.023 369.737 367.816 370.412 367.816C371.033 367.816 371.564 368.041 372.014 368.473L371.42 369.094C371.15 368.833 370.817 368.698 370.421 368.698C370.007 368.698 369.674 368.833 369.404 369.103C369.134 369.373 368.999 369.715 368.999 370.147C368.999 370.597 369.134 370.948 369.404 371.2C369.674 371.452 370.007 371.578 370.412 371.578C370.844 371.578 371.195 371.443 371.465 371.164ZM376.353 368.626L376.38 367.924H377.28V372.361H376.398L376.353 371.641C376.209 371.911 375.993 372.118 375.705 372.262C375.417 372.406 375.12 372.478 374.823 372.478C374.157 372.487 373.608 372.28 373.185 371.866C372.753 371.452 372.546 370.876 372.546 370.138C372.546 369.418 372.762 368.86 373.194 368.446C373.626 368.032 374.175 367.825 374.841 367.825C375.156 367.825 375.453 367.897 375.732 368.041C376.002 368.185 376.209 368.383 376.353 368.626ZM374.913 368.671C374.499 368.671 374.157 368.806 373.887 369.076C373.608 369.346 373.473 369.697 373.473 370.138C373.473 370.588 373.608 370.939 373.887 371.209C374.157 371.479 374.499 371.614 374.913 371.614C375.174 371.614 375.408 371.56 375.615 371.452C375.822 371.344 375.975 371.209 376.083 371.029C376.191 370.858 376.263 370.669 376.317 370.462C376.371 370.255 376.371 370.048 376.317 369.832C376.263 369.625 376.191 369.436 376.083 369.256C375.975 369.085 375.822 368.941 375.615 368.833C375.408 368.725 375.174 368.671 374.913 368.671ZM380.598 368.698C380.193 368.698 379.86 368.833 379.59 369.085C379.32 369.346 379.194 369.697 379.194 370.138C379.194 370.579 379.32 370.93 379.59 371.191C379.86 371.461 380.193 371.587 380.598 371.587C380.994 371.587 381.327 371.452 381.597 371.182C381.867 370.912 382.011 370.57 382.011 370.138C382.011 369.724 381.867 369.373 381.597 369.103C381.327 368.833 380.994 368.698 380.598 368.698ZM382.074 366.07H383.001V372.361H382.128L382.074 371.659C381.75 372.19 381.237 372.451 380.535 372.451C379.869 372.451 379.329 372.244 378.906 371.83C378.474 371.416 378.267 370.858 378.267 370.138C378.267 369.409 378.474 368.842 378.888 368.437C379.302 368.032 379.851 367.825 380.517 367.825C380.805 367.825 381.102 367.897 381.408 368.041C381.714 368.185 381.93 368.374 382.074 368.617V366.07ZM388.552 370.489H384.952C384.988 370.831 385.141 371.101 385.402 371.299C385.663 371.506 385.996 371.605 386.401 371.605C386.635 371.605 386.878 371.569 387.121 371.479C387.364 371.389 387.553 371.272 387.688 371.128L388.291 371.713C388.066 371.956 387.778 372.145 387.436 372.271C387.094 372.406 386.743 372.469 386.383 372.469C385.654 372.469 385.069 372.262 384.637 371.83C384.205 371.407 383.989 370.84 383.989 370.12C383.989 369.445 384.205 368.887 384.637 368.455C385.069 368.023 385.627 367.807 386.32 367.807C387.058 367.807 387.643 368.041 388.057 368.491C388.471 368.95 388.633 369.616 388.552 370.489ZM384.97 369.706H387.661C387.634 369.364 387.499 369.103 387.265 368.914C387.031 368.734 386.725 368.635 386.347 368.635C385.996 368.635 385.699 368.734 385.447 368.914C385.195 369.103 385.042 369.364 384.97 369.706ZM393.466 372.361H392.53V369.922C392.53 369.58 392.431 369.301 392.251 369.067C392.062 368.833 391.81 368.716 391.495 368.716C391.171 368.716 390.919 368.833 390.721 369.067C390.523 369.301 390.424 369.589 390.424 369.922V372.361H389.497V367.915H390.361L390.424 368.509C390.541 368.284 390.712 368.113 390.937 368.005C391.162 367.897 391.405 367.843 391.666 367.843C392.368 367.843 392.827 368.14 393.061 368.734C393.385 368.149 393.889 367.852 394.582 367.852C395.185 367.852 395.653 368.032 395.977 368.392C396.301 368.752 396.463 369.256 396.463 369.904V372.361H395.527V369.904C395.527 369.562 395.437 369.274 395.275 369.058C395.104 368.842 394.861 368.725 394.546 368.725C394.222 368.725 393.961 368.842 393.763 369.076C393.565 369.31 393.466 369.589 393.466 369.922V372.361ZM398.589 367.906V372.361H397.662V367.906H398.589ZM397.554 366.619C397.554 366.862 397.644 367.033 397.842 367.132C398.031 367.231 398.22 367.231 398.418 367.132C398.607 367.033 398.706 366.862 398.706 366.619C398.706 366.385 398.607 366.214 398.418 366.115C398.22 366.025 398.031 366.025 397.842 366.115C397.644 366.214 397.554 366.385 397.554 366.619ZM402.974 371.164L403.604 371.785C403.136 372.253 402.569 372.478 401.921 372.478C401.246 372.478 400.688 372.28 400.247 371.866C399.797 371.461 399.581 370.885 399.581 370.147C399.581 369.409 399.797 368.842 400.247 368.428C400.688 368.023 401.246 367.816 401.921 367.816C402.542 367.816 403.073 368.041 403.523 368.473L402.929 369.094C402.659 368.833 402.326 368.698 401.93 368.698C401.516 368.698 401.183 368.833 400.913 369.103C400.643 369.373 400.508 369.715 400.508 370.147C400.508 370.597 400.643 370.948 400.913 371.2C401.183 371.452 401.516 371.578 401.921 371.578C402.353 371.578 402.704 371.443 402.974 371.164ZM411.441 370.858L412.134 371.551C411.504 372.181 410.712 372.487 409.767 372.487C409.209 372.487 408.723 372.397 408.291 372.217C407.859 372.037 407.508 371.794 407.247 371.488C406.977 371.182 406.779 370.84 406.644 370.462C406.509 370.084 406.446 369.688 406.446 369.256C406.446 368.833 406.509 368.428 406.653 368.041C406.788 367.654 406.986 367.303 407.256 366.988C407.517 366.673 407.868 366.421 408.3 366.232C408.732 366.052 409.227 365.953 409.767 365.953C410.667 365.953 411.432 366.277 412.071 366.907L411.396 367.555C410.955 367.123 410.415 366.907 409.767 366.907C409.011 366.907 408.435 367.141 408.039 367.6C407.634 368.068 407.436 368.617 407.445 369.247C407.445 369.886 407.643 370.426 408.039 370.876C408.426 371.326 409.002 371.542 409.767 371.542C410.064 371.542 410.361 371.488 410.667 371.362C410.964 371.245 411.225 371.074 411.441 370.858ZM416.422 368.626L416.449 367.924H417.349V372.361H416.467L416.422 371.641C416.278 371.911 416.062 372.118 415.774 372.262C415.486 372.406 415.189 372.478 414.892 372.478C414.226 372.487 413.677 372.28 413.254 371.866C412.822 371.452 412.615 370.876 412.615 370.138C412.615 369.418 412.831 368.86 413.263 368.446C413.695 368.032 414.244 367.825 414.91 367.825C415.225 367.825 415.522 367.897 415.801 368.041C416.071 368.185 416.278 368.383 416.422 368.626ZM414.982 368.671C414.568 368.671 414.226 368.806 413.956 369.076C413.677 369.346 413.542 369.697 413.542 370.138C413.542 370.588 413.677 370.939 413.956 371.209C414.226 371.479 414.568 371.614 414.982 371.614C415.243 371.614 415.477 371.56 415.684 371.452C415.891 371.344 416.044 371.209 416.152 371.029C416.26 370.858 416.332 370.669 416.386 370.462C416.44 370.255 416.44 370.048 416.386 369.832C416.332 369.625 416.26 369.436 416.152 369.256C416.044 369.085 415.891 368.941 415.684 368.833C415.477 368.725 415.243 368.671 414.982 368.671ZM418.643 366.07H419.57V372.361H418.643V366.07ZM425.158 370.489H421.558C421.594 370.831 421.747 371.101 422.008 371.299C422.269 371.506 422.602 371.605 423.007 371.605C423.241 371.605 423.484 371.569 423.727 371.479C423.97 371.389 424.159 371.272 424.294 371.128L424.897 371.713C424.672 371.956 424.384 372.145 424.042 372.271C423.7 372.406 423.349 372.469 422.989 372.469C422.26 372.469 421.675 372.262 421.243 371.83C420.811 371.407 420.595 370.84 420.595 370.12C420.595 369.445 420.811 368.887 421.243 368.455C421.675 368.023 422.233 367.807 422.926 367.807C423.664 367.807 424.249 368.041 424.663 368.491C425.077 368.95 425.239 369.616 425.158 370.489ZM421.576 369.706H424.267C424.24 369.364 424.105 369.103 423.871 368.914C423.637 368.734 423.331 368.635 422.953 368.635C422.602 368.635 422.305 368.734 422.053 368.914C421.801 369.103 421.648 369.364 421.576 369.706ZM430.406 372.361H429.47V369.985C429.47 369.598 429.362 369.292 429.155 369.058C428.939 368.824 428.651 368.707 428.273 368.707C427.913 368.707 427.616 368.842 427.382 369.094C427.148 369.355 427.031 369.67 427.031 370.039V372.361H426.104V367.915H426.95L427.004 368.563C427.418 368.095 427.922 367.852 428.498 367.852C429.056 367.852 429.506 368.041 429.866 368.419C430.226 368.797 430.406 369.319 430.406 369.976V372.361ZM433.658 368.698C433.253 368.698 432.92 368.833 432.65 369.085C432.38 369.346 432.254 369.697 432.254 370.138C432.254 370.579 432.38 370.93 432.65 371.191C432.92 371.461 433.253 371.587 433.658 371.587C434.054 371.587 434.387 371.452 434.657 371.182C434.927 370.912 435.071 370.57 435.071 370.138C435.071 369.724 434.927 369.373 434.657 369.103C434.387 368.833 434.054 368.698 433.658 368.698ZM435.134 366.07H436.061V372.361H435.188L435.134 371.659C434.81 372.19 434.297 372.451 433.595 372.451C432.929 372.451 432.389 372.244 431.966 371.83C431.534 371.416 431.327 370.858 431.327 370.138C431.327 369.409 431.534 368.842 431.948 368.437C432.362 368.032 432.911 367.825 433.577 367.825C433.865 367.825 434.162 367.897 434.468 368.041C434.774 368.185 434.99 368.374 435.134 368.617V366.07ZM440.855 368.626L440.882 367.924H441.782V372.361H440.9L440.855 371.641C440.711 371.911 440.495 372.118 440.207 372.262C439.919 372.406 439.622 372.478 439.325 372.478C438.659 372.487 438.11 372.28 437.687 371.866C437.255 371.452 437.048 370.876 437.048 370.138C437.048 369.418 437.264 368.86 437.696 368.446C438.128 368.032 438.677 367.825 439.343 367.825C439.658 367.825 439.955 367.897 440.234 368.041C440.504 368.185 440.711 368.383 440.855 368.626ZM439.415 368.671C439.001 368.671 438.659 368.806 438.389 369.076C438.11 369.346 437.975 369.697 437.975 370.138C437.975 370.588 438.11 370.939 438.389 371.209C438.659 371.479 439.001 371.614 439.415 371.614C439.676 371.614 439.91 371.56 440.117 371.452C440.324 371.344 440.477 371.209 440.585 371.029C440.693 370.858 440.765 370.669 440.819 370.462C440.873 370.255 440.873 370.048 440.819 369.832C440.765 369.625 440.693 369.436 440.585 369.256C440.477 369.085 440.324 368.941 440.117 368.833C439.91 368.725 439.676 368.671 439.415 368.671ZM443.04 367.924H443.904L443.967 368.509C444.219 368.059 444.66 367.825 445.272 367.825C445.722 367.825 446.082 367.951 446.37 368.203L445.947 369.013C445.722 368.833 445.461 368.743 445.164 368.743C444.822 368.743 444.534 368.851 444.309 369.058C444.075 369.274 443.967 369.571 443.967 369.958V372.361H443.04V367.924Z" fill="black"/>
<path d="M173.57 242.218H179.462V242.722H173.054V240.838C173.054 240.102 173.334 239.534 173.894 239.134C174.462 238.734 175.258 238.534 176.282 238.534C177.146 238.534 177.806 238.374 178.262 238.054C178.726 237.726 178.958 237.254 178.958 236.638C178.958 236.046 178.714 235.578 178.226 235.234C177.746 234.882 177.098 234.706 176.282 234.706C175.458 234.706 174.81 234.87 174.338 235.198C173.866 235.526 173.626 235.974 173.618 236.542H173.102C173.102 236.07 173.23 235.658 173.486 235.306C173.75 234.954 174.122 234.686 174.602 234.502C175.082 234.31 175.642 234.214 176.282 234.214C176.922 234.214 177.482 234.314 177.962 234.514C178.45 234.714 178.822 234.998 179.078 235.366C179.342 235.726 179.474 236.15 179.474 236.638C179.474 237.406 179.198 237.998 178.646 238.414C178.102 238.83 177.326 239.038 176.318 239.038C175.438 239.038 174.758 239.194 174.278 239.506C173.806 239.81 173.57 240.254 173.57 240.838V242.218ZM184.526 237.598C185.47 237.598 186.202 237.826 186.722 238.282C187.25 238.738 187.514 239.374 187.514 240.19C187.514 240.702 187.378 241.154 187.106 241.546C186.842 241.938 186.462 242.242 185.966 242.458C185.478 242.666 184.91 242.77 184.262 242.77C183.238 242.77 182.438 242.566 181.862 242.158C181.294 241.742 181.01 241.162 181.01 240.418H181.526C181.526 241.002 181.762 241.458 182.234 241.786C182.714 242.106 183.386 242.266 184.25 242.266C185.09 242.266 185.758 242.078 186.254 241.702C186.75 241.326 186.998 240.822 186.998 240.19C186.998 239.518 186.786 239.002 186.362 238.642C185.938 238.282 185.326 238.102 184.526 238.102H181.25V234.322H187.046V234.826H181.766V237.598H184.526Z" fill="black"/>
<path d="M173.57 349.293H179.462V349.797H173.054V347.913C173.054 347.177 173.334 346.609 173.894 346.209C174.462 345.809 175.258 345.609 176.282 345.609C177.146 345.609 177.806 345.449 178.262 345.129C178.726 344.801 178.958 344.329 178.958 343.713C178.958 343.121 178.714 342.653 178.226 342.309C177.746 341.957 177.098 341.781 176.282 341.781C175.458 341.781 174.81 341.945 174.338 342.273C173.866 342.601 173.626 343.049 173.618 343.617H173.102C173.102 343.145 173.23 342.733 173.486 342.381C173.75 342.029 174.122 341.761 174.602 341.577C175.082 341.385 175.642 341.289 176.282 341.289C176.922 341.289 177.482 341.389 177.962 341.589C178.45 341.789 178.822 342.073 179.078 342.441C179.342 342.801 179.474 343.225 179.474 343.713C179.474 344.481 179.198 345.073 178.646 345.489C178.102 345.905 177.326 346.113 176.318 346.113C175.438 346.113 174.758 346.269 174.278 346.581C173.806 346.885 173.57 347.329 173.57 347.913V349.293ZM185.93 345.441C186.49 345.569 186.95 345.829 187.31 346.221C187.67 346.605 187.85 347.053 187.85 347.565C187.85 348.029 187.706 348.441 187.418 348.801C187.138 349.153 186.738 349.429 186.218 349.629C185.706 349.821 185.114 349.917 184.442 349.917C183.77 349.917 183.174 349.821 182.654 349.629C182.142 349.429 181.742 349.153 181.454 348.801C181.174 348.441 181.034 348.029 181.034 347.565C181.034 347.053 181.214 346.605 181.574 346.221C181.934 345.829 182.394 345.569 182.954 345.441C182.41 345.273 181.986 345.017 181.682 344.673C181.386 344.329 181.238 343.925 181.238 343.461C181.238 343.029 181.37 342.645 181.634 342.309C181.906 341.973 182.282 341.713 182.762 341.529C183.25 341.345 183.81 341.253 184.442 341.253C185.074 341.253 185.63 341.345 186.11 341.529C186.598 341.713 186.974 341.973 187.238 342.309C187.51 342.645 187.646 343.029 187.646 343.461C187.646 343.925 187.494 344.329 187.19 344.673C186.894 345.017 186.474 345.273 185.93 345.441ZM181.742 343.473C181.742 343.809 181.854 344.109 182.078 344.373C182.31 344.637 182.63 344.845 183.038 344.997C183.454 345.141 183.922 345.213 184.442 345.213C184.97 345.213 185.438 345.141 185.846 344.997C186.254 344.845 186.57 344.637 186.794 344.373C187.026 344.109 187.142 343.809 187.142 343.473C187.142 343.137 187.026 342.837 186.794 342.573C186.57 342.309 186.254 342.105 185.846 341.961C185.438 341.809 184.97 341.733 184.442 341.733C183.922 341.733 183.454 341.809 183.038 341.961C182.63 342.105 182.31 342.309 182.078 342.573C181.854 342.837 181.742 343.137 181.742 343.473ZM184.442 349.425C185.01 349.425 185.514 349.349 185.954 349.197C186.394 349.037 186.734 348.817 186.974 348.537C187.222 348.249 187.346 347.921 187.346 347.553C187.346 347.185 187.222 346.861 186.974 346.581C186.734 346.301 186.394 346.081 185.954 345.921C185.514 345.761 185.01 345.681 184.442 345.681C183.874 345.681 183.37 345.761 182.93 345.921C182.49 346.081 182.15 346.301 181.91 346.581C181.67 346.861 181.55 347.185 181.55 347.553C181.55 347.921 181.67 348.249 181.91 348.537C182.15 348.817 182.49 349.037 182.93 349.197C183.37 349.349 183.874 349.425 184.442 349.425Z" fill="black"/>
<path d="M360.156 24.8876H366.048V25.3916H359.64V23.5076C359.64 22.7716 359.92 22.2036 360.48 21.8036C361.048 21.4036 361.844 21.2036 362.868 21.2036C363.732 21.2036 364.392 21.0436 364.848 20.7236C365.312 20.3956 365.544 19.9236 365.544 19.3076C365.544 18.7156 365.3 18.2476 364.812 17.9036C364.332 17.5516 363.684 17.3756 362.868 17.3756C362.044 17.3756 361.396 17.5396 360.924 17.8676C360.452 18.1956 360.212 18.6436 360.204 19.2116H359.688C359.688 18.7396 359.816 18.3276 360.072 17.9756C360.336 17.6236 360.708 17.3556 361.188 17.1716C361.668 16.9796 362.228 16.8836 362.868 16.8836C363.508 16.8836 364.068 16.9836 364.548 17.1836C365.036 17.3836 365.408 17.6676 365.664 18.0356C365.928 18.3956 366.06 18.8196 366.06 19.3076C366.06 20.0756 365.784 20.6676 365.232 21.0836C364.688 21.4996 363.912 21.7076 362.904 21.7076C362.024 21.7076 361.344 21.8636 360.864 22.1756C360.392 22.4796 360.156 22.9236 360.156 23.5076V24.8876ZM371.088 25.4756C370.432 25.4756 369.844 25.3436 369.324 25.0796C368.804 24.8076 368.4 24.4356 368.112 23.9636C367.824 23.4836 367.68 22.9396 367.68 22.3316V20.0396C367.68 19.4316 367.824 18.8916 368.112 18.4196C368.4 17.9396 368.804 17.5676 369.324 17.3036C369.844 17.0316 370.432 16.8956 371.088 16.8956C371.744 16.8956 372.332 17.0316 372.852 17.3036C373.372 17.5676 373.776 17.9396 374.064 18.4196C374.352 18.8916 374.496 19.4316 374.496 20.0396V22.3316C374.496 22.9396 374.352 23.4836 374.064 23.9636C373.776 24.4356 373.372 24.8076 372.852 25.0796C372.332 25.3436 371.744 25.4756 371.088 25.4756ZM371.088 24.9716C371.648 24.9716 372.148 24.8596 372.588 24.6356C373.028 24.4116 373.368 24.0996 373.608 23.6996C373.856 23.2996 373.98 22.8436 373.98 22.3316V20.0396C373.98 19.5276 373.856 19.0716 373.608 18.6716C373.368 18.2716 373.028 17.9596 372.588 17.7356C372.148 17.5116 371.648 17.3996 371.088 17.3996C370.528 17.3996 370.028 17.5116 369.588 17.7356C369.148 17.9596 368.804 18.2716 368.556 18.6716C368.316 19.0716 368.196 19.5276 368.196 20.0396V22.3316C368.196 22.8436 368.316 23.2996 368.556 23.6996C368.804 24.0996 369.148 24.4116 369.588 24.6356C370.028 24.8596 370.528 24.9716 371.088 24.9716Z" fill="black"/>
<path d="M360.156 135.142H366.048V135.646H359.64V133.762C359.64 133.026 359.92 132.458 360.48 132.058C361.048 131.658 361.844 131.458 362.868 131.458C363.732 131.458 364.392 131.298 364.848 130.978C365.312 130.65 365.544 130.178 365.544 129.562C365.544 128.97 365.3 128.502 364.812 128.158C364.332 127.806 363.684 127.63 362.868 127.63C362.044 127.63 361.396 127.794 360.924 128.122C360.452 128.45 360.212 128.898 360.204 129.466H359.688C359.688 128.994 359.816 128.582 360.072 128.23C360.336 127.878 360.708 127.61 361.188 127.426C361.668 127.234 362.228 127.138 362.868 127.138C363.508 127.138 364.068 127.238 364.548 127.438C365.036 127.638 365.408 127.922 365.664 128.29C365.928 128.65 366.06 129.074 366.06 129.562C366.06 130.33 365.784 130.922 365.232 131.338C364.688 131.754 363.912 131.962 362.904 131.962C362.024 131.962 361.344 132.118 360.864 132.43C360.392 132.734 360.156 133.178 360.156 133.762V135.142ZM372.156 131.338C372.684 131.458 373.128 131.722 373.488 132.13C373.848 132.53 374.028 132.974 374.028 133.462C374.028 134.174 373.736 134.734 373.152 135.142C372.576 135.55 371.788 135.754 370.788 135.754C370.132 135.754 369.56 135.662 369.072 135.478C368.584 135.294 368.208 135.038 367.944 134.71C367.68 134.374 367.548 133.986 367.548 133.546H368.064C368.064 134.058 368.312 134.47 368.808 134.782C369.312 135.094 369.98 135.25 370.812 135.25C371.652 135.25 372.312 135.094 372.792 134.782C373.272 134.462 373.512 134.03 373.512 133.486C373.512 133.126 373.396 132.802 373.164 132.514C372.932 132.218 372.612 131.986 372.204 131.818C371.796 131.65 371.336 131.566 370.824 131.566H369.408V131.086H370.788C371.284 131.086 371.728 131.01 372.12 130.858C372.512 130.706 372.816 130.498 373.032 130.234C373.256 129.962 373.368 129.658 373.368 129.322C373.368 128.794 373.136 128.382 372.672 128.086C372.216 127.79 371.58 127.642 370.764 127.642C369.98 127.642 369.356 127.794 368.892 128.098C368.428 128.394 368.196 128.786 368.196 129.274H367.68C367.68 128.85 367.804 128.478 368.052 128.158C368.308 127.838 368.668 127.59 369.132 127.414C369.604 127.23 370.148 127.138 370.764 127.138C371.724 127.138 372.484 127.334 373.044 127.726C373.604 128.118 373.884 128.65 373.884 129.322C373.884 129.794 373.72 130.218 373.392 130.594C373.072 130.97 372.66 131.218 372.156 131.338Z" fill="black"/>
<path d="M360.156 242.218H366.048V242.722H359.64V240.838C359.64 240.102 359.92 239.534 360.48 239.134C361.048 238.734 361.844 238.534 362.868 238.534C363.732 238.534 364.392 238.374 364.848 238.054C365.312 237.726 365.544 237.254 365.544 236.638C365.544 236.046 365.3 235.578 364.812 235.234C364.332 234.882 363.684 234.706 362.868 234.706C362.044 234.706 361.396 234.87 360.924 235.198C360.452 235.526 360.212 235.974 360.204 236.542H359.688C359.688 236.07 359.816 235.658 360.072 235.306C360.336 234.954 360.708 234.686 361.188 234.502C361.668 234.31 362.228 234.214 362.868 234.214C363.508 234.214 364.068 234.314 364.548 234.514C365.036 234.714 365.408 234.998 365.664 235.366C365.928 235.726 366.06 236.15 366.06 236.638C366.06 237.406 365.784 237.998 365.232 238.414C364.688 238.83 363.912 239.038 362.904 239.038C362.024 239.038 361.344 239.194 360.864 239.506C360.392 239.81 360.156 240.254 360.156 240.838V242.218ZM371.196 237.658C371.852 237.658 372.428 237.766 372.924 237.982C373.428 238.198 373.816 238.502 374.088 238.894C374.368 239.278 374.508 239.726 374.508 240.238C374.508 240.75 374.368 241.202 374.088 241.594C373.816 241.978 373.428 242.278 372.924 242.494C372.42 242.702 371.836 242.806 371.172 242.806C370.508 242.806 369.924 242.702 369.42 242.494C368.916 242.278 368.524 241.978 368.244 241.594C367.972 241.202 367.836 240.75 367.836 240.238V236.794C367.836 235.994 368.124 235.366 368.7 234.91C369.284 234.446 370.072 234.214 371.064 234.214C371.68 234.214 372.224 234.298 372.696 234.466C373.176 234.634 373.556 234.878 373.836 235.198C374.116 235.51 374.268 235.878 374.292 236.302H373.776C373.744 235.822 373.476 235.438 372.972 235.15C372.476 234.862 371.836 234.718 371.052 234.718C370.212 234.718 369.552 234.902 369.072 235.27C368.592 235.638 368.352 236.15 368.352 236.806V238.822C368.984 238.046 369.932 237.658 371.196 237.658ZM371.172 242.314C372.028 242.314 372.712 242.126 373.224 241.75C373.736 241.374 373.992 240.87 373.992 240.238C373.992 239.606 373.736 239.102 373.224 238.726C372.712 238.35 372.028 238.162 371.172 238.162C370.316 238.162 369.632 238.35 369.12 238.726C368.608 239.102 368.352 239.606 368.352 240.238C368.352 240.87 368.608 241.374 369.12 241.75C369.632 242.126 370.316 242.314 371.172 242.314Z" fill="black"/>
<circle cx="339.752" cy="118.407" r="4.2406" fill="#EF7B2E"/>
<circle cx="528.459" cy="334.677" r="4.2406" fill="#8EBFB0"/>
<defs>
<filter id="filter0_d_2451_14340" x="146.586" y="98.8652" width="216.707" height="136.136" filterUnits="userSpaceOnUse" color-interpolation-filters="sRGB">
<feFlood flood-opacity="0" result="BackgroundImageFix"/>
<feColorMatrix in="SourceAlpha" type="matrix" values="0 0 0 0 0 0 0 0 0 0 0 0 0 0 0 0 0 0 127 0" result="hardAlpha"/>
<feOffset dy="4"/>
<feGaussianBlur stdDeviation="7"/>
<feComposite in2="hardAlpha" operator="out"/>
<feColorMatrix type="matrix" values="0 0 0 0 0 0 0 0 0 0 0 0 0 0 0 0 0 0 0.25 0"/>
<feBlend mode="normal" in2="BackgroundImageFix" result="effect1_dropShadow_2451_14340"/>
<feBlend mode="normal" in="SourceGraphic" in2="effect1_dropShadow_2451_14340" result="shape"/>
</filter>
<filter id="filter1_d_2451_14340" x="335.293" y="315.136" width="216.707" height="136.136" filterUnits="userSpaceOnUse" color-interpolation-filters="sRGB">
<feFlood flood-opacity="0" result="BackgroundImageFix"/>
<feColorMatrix in="SourceAlpha" type="matrix" values="0 0 0 0 0 0 0 0 0 0 0 0 0 0 0 0 0 0 127 0" result="hardAlpha"/>
<feOffset dy="4"/>
<feGaussianBlur stdDeviation="7"/>
<feComposite in2="hardAlpha" operator="out"/>
<feColorMatrix type="matrix" values="0 0 0 0 0 0 0 0 0 0 0 0 0 0 0 0 0 0 0.25 0"/>
<feBlend mode="normal" in2="BackgroundImageFix" result="effect1_dropShadow_2451_14340"/>
<feBlend mode="normal" in="SourceGraphic" in2="effect1_dropShadow_2451_14340" result="shape"/>
</filter>
</defs>
</svg>
