<svg width="50" height="50" viewBox="0 0 50 50" fill="none" xmlns="http://www.w3.org/2000/svg">
<g clip-path="url(#clip0_4_1128)">
<path d="M38.4917 44.1667H22.5V34.1667C22.5 32.7834 20.075 31.6667 17.0833 31.6667C16.3844 31.6639 15.6867 31.728 15 31.8584V22.7834C17.6358 16.6375 22.1317 12.1709 26.125 10.1917C26.8373 10.6181 27.6532 10.8401 28.4833 10.8334H33.15C33.9875 10.8392 34.81 10.6112 35.525 10.175C37.3417 11.075 45.5333 15.7667 48.4917 28.3334C51.825 42.5 41.825 44.1667 38.4917 44.1667Z" fill="#FFDC00"/>
<path d="M48.4917 28.3334C45.5334 15.7667 37.3417 11.075 35.5251 10.175C35.0706 10.4514 34.5692 10.6421 34.0459 10.7375C36.9034 12.4442 43.4209 17.4167 45.9917 28.3334C49.3251 42.5 39.3251 44.1667 35.9917 44.1667H38.4917C41.8251 44.1667 51.8251 42.5 48.4917 28.3334Z" fill="#FEC108"/>
<path d="M39.1668 1.80837C39.1751 3.64171 38.8085 7.64171 35.8751 9.93337C35.7652 10.0233 35.6482 10.1042 35.5251 10.175C34.8102 10.6112 33.9876 10.8392 33.1501 10.8334H28.4835C27.6534 10.8401 26.8374 10.6181 26.1251 10.1917C26.0001 10.1084 25.8751 10.025 25.7585 9.93337C22.8251 7.64171 22.4668 3.64171 22.4668 1.80837C22.4682 1.53122 22.6073 1.27289 22.8379 1.11915C23.0685 0.965411 23.3604 0.936384 23.6168 1.04171C24.6835 1.49171 25.0418 2.50004 26.6585 2.50004C28.7335 2.50004 28.7335 0.833374 30.8085 0.833374C32.8835 0.833374 32.8918 2.50004 34.9751 2.50004C36.5918 2.50004 36.9501 1.48337 38.0168 1.04171C38.2732 0.936384 38.5651 0.965411 38.7957 1.11915C39.0263 1.27289 39.1654 1.53122 39.1668 1.80837Z" fill="#FFDC00"/>
<path d="M38.0164 1.04177C37.5307 1.29192 37.0774 1.6003 36.6664 1.9601C36.6547 3.8526 36.2339 7.70093 33.3764 9.93343C33.2665 10.0234 33.1494 10.1042 33.0264 10.1751C32.3114 10.6113 31.4889 10.8393 30.6514 10.8334H33.1514C33.9889 10.8393 34.8114 10.6113 35.5264 10.1751C35.6494 10.1042 35.7665 10.0234 35.8764 9.93343C38.808 7.64177 39.1747 3.64177 39.1664 1.80843C39.165 1.53128 39.0259 1.27295 38.7953 1.11921C38.5647 0.96547 38.2727 0.936444 38.0164 1.04177Z" fill="#FEC108"/>
<path d="M14.5837 9.16675C17.5752 9.16675 20.0003 8.04746 20.0003 6.66675C20.0003 5.28604 17.5752 4.16675 14.5837 4.16675C11.5921 4.16675 9.16699 5.28604 9.16699 6.66675C9.16699 8.04746 11.5921 9.16675 14.5837 9.16675Z" fill="#FFDC00"/>
<path d="M20.0003 6.66675V14.9834C17.9019 17.2799 16.211 19.9178 15.0003 22.7834V18.3334C15.0003 16.9501 12.5753 15.8334 9.58366 15.8334C9.44199 15.8334 9.30866 15.8334 9.16699 15.8417V6.66675C9.16699 8.05008 11.592 9.16675 14.5837 9.16675C17.5753 9.16675 20.0003 8.05008 20.0003 6.66675Z" fill="#FF9801"/>
<path d="M15.0003 18.3334C15.0003 19.7167 12.5753 20.8334 9.58366 20.8334C6.59199 20.8334 4.16699 19.7167 4.16699 18.3334C4.16699 17.0167 6.36699 15.9417 9.16699 15.8417C9.30866 15.8334 9.44199 15.8334 9.58366 15.8334C12.5753 15.8334 15.0003 16.95 15.0003 18.3334Z" fill="#FFDC00"/>
<path d="M15.0003 18.3334V31.8584C13.042 32.2334 11.667 33.125 11.667 34.1667V42.5C11.667 41.1167 9.24199 40 6.25033 40C5.55135 39.9972 4.85371 40.0614 4.16699 40.1917V18.3334C4.16699 19.7167 6.59199 20.8334 9.58366 20.8334C12.5753 20.8334 15.0003 19.7167 15.0003 18.3334Z" fill="#FF9801"/>
<path d="M11.6663 42.5001C11.6663 43.8834 9.24134 45.0001 6.24967 45.0001C3.25801 45.0001 0.833008 43.8834 0.833008 42.5001C0.833008 41.4584 2.20801 40.5668 4.16634 40.1918C4.85306 40.0614 5.5507 39.9972 6.24967 40.0001C9.24134 40.0001 11.6663 41.1168 11.6663 42.5001Z" fill="#FFEB3A"/>
<path d="M11.6663 42.5V46.6667C11.6663 48.05 9.24134 49.1667 6.24967 49.1667C3.25801 49.1667 0.833008 48.05 0.833008 46.6667V42.5C0.833008 43.8833 3.25801 45 6.24967 45C9.24134 45 11.6663 43.8833 11.6663 42.5Z" fill="#FFDC00"/>
<path d="M22.5003 34.1667C22.5003 35.5501 20.0753 36.6667 17.0837 36.6667C14.092 36.6667 11.667 35.5501 11.667 34.1667C11.667 33.1251 13.042 32.2334 15.0003 31.8584C15.687 31.728 16.3847 31.6639 17.0837 31.6667C20.0753 31.6667 22.5003 32.7834 22.5003 34.1667Z" fill="#FFEB3A"/>
<path d="M22.5003 34.1667V45.0001C22.5003 46.3834 20.0753 47.5001 17.0837 47.5001C14.092 47.5001 11.667 46.3834 11.667 45.0001V34.1667C11.667 35.5501 14.092 36.6667 17.0837 36.6667C20.0753 36.6667 22.5003 35.5501 22.5003 34.1667Z" fill="#FFDC00"/>
<path d="M39.3883 11.7201C43.5225 12.0318 44.8533 13.7518 44.8925 13.8035C45.1536 14.1762 45.6654 14.2705 46.0422 14.0154C46.419 13.7604 46.5215 13.2502 46.2725 12.8693C46.2125 12.7793 45.055 11.126 41.6892 10.3693C42.5498 9.66179 43.059 8.614 43.0833 7.50013C42.9719 5.65342 41.6863 4.08744 39.8967 3.61847C39.97 3.01651 40.0073 2.41071 40.0083 1.8043C40.0074 1.24563 39.7267 0.724573 39.2606 0.416539C38.7946 0.108505 38.2051 0.0544728 37.6908 0.272633C37.2701 0.463113 36.8794 0.713794 36.5308 1.0168C36.1219 1.43707 35.5589 1.67189 34.9725 1.6668C34.387 1.67092 33.8252 1.43619 33.4167 1.0168C31.948 -0.339584 29.6836 -0.339584 28.215 1.0168C27.806 1.43798 27.2421 1.67294 26.655 1.6668C26.0696 1.67166 25.5078 1.4368 25.1 1.0168C24.7524 0.714445 24.3628 0.464065 23.9433 0.273467C23.4294 0.0567684 22.8411 0.111538 22.376 0.41939C21.9108 0.727241 21.6305 1.24736 21.6292 1.80513C21.6292 3.87847 22.0392 7.5768 24.635 10.0601C23.2708 10.8897 21.9967 11.8591 20.8333 12.9526V6.6668C20.8333 4.7668 18.1458 3.33347 14.5833 3.33347C11.0208 3.33347 8.33333 4.7668 8.33333 6.6668V15.0626C5.41083 15.3543 3.33333 16.6668 3.33333 18.3335V39.5293C1.32 40.0701 0 41.1668 0 42.5001V46.6668C0 48.5668 2.6875 50.0001 6.25 50.0001C9.43583 50.0001 11.9167 48.8526 12.4058 47.2501C13.8443 48.0118 15.4565 48.3852 17.0833 48.3335C20.6458 48.3335 23.3333 46.9001 23.3333 45.0001V34.1668C23.3333 32.2668 20.6458 30.8335 17.0833 30.8335C16.6659 30.8332 16.2487 30.8541 15.8333 30.896V18.3335C15.8333 16.5085 13.3525 15.1185 10 15.011V8.9743C11.4177 9.69487 12.9937 10.0476 14.5833 10.0001C16.1729 10.0476 17.749 9.69487 19.1667 8.9743V14.6576C18.6183 15.2718 18.0658 15.941 17.5217 16.6826C17.2725 17.0537 17.3604 17.5553 17.721 17.8194C18.0816 18.0836 18.5863 18.0163 18.865 17.6668C19.4002 16.9422 19.9738 16.2468 20.5833 15.5835C20.59 15.576 20.5958 15.5685 20.6025 15.5618C22.1933 13.7939 24.0613 12.2968 26.1333 11.1293C26.5418 11.3263 26.974 11.47 27.4192 11.5568L25.2708 13.5618C24.9344 13.8761 24.9165 14.4037 25.2308 14.7401C25.5452 15.0766 26.0727 15.0945 26.4092 14.7801L29.7425 11.671H30.0083V14.171C30.0083 14.6312 30.3814 15.0043 30.8417 15.0043C31.3019 15.0043 31.675 14.6312 31.675 14.171V11.6668H31.9408L35.2742 14.776C35.4918 14.9793 35.8014 15.0511 36.0863 14.9643C36.3712 14.8775 36.5882 14.6453 36.6555 14.3551C36.7228 14.065 36.6301 13.761 36.4125 13.5576L34.25 11.5443C34.6925 11.4567 35.1219 11.3125 35.5275 11.1151C37.73 12.3068 44.97 17.0151 47.6817 28.5243C48.8608 33.5343 48.4358 37.3668 46.4192 39.9126C43.8392 43.1668 39.3625 43.3335 38.4917 43.3335H26.6667C26.2064 43.3335 25.8333 43.7066 25.8333 44.1668C25.8333 44.627 26.2064 45.0001 26.6667 45.0001H38.4917C39.9083 45.0001 44.7458 44.7076 47.725 40.9476C50.0733 37.9818 50.605 33.6735 49.3033 28.1426C47.25 19.4168 42.685 14.361 39.3883 11.7201ZM6.25 40.8335C9.00583 40.8335 10.8333 41.8335 10.8333 42.5001C10.8333 43.1668 9.00583 44.1668 6.25 44.1668C3.49417 44.1668 1.66667 43.1668 1.66667 42.5001C1.66667 41.8335 3.49417 40.8335 6.25 40.8335ZM6.25 48.3335C3.49417 48.3335 1.66667 47.3335 1.66667 46.6668V44.8076C3.08436 45.5282 4.6604 45.881 6.25 45.8335C7.8396 45.881 9.41564 45.5282 10.8333 44.8076V46.6668C10.8333 47.3335 9.00583 48.3335 6.25 48.3335ZM17.0833 46.6668C14.3275 46.6668 12.5 45.6668 12.5 45.0001V36.4743C13.9177 37.1949 15.4937 37.5476 17.0833 37.5001C18.6729 37.5476 20.249 37.1949 21.6667 36.4743V45.0001C21.6667 45.6668 19.8392 46.6668 17.0833 46.6668ZM21.6667 34.1668C21.6667 34.8335 19.8392 35.8335 17.0833 35.8335C14.3275 35.8335 12.5 34.8335 12.5 34.1668C12.5 33.5001 14.3275 32.5001 17.0833 32.5001C19.8392 32.5001 21.6667 33.5001 21.6667 34.1668ZM10.8333 34.1668V40.1926C9.41564 39.4721 7.8396 39.1193 6.25 39.1668C5.83255 39.1665 5.41535 39.1874 5 39.2293V20.641C6.41769 21.3615 7.99374 21.7143 9.58333 21.6668C11.1729 21.7143 12.749 21.3615 14.1667 20.641V31.196C12.1533 31.7368 10.8333 32.8335 10.8333 34.1668ZM14.1667 18.3335C14.1667 19.0001 12.3392 20.0001 9.58333 20.0001C6.8275 20.0001 5 19.0001 5 18.3335C5 17.6668 6.8275 16.6668 9.58333 16.6668C12.3392 16.6668 14.1667 17.6668 14.1667 18.3335ZM14.5833 8.33347C11.8275 8.33347 10 7.33347 10 6.6668C10 6.00013 11.8275 5.00013 14.5833 5.00013C17.3392 5.00013 19.1667 6.00013 19.1667 6.6668C19.1667 7.33347 17.3392 8.33347 14.5833 8.33347ZM41.4167 7.50013C41.4167 8.86597 39.9375 9.9868 38.0833 10.0001C37.7732 9.99817 37.4642 9.96269 37.1617 9.8943C38.3709 8.60371 39.2115 7.01224 39.5958 5.28597C40.5989 5.58152 41.3204 6.45885 41.4167 7.50013ZM24.0567 2.3168C24.7604 2.97625 25.6906 3.3402 26.655 3.33347C27.62 3.34071 28.5509 2.97672 29.255 2.3168C29.6669 1.90092 30.228 1.66694 30.8133 1.66694C31.3987 1.66694 31.9598 1.90092 32.3717 2.3168C33.0758 2.97721 34.0071 3.34127 34.9725 3.33347C35.9378 3.34092 36.869 2.97692 37.5733 2.3168C37.8043 2.1127 38.0612 1.94008 38.3375 1.80347C38.3375 3.35097 38.05 7.1768 35.365 9.2743C34.761 9.72796 34.0287 9.97857 33.2733 9.99013C33.9947 8.75106 34.5657 7.43034 34.9742 6.05597C35.054 5.76896 34.9746 5.46119 34.7659 5.24859C34.5573 5.03599 34.251 4.95086 33.9626 5.02526C33.6741 5.09966 33.4473 5.3223 33.3675 5.6093C32.906 7.17577 32.1964 8.65817 31.2658 10.0001H30.4092C29.4804 8.65698 28.7708 7.17494 28.3067 5.6093C28.1831 5.16586 27.7234 4.90656 27.28 5.03013C26.8366 5.15371 26.5773 5.61336 26.7008 6.0568C27.1097 7.43235 27.6812 8.7542 28.4033 9.9943C27.6329 9.99035 26.8842 9.73816 26.2683 9.27513C23.5833 7.17847 23.2958 3.35263 23.2958 1.81013C23.572 1.94244 23.8281 2.11301 24.0567 2.3168Z" fill="black"/>
<path d="M45.1124 38.8775C46.1 37.5195 46.6353 35.8851 46.6424 34.2059C46.653 33.9851 46.5755 33.7691 46.4269 33.6054C46.2782 33.4418 46.0707 33.3439 45.8499 33.3334C45.3919 33.3163 45.0043 33.6684 44.9774 34.1259C44.9836 35.4567 44.5737 36.7562 43.8049 37.8425C42.179 39.8959 39.094 40 38.4915 40C38.0313 40 37.6582 40.3731 37.6582 40.8334C37.6582 41.2936 38.0313 41.6667 38.4915 41.6667C39.2282 41.6667 43.009 41.5325 45.1124 38.8775Z" fill="black"/>
<path d="M28.3337 28.3334C28.3337 27.8731 27.9606 27.5 27.5003 27.5C27.0401 27.5 26.667 27.8731 26.667 28.3334C26.667 30.1743 28.1594 31.6667 30.0003 31.6667V32.5C30.0003 32.9603 30.3734 33.3334 30.8337 33.3334C31.2939 33.3334 31.667 32.9603 31.667 32.5V31.6667C33.5079 31.6667 35.0003 30.1743 35.0003 28.3334C35.0003 26.4924 33.5079 25 31.667 25V21.6667C32.5875 21.6667 33.3337 22.4129 33.3337 23.3334C33.3337 23.7936 33.7068 24.1667 34.167 24.1667C34.6272 24.1667 35.0003 23.7936 35.0003 23.3334C35.0003 21.4924 33.5079 20 31.667 20V19.1667C31.667 18.7065 31.2939 18.3334 30.8337 18.3334C30.3734 18.3334 30.0003 18.7065 30.0003 19.1667V20C28.1594 20 26.667 21.4924 26.667 23.3334C26.667 25.1743 28.1594 26.6667 30.0003 26.6667V30C29.0799 30 28.3337 29.2538 28.3337 28.3334ZM28.3337 23.3334C28.3337 22.4129 29.0799 21.6667 30.0003 21.6667V25C29.0799 25 28.3337 24.2538 28.3337 23.3334ZM31.667 26.6667C32.5875 26.6667 33.3337 27.4129 33.3337 28.3334C33.3337 29.2538 32.5875 30 31.667 30V26.6667Z" fill="black"/>
</g>
<defs>
<clipPath id="clip0_4_1128">
<rect width="50" height="50" fill="white"/>
</clipPath>
</defs>
</svg>
