<svg width="49" height="49" viewBox="0 0 49 49" fill="none" xmlns="http://www.w3.org/2000/svg">
<g clip-path="url(#clip0_4_1149)">
<path d="M22.5576 4.9812H26.0213V17.1072H22.5576V4.9812Z" fill="#ED4551"/>
<path d="M6.00098 12.6866L8.4498 10.2378L17.0229 18.8109L14.574 21.2597L6.00098 12.6866Z" fill="#ED4551"/>
<path d="M40.5449 10.2322L42.9937 12.681L34.4207 21.2541L31.9719 18.8052L40.5449 10.2322Z" fill="#ED4551"/>
<path d="M14.5801 36.4537L17.0289 38.9026L8.45585 47.4756L6.00702 45.0268L14.5801 36.4537Z" fill="#ED4551"/>
<path d="M31.9668 38.9097L34.4156 36.4608L42.9887 45.0339L40.5399 47.4827L31.9668 38.9097Z" fill="#ED4551"/>
<path d="M24.2887 47.484C34.8116 47.484 43.342 38.9535 43.342 28.4307C43.342 17.9078 34.8116 9.37732 24.2887 9.37732C13.7658 9.37732 5.23535 17.9078 5.23535 28.4307C5.23535 38.9535 13.7658 47.484 24.2887 47.484Z" fill="#199F90"/>
<path d="M24.2891 43.2823C32.4914 43.2823 39.1407 36.633 39.1407 28.4307C39.1407 20.2284 32.4914 13.5791 24.2891 13.5791C16.0868 13.5791 9.4375 20.2284 9.4375 28.4307C9.4375 36.633 16.0868 43.2823 24.2891 43.2823Z" fill="#F1F2F2"/>
<path opacity="0.2" d="M43.3346 28.4353C43.3327 31.7516 42.4655 35.01 40.8188 37.8885C39.172 40.7671 36.8027 43.1661 33.9449 44.8486C31.0871 46.5311 27.8398 47.4389 24.5237 47.4821C21.2077 47.5254 17.9378 46.7027 15.0371 45.0953V45.08C15.0371 45.08 24.4849 46.8409 22.5555 40.6853C20.6262 34.5296 22.3565 28.175 30.8396 25.7556C36.3521 24.1784 36.4746 17.6706 35.8774 13.3065C38.2002 15.0849 40.0814 17.3751 41.3747 19.9991C42.6681 22.623 43.3388 25.5099 43.3346 28.4353Z" fill="black"/>
<path d="M18.2266 4.9812V1.51751H30.3525V4.9812H18.2266Z" fill="#FDD330"/>
<path d="M7.33478 29.2469C7.3327 32.9152 8.39106 36.5059 10.3824 39.5867C12.3738 42.6674 15.2132 45.1069 18.5588 46.6113C14.219 45.2406 10.5128 42.3625 8.11014 38.4972C5.70752 34.632 4.76708 30.0347 5.45883 25.5364C6.15059 21.0381 8.42889 16.9358 11.8819 13.971C15.3348 11.0062 19.7346 9.37467 24.2857 9.37129C26.9639 9.35888 29.6127 9.92836 32.0492 11.0404C29.1963 10.1543 26.1751 9.95127 23.2293 10.4475C20.2835 10.9438 17.4956 12.1255 15.0904 13.8973C12.6853 15.6691 10.7303 17.9814 9.3831 20.6477C8.03591 23.314 7.33427 26.2596 7.33478 29.2469Z" fill="#5CC4B5"/>
<path d="M2.85624 8.03694L3.80366 7.08953C4.52923 6.36453 5.51299 5.95727 6.5387 5.95727C7.56442 5.95727 8.54817 6.36453 9.27375 7.08953L10.4355 8.25133L4.01696 14.6699L2.85516 13.5081C2.12997 12.7824 1.7227 11.7983 1.7229 10.7723C1.72311 9.74632 2.13077 8.76242 2.85624 8.03694Z" fill="#FDD330"/>
<path d="M45.194 7.08706L46.1414 8.03447C46.5008 8.39379 46.7858 8.82036 46.9802 9.28982C47.1747 9.75929 47.2748 10.2625 47.2748 10.7706C47.2748 11.2787 47.1747 11.7819 46.9802 12.2514C46.7858 12.7209 46.5008 13.1474 46.1414 13.5067L44.9807 14.6674L38.5611 8.24778L39.7229 7.08598C40.4485 6.36031 41.4327 5.95264 42.459 5.95264C43.4852 5.95264 44.4684 6.3614 45.194 7.08706Z" fill="#FDD330"/>
<path d="M24.2887 12.8058C21.1996 12.8058 18.1799 13.7218 15.6114 15.438C13.0429 17.1542 11.041 19.5935 9.85884 22.4475C8.67669 25.3015 8.36739 28.4419 8.97004 31.4716C9.57269 34.5013 11.0602 37.2843 13.2446 39.4687C15.4289 41.653 18.2119 43.1405 21.2416 43.7432C24.2714 44.3458 27.4118 44.0365 30.2657 42.8544C33.1197 41.6722 35.559 39.6703 37.2752 37.1018C38.9914 34.5334 39.9074 31.5136 39.9074 28.4245C39.9034 24.2834 38.2565 20.3131 35.3283 17.3849C32.4001 14.4567 28.4298 12.8098 24.2887 12.8058ZM24.2887 42.512C21.5024 42.512 18.7788 41.6858 16.4621 40.1379C14.1454 38.5899 12.3398 36.3897 11.2735 33.8156C10.2073 31.2414 9.9283 28.4089 10.4719 25.6762C11.0154 22.9435 12.3571 20.4333 14.3273 18.4632C16.2975 16.493 18.8076 15.1513 21.5403 14.6077C24.273 14.0642 27.1056 14.3431 29.6797 15.4094C32.2539 16.4756 34.4541 18.2813 36.002 20.5979C37.55 22.9146 38.3762 25.6383 38.3762 28.4245C38.3717 32.1591 36.886 35.7394 34.2449 38.3799C31.6039 41.0204 28.0233 42.5053 24.2887 42.509V42.512Z" fill="black"/>
<path d="M46.686 7.4893L45.7397 6.54298C44.8566 5.70007 43.6828 5.22975 42.462 5.22975C41.2413 5.22975 40.0674 5.70007 39.1844 6.54298L38.0237 7.7052C37.8802 7.84878 37.7995 8.04348 37.7995 8.2465C37.7995 8.44952 37.8802 8.64422 38.0237 8.7878L39.4662 10.2302L36.7007 12.9957C33.8518 10.697 30.4192 9.23677 26.7874 8.77861V5.74061H30.3522C30.5552 5.74061 30.75 5.65995 30.8935 5.51636C31.0371 5.37278 31.1178 5.17804 31.1178 4.97498V1.50977C31.1178 1.30671 31.0371 1.11197 30.8935 0.968387C30.75 0.824804 30.5552 0.744141 30.3522 0.744141H18.2216C18.0185 0.744141 17.8238 0.824804 17.6802 0.968387C17.5366 1.11197 17.456 1.30671 17.456 1.50977V4.97498C17.456 5.17804 17.5366 5.37278 17.6802 5.51636C17.8238 5.65995 18.0185 5.74061 18.2216 5.74061H21.7863V8.77861C18.259 9.22636 14.9186 10.6206 12.1196 12.8135L9.53481 10.2302L10.9772 8.7878C11.1208 8.64422 11.2014 8.44952 11.2014 8.2465C11.2014 8.04348 11.1208 7.84878 10.9772 7.7052L9.81656 6.54298C8.9336 5.70051 7.76008 5.23048 6.53968 5.23048C5.31928 5.23048 4.14577 5.70051 3.26281 6.54298L2.31496 7.4893C1.4461 8.35849 0.958008 9.53718 0.958008 10.7662C0.958008 11.9952 1.4461 13.1738 2.31496 14.043L3.47718 15.2053C3.62076 15.3488 3.81546 15.4294 4.01848 15.4294C4.2215 15.4294 4.4162 15.3488 4.55978 15.2053L6.00221 13.7628L8.60534 16.366C5.86636 19.9031 4.41087 24.2661 4.47764 28.7393C4.54442 33.2124 6.12949 37.53 8.97284 40.9839L5.46628 44.492C5.32274 44.6355 5.24211 44.8302 5.24211 45.0332C5.24211 45.2363 5.32274 45.431 5.46628 45.5745L7.91628 48.0245C8.05985 48.1681 8.25456 48.2487 8.45757 48.2487C8.66059 48.2487 8.85529 48.1681 8.99887 48.0245L12.6111 44.4062C16.0349 46.9324 20.1855 48.2803 24.4402 48.2477C28.695 48.2151 32.8245 46.8038 36.2092 44.2255L40.0067 48.023C40.1503 48.1665 40.345 48.2472 40.548 48.2472C40.751 48.2472 40.9457 48.1665 41.0893 48.023L43.5393 45.573C43.6828 45.4294 43.7634 45.2347 43.7634 45.0317C43.7634 44.8287 43.6828 44.634 43.5393 44.4904L39.7908 40.7312C42.5209 37.3193 44.0387 33.0963 44.1052 28.7271C44.1717 24.3579 42.7832 20.0906 40.1583 16.5972L42.9987 13.7582L44.4412 15.2007C44.5848 15.3442 44.7795 15.4248 44.9825 15.4248C45.1855 15.4248 45.3802 15.3442 45.5238 15.2007L46.686 14.0385C47.5516 13.1685 48.0375 11.9911 48.0375 10.7639C48.0375 9.53662 47.5516 8.35929 46.686 7.4893ZM18.9872 2.27539H29.5819V4.20936H18.9872V2.27539ZM23.3176 5.74061H25.2516V8.64998C24.9285 8.63467 24.61 8.60098 24.2838 8.60098C23.9577 8.60098 23.6407 8.63467 23.3176 8.64998V5.74061ZM4.01925 13.5806L3.39756 12.9681C2.81651 12.3857 2.4902 11.5965 2.4902 10.7738C2.4902 9.95111 2.81651 9.16199 3.39756 8.57955L4.3454 7.63323C4.6335 7.34497 4.97557 7.1163 5.35208 6.96029C5.72858 6.80427 6.13213 6.72397 6.53968 6.72397C6.94723 6.72397 7.35078 6.80427 7.72729 6.96029C8.10379 7.1163 8.44587 7.34497 8.73396 7.63323L9.35412 8.24573L4.01925 13.5806ZM7.08175 12.6802L8.44915 11.3128L10.9466 13.8088C10.4689 14.2436 10.0146 14.703 9.58381 15.1869L7.08175 12.6802ZM8.45221 46.3968L7.08481 45.0294L9.99418 42.12C10.4413 42.5855 10.9094 43.0291 11.3983 43.4507L8.45221 46.3968ZM41.9162 45.0294L40.5487 46.3968L37.4005 43.2486C37.8823 42.8198 38.3417 42.3696 38.7786 41.898L41.9162 45.0294ZM24.2884 46.7138C20.6716 46.7138 17.1359 45.6413 14.1286 43.632C11.1213 41.6226 8.77729 38.7667 7.39305 35.4252C6.0088 32.0837 5.64647 28.4068 6.35185 24.8594C7.05724 21.3121 8.79867 18.0535 11.3559 15.4958C13.9132 12.9381 17.1715 11.1961 20.7188 10.4901C24.266 9.78414 27.943 10.1459 31.2847 11.5296C34.6264 12.9132 37.4827 15.2567 39.4926 18.2637C41.5024 21.2707 42.5755 24.8062 42.5761 28.423C42.5709 33.2716 40.6424 37.9201 37.214 41.3486C33.7855 44.777 29.137 46.7055 24.2884 46.7107V46.7138ZM39.1997 15.4013C38.774 14.9153 38.3264 14.4519 37.8568 14.0109L40.5549 11.3128L41.9223 12.6802L39.1997 15.4013ZM45.6095 12.9605L44.9878 13.573L39.6468 8.24573L40.267 7.63323C40.8584 7.0687 41.6445 6.75371 42.462 6.75371C43.2796 6.75371 44.0657 7.0687 44.6571 7.63323L45.6034 8.57955C46.1821 9.16167 46.507 9.94916 46.507 10.77C46.507 11.5908 46.1821 12.3783 45.6034 12.9605H45.6095Z" fill="black"/>
<path d="M25.0537 28.1061V19.1207C25.0537 18.9177 24.973 18.7229 24.8295 18.5793C24.6859 18.4358 24.4911 18.3551 24.2881 18.3551C24.085 18.3551 23.8903 18.4358 23.7467 18.5793C23.6031 18.7229 23.5225 18.9177 23.5225 19.1207V28.4231C23.5229 28.626 23.6039 28.8204 23.7476 28.9636L28.5909 33.8069C28.7353 33.9464 28.9287 34.0236 29.1294 34.0218C29.3302 34.0201 29.5222 33.9396 29.6642 33.7976C29.8061 33.6557 29.8866 33.4636 29.8884 33.2629C29.8901 33.0621 29.813 32.8688 29.6735 32.7244L25.0537 28.1061Z" fill="black"/>
<path d="M24.2881 17.0351C24.3886 17.0351 24.4882 17.0153 24.5811 16.9768C24.674 16.9384 24.7584 16.882 24.8295 16.8109C24.9006 16.7398 24.957 16.6554 24.9954 16.5625C25.0339 16.4696 25.0537 16.37 25.0537 16.2695V15.7412C25.0537 15.5382 24.973 15.3434 24.8295 15.1998C24.6859 15.0563 24.4911 14.9756 24.2881 14.9756C24.085 14.9756 23.8903 15.0563 23.7467 15.1998C23.6031 15.3434 23.5225 15.5382 23.5225 15.7412V16.2695C23.5225 16.4725 23.6031 16.6673 23.7467 16.8109C23.8903 16.9545 24.085 17.0351 24.2881 17.0351Z" fill="black"/>
<path d="M24.2881 39.912C24.085 39.912 23.8903 39.9927 23.7467 40.1362C23.6031 40.2798 23.5225 40.4746 23.5225 40.6776V41.2059C23.5225 41.4089 23.6031 41.6037 23.7467 41.7473C23.8903 41.8909 24.085 41.9715 24.2881 41.9715C24.4911 41.9715 24.6859 41.8909 24.8295 41.7473C24.973 41.6037 25.0537 41.4089 25.0537 41.2059V40.6776C25.0537 40.4746 24.973 40.2798 24.8295 40.1362C24.6859 39.9927 24.4911 39.912 24.2881 39.912Z" fill="black"/>
<path d="M36.4941 29.2468H37.0209C37.2239 29.2468 37.4187 29.1662 37.5623 29.0226C37.7059 28.879 37.7865 28.6843 37.7865 28.4812C37.7865 28.2781 37.7059 28.0834 37.5623 27.9398C37.4187 27.7962 37.2239 27.7156 37.0209 27.7156H36.4941C36.2911 27.7156 36.0963 27.7962 35.9528 27.9398C35.8092 28.0834 35.7285 28.2781 35.7285 28.4812C35.7285 28.6843 35.8092 28.879 35.9528 29.0226C36.0963 29.1662 36.2911 29.2468 36.4941 29.2468Z" fill="black"/>
<path d="M12.0859 27.7156H11.5576C11.3546 27.7156 11.1598 27.7962 11.0162 27.9398C10.8727 28.0834 10.792 28.2781 10.792 28.4812C10.792 28.6843 10.8727 28.879 11.0162 29.0226C11.1598 29.1662 11.3546 29.2468 11.5576 29.2468H12.0859C12.289 29.2468 12.4837 29.1662 12.6273 29.0226C12.7709 28.879 12.8515 28.6843 12.8515 28.4812C12.8515 28.2781 12.7709 28.0834 12.6273 27.9398C12.4837 27.7962 12.289 27.7156 12.0859 27.7156Z" fill="black"/>
</g>
<defs>
<clipPath id="clip0_4_1149">
<rect width="49" height="49" fill="white"/>
</clipPath>
</defs>
</svg>
