<svg width="48" height="48" viewBox="0 0 48 48" fill="none" xmlns="http://www.w3.org/2000/svg">
<g clip-path="url(#clip0_4_1174)">
<path d="M26.2441 29.2506L29.2434 26.2514L35.9921 33.0001L32.9929 35.9994L26.2441 29.2506Z" fill="#F6F6F6"/>
<path d="M26.2441 29.2505L27.7441 27.7505L34.4928 34.4993L32.9929 35.9992L26.2441 29.2505Z" fill="#DCDCDC"/>
<path d="M32.469 36.5306L25.719 29.7806C25.6493 29.7109 25.5939 29.6282 25.5562 29.5372C25.5184 29.4461 25.499 29.3485 25.499 29.25C25.499 29.1514 25.5184 29.0538 25.5562 28.9628C25.5939 28.8717 25.6493 28.789 25.719 28.7194L28.719 25.7194C28.7886 25.6496 28.8714 25.5943 28.9624 25.5566C29.0535 25.5188 29.1511 25.4994 29.2496 25.4994C29.3482 25.4994 29.4458 25.5188 29.5368 25.5566C29.6279 25.5943 29.7106 25.6496 29.7802 25.7194L36.5302 32.4694C36.6 32.539 36.6553 32.6217 36.693 32.7128C36.7308 32.8038 36.7502 32.9014 36.7502 33C36.7502 33.0985 36.7308 33.1961 36.693 33.2872C36.6553 33.3782 36.6 33.4609 36.5302 33.5306L33.5302 36.5306C33.4606 36.6003 33.3779 36.6557 33.2868 36.6934C33.1958 36.7311 33.0982 36.7506 32.9996 36.7506C32.9011 36.7506 32.8035 36.7311 32.7124 36.6934C32.6214 36.6557 32.5386 36.6003 32.469 36.5306ZM27.3127 29.25L32.9996 34.9397L34.9393 33L29.2496 27.3103L27.3127 29.25Z" fill="black"/>
<path d="M18.75 36.75C28.6911 36.75 36.75 28.6911 36.75 18.75C36.75 8.80887 28.6911 0.75 18.75 0.75C8.80887 0.75 0.75 8.80887 0.75 18.75C0.75 28.6911 8.80887 36.75 18.75 36.75Z" fill="#596060"/>
<path d="M18.7505 34.5C9.18795 34.5 1.36733 27.0422 0.786078 17.625C0.142016 28.0781 8.44545 36.75 18.7505 36.75C29.0555 36.75 37.3589 28.0688 36.7148 17.625C36.1336 27.0422 28.313 34.5 18.7505 34.5Z" fill="#4C5657"/>
<path d="M18.7503 37.5C16.6214 37.5025 14.5076 37.1417 12.5 36.4331C12.3124 36.3667 12.1589 36.2285 12.0732 36.0489C11.9875 35.8693 11.9766 35.663 12.043 35.4754C12.1094 35.2878 12.2476 35.1343 12.4272 35.0486C12.6068 34.9629 12.813 34.952 13.0006 35.0184C14.8473 35.6706 16.7919 36.0026 18.7503 36C28.2622 36 36.0003 28.2618 36.0003 18.75C36.003 16.7915 35.671 14.847 35.0188 13.0003C34.9524 12.8127 34.9632 12.6064 35.0489 12.4268C35.1347 12.2472 35.2882 12.109 35.4758 12.0426C35.6634 11.9762 35.8697 11.9871 36.0493 12.0728C36.2289 12.1585 36.3671 12.3121 36.4335 12.4996C37.142 14.5072 37.5028 16.621 37.5003 18.75C37.5003 29.0887 29.0891 37.5 18.7503 37.5Z" fill="black"/>
<path d="M9.66562 35.1562C6.73793 33.5319 4.29789 31.1542 2.59839 28.2695C0.898885 25.3848 0.00176436 22.0981 0 18.75C0 8.41125 8.41125 2.8584e-07 18.75 2.8584e-07C22.0419 -0.000574433 25.2759 0.865521 28.1269 2.51121C30.9778 4.15689 33.3453 6.52416 34.9912 9.375C35.0845 9.5468 35.1071 9.74823 35.054 9.93639C35.001 10.1245 34.8766 10.2846 34.7073 10.3823C34.538 10.4801 34.3372 10.5079 34.1477 10.4599C33.9582 10.4118 33.795 10.2916 33.6928 10.125C32.1785 7.5021 30.0003 5.32413 27.3772 3.81009C24.7541 2.29606 21.7787 1.49932 18.75 1.5C9.23812 1.5 1.5 9.23812 1.5 18.75C1.5018 21.8303 2.3273 24.8541 3.89097 27.508C5.45463 30.1619 7.69957 32.3494 10.3931 33.8438C10.5672 33.9402 10.6958 34.1019 10.7506 34.2932C10.8055 34.4845 10.7821 34.6897 10.6856 34.8638C10.5892 35.0378 10.4275 35.1664 10.2362 35.2212C10.0449 35.2761 9.83967 35.2527 9.66562 35.1562Z" fill="black"/>
<path d="M18.75 33C26.6201 33 33 26.6201 33 18.75C33 10.8799 26.6201 4.5 18.75 4.5C10.8799 4.5 4.5 10.8799 4.5 18.75C4.5 26.6201 10.8799 33 18.75 33Z" fill="#A8EDFD"/>
<path d="M18.7503 6.75C22.335 6.7499 25.788 8.10081 28.4209 10.5334C31.0538 12.966 32.6732 16.3015 32.9562 19.875C33.1115 17.915 32.8594 15.944 32.2159 14.0861C31.5724 12.2282 30.5514 10.5236 29.217 9.0795C27.8827 7.63538 26.264 6.48302 24.4627 5.6949C22.6614 4.90677 20.7165 4.49994 18.7503 4.5C10.4637 4.5 3.89468 11.5538 4.54437 19.875C4.82737 16.3015 6.44677 12.966 9.0797 10.5334C11.7126 8.10081 15.1656 6.7499 18.7503 6.75Z" fill="#8BD4DE"/>
<path d="M18.75 33.75C10.4794 33.75 3.75 27.0206 3.75 18.75C3.75 10.4794 10.4794 3.75 18.75 3.75C27.0206 3.75 33.75 10.4794 33.75 18.75C33.75 27.0206 27.0206 33.75 18.75 33.75ZM18.75 5.25C11.3062 5.25 5.25 11.3062 5.25 18.75C5.25 26.1938 11.3062 32.25 18.75 32.25C26.1938 32.25 32.25 26.1938 32.25 18.75C32.25 11.3062 26.1938 5.25 18.75 5.25Z" fill="black"/>
<path d="M18.75 37.5C18.5511 37.5 18.3603 37.421 18.2197 37.2803C18.079 37.1397 18 36.9489 18 36.75V18.75C18 18.5511 18.079 18.3603 18.2197 18.2197C18.3603 18.079 18.5511 18 18.75 18H36.75C36.9489 18 37.1397 18.079 37.2803 18.2197C37.421 18.3603 37.5 18.5511 37.5 18.75C37.5 18.9489 37.421 19.1397 37.2803 19.2803C37.1397 19.421 36.9489 19.5 36.75 19.5H19.5V36.75C19.5 36.9489 19.421 37.1397 19.2803 37.2803C19.1397 37.421 18.9489 37.5 18.75 37.5Z" fill="black"/>
<path d="M18.75 28.5C24.1348 28.5 28.5 24.1348 28.5 18.75C28.5 13.3652 24.1348 9 18.75 9C13.3652 9 9 13.3652 9 18.75C9 24.1348 13.3652 28.5 18.75 28.5Z" fill="#EAF2FF"/>
<path d="M18.75 26.25C16.3589 26.2501 14.0511 25.3715 12.2654 23.7813C10.4797 22.1911 9.34059 20.0002 9.06469 17.625C8.90656 18.9909 9.03913 20.3748 9.45368 21.6858C9.86824 22.9968 10.5554 24.2054 11.4701 25.232C12.3847 26.2587 13.5062 27.0803 14.7609 27.6429C16.0155 28.2054 17.375 28.4963 18.75 28.4963C20.125 28.4963 21.4845 28.2054 22.7391 27.6429C23.9938 27.0803 25.1153 26.2587 26.0299 25.232C26.9446 24.2054 27.6318 22.9968 28.0463 21.6858C28.4609 20.3748 28.5934 18.9909 28.4353 17.625C28.1594 20.0002 27.0203 22.1911 25.2346 23.7813C23.4489 25.3715 21.1411 26.2501 18.75 26.25Z" fill="#C1D1F7"/>
<path d="M18.75 29.25C16.6733 29.25 14.6432 28.6342 12.9165 27.4804C11.1898 26.3267 9.84399 24.6868 9.04927 22.7682C8.25455 20.8496 8.04661 18.7384 8.45176 16.7016C8.8569 14.6648 9.85693 12.7938 11.3254 11.3254C12.7938 9.85693 14.6648 8.8569 16.7016 8.45176C18.7384 8.04661 20.8496 8.25455 22.7682 9.04927C24.6868 9.84399 26.3267 11.1898 27.4804 12.9165C28.6342 14.6432 29.25 16.6733 29.25 18.75C29.247 21.5339 28.1398 24.2029 26.1713 26.1713C24.2029 28.1398 21.5339 29.247 18.75 29.25ZM18.75 9.75001C16.97 9.75001 15.2299 10.2778 13.7499 11.2668C12.2698 12.2557 11.1163 13.6613 10.4351 15.3059C9.7539 16.9504 9.57567 18.76 9.92294 20.5058C10.2702 22.2516 11.1274 23.8553 12.386 25.114C13.6447 26.3726 15.2484 27.2298 16.9942 27.5771C18.74 27.9243 20.5496 27.7461 22.1942 27.0649C23.8387 26.3837 25.2443 25.2302 26.2332 23.7501C27.2222 22.2701 27.75 20.53 27.75 18.75C27.7473 16.3639 26.7982 14.0763 25.111 12.3891C23.4237 10.7018 21.1361 9.75273 18.75 9.75001Z" fill="black"/>
<path d="M36.75 32.25L32.25 36.75L41.8181 46.3181C42.4149 46.9149 43.2242 47.2501 44.0681 47.2501C44.912 47.2501 45.7214 46.9149 46.3181 46.3181C46.9149 45.7214 47.2501 44.912 47.2501 44.0681C47.2501 43.2242 46.9149 42.4149 46.3181 41.8181L36.75 32.25Z" fill="#E38343"/>
<path d="M43.3181 44.8181L33.75 35.25L32.25 36.75L41.8181 46.3181C42.1786 46.677 42.6198 46.9443 43.1047 47.0978C43.5896 47.2513 44.1043 47.2866 44.6056 47.2006C45.1069 47.1146 45.5804 46.9099 45.9865 46.6035C46.3925 46.2972 46.7194 45.8981 46.9397 45.4397C46.3457 45.7225 45.6787 45.8146 45.0303 45.7033C44.3819 45.592 43.7838 45.2828 43.3181 44.8181Z" fill="#DF6117"/>
<path d="M44.0677 48C43.5512 48.0014 43.0394 47.9004 42.5621 47.7028C42.0849 47.5052 41.6515 47.2149 41.2871 46.8487L31.719 37.2806C31.6493 37.2109 31.5939 37.1282 31.5562 37.0372C31.5184 36.9461 31.499 36.8485 31.499 36.75C31.499 36.6514 31.5184 36.5538 31.5562 36.4628C31.5939 36.3717 31.6493 36.289 31.719 36.2194L36.219 31.7194C36.2886 31.6496 36.3714 31.5943 36.4624 31.5566C36.5535 31.5188 36.6511 31.4994 36.7496 31.4994C36.8482 31.4994 36.9458 31.5188 37.0368 31.5566C37.1279 31.5943 37.2106 31.6496 37.2802 31.7194L46.8484 41.2875C47.3979 41.8375 47.7721 42.5382 47.9236 43.3008C48.0752 44.0635 47.9972 44.8539 47.6996 45.5723C47.402 46.2907 46.8982 46.9047 46.2518 47.3368C45.6053 47.7689 44.8453 47.9997 44.0677 48ZM33.3099 36.75L42.3484 45.7875C42.8045 46.2435 43.4231 46.4996 44.0681 46.4995C44.3874 46.4995 44.7037 46.4365 44.9987 46.3143C45.2937 46.192 45.5618 46.0129 45.7876 45.787C46.0134 45.5612 46.1925 45.293 46.3146 44.998C46.4368 44.7029 46.4997 44.3867 46.4996 44.0673C46.4996 43.7479 46.4366 43.4317 46.3144 43.1367C46.1921 42.8416 46.013 42.5736 45.7871 42.3478L36.7496 33.3103L33.3099 36.75Z" fill="black"/>
<path d="M26.1559 25.0856C25.2406 26.156 24.1043 27.0153 22.8251 27.6045C21.5459 28.1938 20.1543 28.4989 18.7459 28.4989C17.3376 28.4989 15.9459 28.1938 14.6668 27.6045C13.3876 27.0153 12.2513 26.156 11.3359 25.0856C11.6122 23.3187 12.5106 21.7087 13.8694 20.5459C15.2281 19.383 16.9576 18.744 18.7459 18.744C20.5343 18.744 22.2638 19.383 23.6225 20.5459C24.9812 21.7087 25.8797 23.3187 26.1559 25.0856Z" fill="#E9A648"/>
<path d="M11.8273 23.3644C11.596 23.9164 11.4323 24.4943 11.3398 25.0856C12.2552 26.156 13.3915 27.0153 14.6707 27.6046C15.9498 28.1938 17.3415 28.4989 18.7498 28.4989C20.1582 28.4989 21.5498 28.1938 22.829 27.6046C24.1082 27.0153 25.2445 26.156 26.1598 25.0856C26.0674 24.4943 25.9037 23.9164 25.6723 23.3644C24.766 24.2782 23.6876 25.0036 22.4995 25.4986C21.3113 25.9936 20.037 26.2484 18.7498 26.2484C17.4627 26.2484 16.1883 25.9936 15.0002 25.4986C13.8121 25.0036 12.7337 24.2782 11.8273 23.3644Z" fill="#D08840"/>
<path d="M10.7704 25.5731C10.7002 25.4909 10.6486 25.3944 10.6192 25.2904C10.5897 25.1863 10.5831 25.0771 10.5998 24.9703C10.9042 23.0272 11.8927 21.2568 13.3871 19.9782C14.8816 18.6996 16.7837 17.9969 18.7504 17.9969C20.7172 17.9969 22.6193 18.6996 24.1138 19.9782C25.6082 21.2568 26.5967 23.0272 26.9011 24.9703C26.9178 25.0771 26.9112 25.1863 26.8817 25.2904C26.8523 25.3944 26.8007 25.4909 26.7304 25.5731C22.5436 30.4687 14.9658 30.4791 10.7704 25.5731ZM12.1439 24.8606C12.9865 25.7715 14.0084 26.4982 15.1453 26.9953C16.2822 27.4923 17.5096 27.7489 18.7504 27.7489C19.9913 27.7489 21.2187 27.4923 22.3556 26.9953C23.4925 26.4982 24.5144 25.7715 25.357 24.8606C25.0392 23.3437 24.209 21.9823 23.006 21.0052C21.803 20.0281 20.3003 19.4948 18.7504 19.4948C17.2006 19.4948 15.6979 20.0281 14.4949 21.0052C13.2918 21.9823 12.4617 23.3437 12.1439 24.8606Z" fill="black"/>
<path d="M18.75 20.25C20.8211 20.25 22.5 18.5711 22.5 16.5C22.5 14.4289 20.8211 12.75 18.75 12.75C16.6789 12.75 15 14.4289 15 16.5C15 18.5711 16.6789 20.25 18.75 20.25Z" fill="#E9A648"/>
<path d="M18.75 21C17.86 21 16.99 20.7361 16.2499 20.2416C15.5099 19.7471 14.9331 19.0443 14.5925 18.2221C14.2519 17.3998 14.1628 16.495 14.3365 15.6221C14.5101 14.7492 14.9387 13.9474 15.568 13.318C16.1974 12.6887 16.9992 12.2601 17.8721 12.0865C18.745 11.9128 19.6498 12.0019 20.4721 12.3425C21.2943 12.6831 21.9971 13.2599 22.4916 13.9999C22.9861 14.74 23.25 15.61 23.25 16.5C23.2488 17.6931 22.7743 18.837 21.9306 19.6806C21.087 20.5243 19.9431 20.9988 18.75 21ZM18.75 13.5C18.1567 13.5 17.5766 13.6759 17.0833 14.0056C16.5899 14.3352 16.2054 14.8038 15.9784 15.352C15.7513 15.9001 15.6919 16.5033 15.8076 17.0853C15.9234 17.6672 16.2091 18.2018 16.6287 18.6213C17.0482 19.0409 17.5828 19.3266 18.1647 19.4424C18.7467 19.5581 19.3499 19.4987 19.8981 19.2716C20.4462 19.0446 20.9148 18.6601 21.2444 18.1667C21.5741 17.6734 21.75 17.0933 21.75 16.5C21.75 15.7044 21.4339 14.9413 20.8713 14.3787C20.3087 13.8161 19.5457 13.5 18.75 13.5Z" fill="black"/>
<path d="M39.75 26.25C43.8921 26.25 47.25 22.8921 47.25 18.75C47.25 14.6079 43.8921 11.25 39.75 11.25C35.6079 11.25 32.25 14.6079 32.25 18.75C32.25 22.8921 35.6079 26.25 39.75 26.25Z" fill="#EAF2FF"/>
<path d="M39.75 24C37.9557 24.0001 36.2209 23.357 34.8603 22.1873C33.4997 21.0176 32.6035 19.399 32.3344 17.625C32.1729 18.6926 32.2438 19.7825 32.5423 20.8202C32.8408 21.8578 33.3598 22.8188 34.0639 23.6374C34.768 24.4561 35.6405 25.113 36.6219 25.5633C37.6032 26.0137 38.6702 26.2468 39.75 26.2468C40.8298 26.2468 41.8968 26.0137 42.8781 25.5633C43.8595 25.113 44.732 24.4561 45.4361 23.6374C46.1402 22.8188 46.6592 21.8578 46.9577 20.8202C47.2562 19.7825 47.3271 18.6926 47.1656 17.625C46.8965 19.399 46.0003 21.0176 44.6397 22.1873C43.2791 23.357 41.5443 24.0001 39.75 24Z" fill="#C1D1F7"/>
<path d="M39.75 27C38.1183 27 36.5233 26.5161 35.1666 25.6096C33.8098 24.7031 32.7524 23.4146 32.128 21.9071C31.5036 20.3997 31.3402 18.7409 31.6585 17.1405C31.9769 15.5402 32.7626 14.0702 33.9164 12.9164C35.0702 11.7626 36.5402 10.9769 38.1405 10.6585C39.7409 10.3402 41.3997 10.5036 42.9071 11.128C44.4146 11.7524 45.7031 12.8098 46.6096 14.1665C47.5161 15.5233 48 17.1183 48 18.75C47.9975 20.9373 47.1275 23.0343 45.5809 24.5809C44.0343 26.1275 41.9373 26.9975 39.75 27ZM39.75 12C38.415 12 37.1099 12.3959 35.9999 13.1376C34.8899 13.8793 34.0247 14.9335 33.5138 16.1669C33.0029 17.4003 32.8693 18.7575 33.1297 20.0669C33.3902 21.3762 34.033 22.579 34.977 23.523C35.921 24.467 37.1238 25.1099 38.4331 25.3703C39.7425 25.6308 41.0997 25.4971 42.3331 24.9862C43.5665 24.4753 44.6207 23.6101 45.3624 22.5001C46.1041 21.3901 46.5 20.085 46.5 18.75C46.498 16.9604 45.7862 15.2447 44.5208 13.9792C43.2553 12.7138 41.5396 12.002 39.75 12Z" fill="black"/>
<path d="M18.75 48C17.1183 48 15.5233 47.5161 14.1665 46.6096C12.8098 45.7031 11.7524 44.4146 11.128 42.9071C10.5036 41.3997 10.3402 39.7409 10.6585 38.1405C10.9769 36.5402 11.7626 35.0702 12.9164 33.9164C14.0702 32.7626 15.5402 31.9769 17.1405 31.6585C18.7409 31.3402 20.3997 31.5036 21.9071 32.128C23.4146 32.7524 24.7031 33.8098 25.6096 35.1666C26.5161 36.5233 27 38.1183 27 39.75C26.9975 41.9373 26.1275 44.0343 24.5809 45.5809C23.0343 47.1275 20.9373 47.9975 18.75 48ZM18.75 33C17.415 33 16.1099 33.3959 14.9999 34.1376C13.8899 34.8793 13.0247 35.9335 12.5138 37.1669C12.0029 38.4003 11.8693 39.7575 12.1297 41.0669C12.3902 42.3762 13.033 43.579 13.977 44.523C14.921 45.467 16.1238 46.1099 17.4331 46.3703C18.7425 46.6308 20.0997 46.4971 21.3331 45.9862C22.5665 45.4753 23.6207 44.6101 24.3624 43.5001C25.1041 42.3901 25.5 41.085 25.5 39.75C25.498 37.9604 24.7862 36.2447 23.5208 34.9792C22.2553 33.7138 20.5396 33.002 18.75 33Z" fill="black"/>
<path d="M18.75 47.25C22.8921 47.25 26.25 43.8921 26.25 39.75C26.25 35.6079 22.8921 32.25 18.75 32.25C14.6079 32.25 11.25 35.6079 11.25 39.75C11.25 43.8921 14.6079 47.25 18.75 47.25Z" fill="#EAF2FF"/>
<path d="M18.75 47.25C22.8921 47.25 26.25 43.8921 26.25 39.75C26.25 35.6079 22.8921 32.25 18.75 32.25C14.6079 32.25 11.25 35.6079 11.25 39.75C11.25 43.8921 14.6079 47.25 18.75 47.25Z" fill="#EAF2FF"/>
<path d="M24 42.8569C23.0138 43.8237 21.7798 44.4994 20.434 44.8096C19.0882 45.1197 17.6828 45.0522 16.373 44.6145C15.0631 44.1769 13.8994 43.386 13.0104 42.3292C12.1213 41.2723 11.5414 39.9905 11.3344 38.625C10.6519 43.1541 14.1469 47.25 18.75 47.25C19.8301 47.2501 20.8974 47.0169 21.879 46.5663C22.8606 46.1158 23.7334 45.4586 24.4375 44.6396C25.1416 43.8206 25.6606 42.8592 25.9589 41.8211C26.2571 40.7831 26.3277 39.6928 26.1657 38.625C25.9232 40.2336 25.1629 41.7193 24 42.8569Z" fill="#C1D1F7"/>
<path d="M18.75 48C17.1183 48 15.5233 47.5161 14.1665 46.6096C12.8098 45.7031 11.7524 44.4146 11.128 42.9071C10.5036 41.3997 10.3402 39.7409 10.6585 38.1405C10.9769 36.5402 11.7626 35.0702 12.9164 33.9164C14.0702 32.7626 15.5402 31.9769 17.1405 31.6585C18.7409 31.3402 20.3997 31.5036 21.9071 32.128C23.4146 32.7524 24.7031 33.8098 25.6096 35.1666C26.5161 36.5233 27 38.1183 27 39.75C26.9975 41.9373 26.1275 44.0343 24.5809 45.5809C23.0343 47.1275 20.9373 47.9975 18.75 48ZM18.75 33C17.415 33 16.1099 33.3959 14.9999 34.1376C13.8899 34.8793 13.0247 35.9335 12.5138 37.1669C12.0029 38.4003 11.8693 39.7575 12.1297 41.0669C12.3902 42.3762 13.033 43.579 13.977 44.523C14.921 45.467 16.1238 46.1099 17.4331 46.3703C18.7425 46.6308 20.0997 46.4971 21.3331 45.9862C22.5665 45.4753 23.6207 44.6101 24.3624 43.5001C25.1041 42.3901 25.5 41.085 25.5 39.75C25.498 37.9604 24.7862 36.2447 23.5208 34.9792C22.2553 33.7138 20.5396 33.002 18.75 33Z" fill="black"/>
<path d="M24 45V45.1069C22.598 46.4811 20.7131 47.2508 18.75 47.2508C16.7869 47.2508 14.902 46.4811 13.5 45.1069C13.5 45.0713 13.5 45.0356 13.5 45C13.5 43.6076 14.0531 42.2723 15.0377 41.2877C16.0223 40.3031 17.3576 39.75 18.75 39.75C20.1424 39.75 21.4777 40.3031 22.4623 41.2877C23.4469 42.2723 24 43.6076 24 45Z" fill="#6FC3E2"/>
<path d="M13.8319 43.1597C13.612 43.7483 13.4996 44.3716 13.5 45V45.1069C14.902 46.4811 16.7869 47.2508 18.75 47.2508C20.7131 47.2508 22.598 46.4811 24 45.1069C24 45.0712 24 45.0356 24 45C24.0004 44.3716 23.888 43.7483 23.6681 43.1597C22.3046 44.3466 20.5578 45.0004 18.75 45.0004C16.9422 45.0004 15.1954 44.3466 13.8319 43.1597Z" fill="#62ACC7"/>
<path d="M12.977 45.6422C12.8428 45.5108 12.7629 45.3338 12.7529 45.1462C12.7529 45.0975 12.7529 45.0525 12.7529 45C12.7529 43.4087 13.3851 41.8826 14.5103 40.7574C15.6355 39.6321 17.1616 39 18.7529 39C20.3442 39 21.8704 39.6321 22.9956 40.7574C24.1208 41.8826 24.7529 43.4087 24.7529 45V45.1462C24.743 45.3338 24.663 45.5108 24.5289 45.6422C22.9876 47.1562 20.9134 48.0044 18.7529 48.0044C16.5924 48.0044 14.5183 47.1562 12.977 45.6422ZM14.2548 44.7853C15.4918 45.8896 17.0919 46.5 18.7501 46.5C20.4083 46.5 22.0085 45.8896 23.2454 44.7853C23.1926 43.6286 22.6959 42.5368 21.8587 41.7369C21.0214 40.937 19.908 40.4907 18.7501 40.4907C17.5922 40.4907 16.4788 40.937 15.6416 41.7369C14.8043 42.5368 14.3076 43.6286 14.2548 44.7853Z" fill="black"/>
<path d="M18.75 41.25C20.4069 41.25 21.75 39.9069 21.75 38.25C21.75 36.5931 20.4069 35.25 18.75 35.25C17.0931 35.25 15.75 36.5931 15.75 38.25C15.75 39.9069 17.0931 41.25 18.75 41.25Z" fill="#6FC3E2"/>
<path d="M18.75 42C18.0083 42 17.2833 41.7801 16.6666 41.368C16.0499 40.956 15.5693 40.3703 15.2855 39.6851C15.0016 38.9998 14.9274 38.2458 15.0721 37.5184C15.2168 36.791 15.5739 36.1228 16.0984 35.5984C16.6228 35.0739 17.291 34.7168 18.0184 34.5721C18.7458 34.4274 19.4998 34.5016 20.1851 34.7855C20.8703 35.0693 21.456 35.5499 21.868 36.1666C22.2801 36.7833 22.5 37.5083 22.5 38.25C22.5 39.2446 22.1049 40.1984 21.4017 40.9017C20.6984 41.6049 19.7446 42 18.75 42ZM18.75 36C18.305 36 17.87 36.132 17.5 36.3792C17.13 36.6264 16.8416 36.9778 16.6713 37.389C16.501 37.8001 16.4564 38.2525 16.5432 38.689C16.6301 39.1254 16.8443 39.5263 17.159 39.841C17.4737 40.1557 17.8746 40.37 18.311 40.4568C18.7475 40.5436 19.1999 40.499 19.611 40.3287C20.0222 40.1584 20.3736 39.87 20.6208 39.5C20.868 39.13 21 38.695 21 38.25C21 37.6533 20.7629 37.081 20.341 36.659C19.919 36.2371 19.3467 36 18.75 36Z" fill="black"/>
<path d="M45 24V24.1069C43.598 25.4811 41.7131 26.2508 39.75 26.2508C37.7869 26.2508 35.902 25.4811 34.5 24.1069C34.5 24.0713 34.5 24.0356 34.5 24C34.5 22.6076 35.0531 21.2723 36.0377 20.2877C37.0223 19.3031 38.3576 18.75 39.75 18.75C41.1424 18.75 42.4777 19.3031 43.4623 20.2877C44.4469 21.2723 45 22.6076 45 24Z" fill="#6FC3E2"/>
<path d="M34.8319 22.1597C34.612 22.7483 34.4996 23.3716 34.5 24V24.1069C35.902 25.4811 37.7869 26.2508 39.75 26.2508C41.7131 26.2508 43.598 25.4811 45 24.1069C45 24.0712 45 24.0356 45 24C45.0004 23.3716 44.888 22.7483 44.6681 22.1597C43.3046 23.3466 41.5578 24.0004 39.75 24.0004C37.9422 24.0004 36.1954 23.3466 34.8319 22.1597Z" fill="#62ACC7"/>
<path d="M33.977 24.6422C33.8428 24.5108 33.7629 24.3338 33.7529 24.1462C33.7529 24.0975 33.7529 24.0525 33.7529 24C33.7529 22.4087 34.3851 20.8826 35.5103 19.7574C36.6355 18.6321 38.1616 18 39.7529 18C41.3442 18 42.8704 18.6321 43.9956 19.7574C45.1208 20.8826 45.7529 22.4087 45.7529 24V24.1462C45.743 24.3338 45.663 24.5108 45.5289 24.6422C43.9876 26.1562 41.9134 27.0044 39.7529 27.0044C37.5924 27.0044 35.5183 26.1562 33.977 24.6422ZM35.2548 23.7853C36.4918 24.8896 38.0919 25.5 39.7501 25.5C41.4083 25.5 43.0085 24.8896 44.2454 23.7853C44.1926 22.6286 43.6959 21.5368 42.8587 20.7369C42.0214 19.937 40.908 19.4907 39.7501 19.4907C38.5922 19.4907 37.4788 19.937 36.6416 20.7369C35.8043 21.5368 35.3076 22.6286 35.2548 23.7853Z" fill="black"/>
<path d="M39.75 20.25C41.4069 20.25 42.75 18.9069 42.75 17.25C42.75 15.5931 41.4069 14.25 39.75 14.25C38.0931 14.25 36.75 15.5931 36.75 17.25C36.75 18.9069 38.0931 20.25 39.75 20.25Z" fill="#6FC3E2"/>
<path d="M39.75 21C39.0083 21 38.2833 20.7801 37.6666 20.368C37.0499 19.956 36.5693 19.3703 36.2855 18.6851C36.0016 17.9998 35.9274 17.2458 36.0721 16.5184C36.2168 15.791 36.5739 15.1228 37.0984 14.5984C37.6228 14.0739 38.291 13.7168 39.0184 13.5721C39.7458 13.4274 40.4998 13.5016 41.1851 13.7855C41.8703 14.0693 42.456 14.5499 42.868 15.1666C43.2801 15.7833 43.5 16.5083 43.5 17.25C43.5 18.2446 43.1049 19.1984 42.4017 19.9017C41.6984 20.6049 40.7446 21 39.75 21ZM39.75 15C39.305 15 38.87 15.132 38.5 15.3792C38.13 15.6264 37.8416 15.9778 37.6713 16.389C37.501 16.8001 37.4564 17.2525 37.5432 17.689C37.6301 18.1254 37.8443 18.5263 38.159 18.841C38.4737 19.1557 38.8746 19.37 39.311 19.4568C39.7475 19.5436 40.1999 19.499 40.611 19.3287C41.0222 19.1584 41.3736 18.87 41.6208 18.5C41.868 18.13 42 17.695 42 17.25C42 16.6533 41.7629 16.081 41.341 15.659C40.919 15.2371 40.3467 15 39.75 15Z" fill="black"/>
</g>
<defs>
<clipPath id="clip0_4_1174">
<rect width="48" height="48" fill="white"/>
</clipPath>
</defs>
</svg>
