<svg width="48" height="49" viewBox="0 0 48 49" fill="none" xmlns="http://www.w3.org/2000/svg">
<path fill-rule="evenodd" clip-rule="evenodd" d="M35.336 38.7769C39.9447 38.9447 43.82 35.3512 44 30.7429V18.8109C43.82 14.2026 39.9447 10.6091 35.336 10.7769H12.664C8.05527 10.6091 4.17996 14.2026 4 18.8109V30.7429C4.17996 35.3512 8.05527 38.9447 12.664 38.7769H35.336Z" stroke="#01C6A5" stroke-width="2.5" stroke-linecap="round" stroke-linejoin="round"/>
<path fill-rule="evenodd" clip-rule="evenodd" d="M23.016 19.1269L29.338 23.4229C29.7476 23.6621 29.9994 24.1007 29.9994 24.5749C29.9994 25.0492 29.7476 25.4878 29.338 25.7269L23.016 30.4269C21.816 31.2409 20 30.5469 20 29.2749V20.2749C20 19.0089 21.818 18.3129 23.016 19.1269Z" stroke="#01C6A5" stroke-width="2.5" stroke-linecap="round" stroke-linejoin="round"/>
</svg>
