<svg width="22" height="16" viewBox="0 0 22 16" fill="none" xmlns="http://www.w3.org/2000/svg">
<path fill-rule="evenodd" clip-rule="evenodd" d="M1.5 5.30815L13.89 2.07715V13.9231L8.849 12.5381C8.93273 13.7821 8.01792 14.8696 6.778 15.0001C5.51522 14.8635 4.59405 13.7414 4.706 12.4761V11.6151L1.5 10.6921V5.30815Z" stroke="#01C6A5" stroke-width="1.5" stroke-linecap="round" stroke-linejoin="round"/>
<path d="M20.5 8.157C20.9142 8.157 21.25 7.82121 21.25 7.407C21.25 6.99279 20.9142 6.657 20.5 6.657V8.157ZM18.636 6.657C18.2218 6.657 17.886 6.99279 17.886 7.407C17.886 7.82121 18.2218 8.157 18.636 8.157V6.657ZM17.7823 13.2649C18.0733 13.5597 18.5481 13.5627 18.8429 13.2717C19.1377 12.9807 19.1407 12.5059 18.8497 12.2111L17.7823 13.2649ZM17.5337 10.8781C17.2427 10.5833 16.7679 10.5803 16.4731 10.8713C16.1783 11.1623 16.1753 11.6371 16.4663 11.9319L17.5337 10.8781ZM18.8513 2.60432C19.1426 2.30978 19.1399 1.83491 18.8453 1.54368C18.5508 1.25245 18.0759 1.25513 17.7847 1.54968L18.8513 2.60432ZM16.4667 2.88268C16.1754 3.17722 16.1781 3.65209 16.4727 3.94332C16.7672 4.23455 17.2421 4.23187 17.5333 3.93732L16.4667 2.88268ZM14.64 13.923C14.64 13.5088 14.3042 13.173 13.89 13.173C13.4758 13.173 13.14 13.5088 13.14 13.923H14.64ZM13.14 15C13.14 15.4142 13.4758 15.75 13.89 15.75C14.3042 15.75 14.64 15.4142 14.64 15H13.14ZM13.14 2.077C13.14 2.49121 13.4758 2.827 13.89 2.827C14.3042 2.827 14.64 2.49121 14.64 2.077H13.14ZM14.64 1C14.64 0.585786 14.3042 0.25 13.89 0.25C13.4758 0.25 13.14 0.585786 13.14 1H14.64ZM0.75 5.308C0.75 5.72221 1.08579 6.058 1.5 6.058C1.91421 6.058 2.25 5.72221 2.25 5.308H0.75ZM2.25 4.231C2.25 3.81679 1.91421 3.481 1.5 3.481C1.08579 3.481 0.75 3.81679 0.75 4.231H2.25ZM0.75 11.769C0.75 12.1832 1.08579 12.519 1.5 12.519C1.91421 12.519 2.25 12.1832 2.25 11.769H0.75ZM2.25 10.692C2.25 10.2778 1.91421 9.942 1.5 9.942C1.08579 9.942 0.75 10.2778 0.75 10.692H2.25ZM4.86909 10.8829C4.46479 10.7929 4.06402 11.0476 3.97395 11.4519C3.88387 11.8562 4.13861 12.257 4.54291 12.3471L4.86909 10.8829ZM8.68591 13.2701C9.09021 13.3601 9.49098 13.1054 9.58105 12.7011C9.67113 12.2968 9.41639 11.896 9.01209 11.8059L8.68591 13.2701ZM20.5 6.657H18.636V8.157H20.5V6.657ZM18.8497 12.2111L17.5337 10.8781L16.4663 11.9319L17.7823 13.2649L18.8497 12.2111ZM17.7847 1.54968L16.4667 2.88268L17.5333 3.93732L18.8513 2.60432L17.7847 1.54968ZM13.14 13.923V15H14.64V13.923H13.14ZM14.64 2.077V1H13.14V2.077H14.64ZM2.25 5.308V4.231H0.75V5.308H2.25ZM2.25 11.769V10.692H0.75V11.769H2.25ZM4.54291 12.3471L8.68591 13.2701L9.01209 11.8059L4.86909 10.8829L4.54291 12.3471Z" fill="#01C6A5"/>
</svg>
