<svg width="48" height="49" viewBox="0 0 48 49" fill="none" xmlns="http://www.w3.org/2000/svg">
<path fill-rule="evenodd" clip-rule="evenodd" d="M30 16.8232C30 20.137 27.3137 22.8232 24 22.8232C20.6863 22.8232 18 20.137 18 16.8232C18 13.5095 20.6863 10.8232 24 10.8232C25.5913 10.8232 27.1174 11.4554 28.2426 12.5806C29.3679 13.7058 30 15.2319 30 16.8232Z" stroke="black" stroke-width="2.5" stroke-linecap="round" stroke-linejoin="round"/>
<path fill-rule="evenodd" clip-rule="evenodd" d="M29.1347 26.8232H18.8667C18.2212 26.8241 17.5803 26.9329 16.9707 27.1452C9.95071 29.5672 16.6287 38.8232 24.0007 38.8232C31.3727 38.8232 38.0507 29.5672 31.0287 27.1452C30.4197 26.9331 29.7796 26.8243 29.1347 26.8232Z" stroke="black" stroke-width="2.5" stroke-linecap="round" stroke-linejoin="round"/>
</svg>
