<svg width="48" height="48" viewBox="0 0 48 48" fill="none" xmlns="http://www.w3.org/2000/svg">
<path fill-rule="evenodd" clip-rule="evenodd" d="M19.0919 31.412C19.0687 35.022 16.1274 37.9317 12.5174 37.9159C8.90738 37.9002 5.99161 34.9648 6.00002 31.3548C6.00842 27.7447 8.93783 24.823 12.5479 24.824C13.3972 24.8231 14.2384 24.9889 15.0239 25.312L18.0019 20H30.0019L32.4839 25.54C33.4037 25.0669 34.4235 24.8207 35.4579 24.822C38.7796 24.8176 41.5794 27.299 41.9741 30.5972C42.3688 33.8954 40.2336 36.9674 37.0046 37.747C33.7756 38.5265 30.474 36.7671 29.3204 33.6521C28.1668 30.5371 29.526 27.0517 32.4839 25.54L30.0019 20L24.0019 30H18.9419C19.0421 30.464 19.0924 30.9373 19.0919 31.412Z" stroke="#01C6A5" stroke-width="2.5" stroke-linecap="round" stroke-linejoin="round"/>
<path d="M28.8394 20.4642C29.0958 21.1052 29.8233 21.417 30.4642 21.1606C31.1052 20.9042 31.417 20.1767 31.1606 19.5358L28.8394 20.4642ZM26 10L27.1606 9.53576C26.9708 9.06119 26.5111 8.75 26 8.75V10ZM22 8.75C21.3096 8.75 20.75 9.30964 20.75 10C20.75 10.6904 21.3096 11.25 22 11.25V8.75ZM22.9347 30.654C23.2959 31.2423 24.0657 31.4265 24.654 31.0653C25.2423 30.7041 25.4265 29.9343 25.0653 29.346L22.9347 30.654ZM20.972 25.068L19.8937 25.7003C19.898 25.7076 19.9023 25.7148 19.9067 25.722L20.972 25.068ZM18 20L16.8887 20.5723C16.8992 20.5926 16.9102 20.6126 16.9217 20.6323L18 20ZM14.91 14L16.0213 13.4277C15.807 13.0115 15.3781 12.75 14.91 12.75V14ZM10 12.75C9.30964 12.75 8.75 13.3096 8.75 14C8.75 14.6904 9.30964 15.25 10 15.25V12.75ZM33.6104 25.0023C33.3134 24.379 32.5675 24.1146 31.9443 24.4116C31.321 24.7086 31.0566 25.4545 31.3536 26.0777L33.6104 25.0023ZM33.5076 30.5977C33.8046 31.221 34.5505 31.4854 35.1737 31.1884C35.797 30.8914 36.0614 30.1455 35.7644 29.5223L33.5076 30.5977ZM16.0726 25.9893C16.4467 25.409 16.2795 24.6354 15.6993 24.2614C15.119 23.8873 14.3454 24.0545 13.9714 24.6347L16.0726 25.9893ZM12 30L10.9494 29.3227C10.7015 29.7073 10.6835 30.1966 10.9025 30.5983C11.1215 31 11.5425 31.25 12 31.25V30ZM18.94 31.25C19.6304 31.25 20.19 30.6904 20.19 30C20.19 29.3096 19.6304 28.75 18.94 28.75V31.25ZM31.1606 19.5358L27.1606 9.53576L24.8394 10.4642L28.8394 20.4642L31.1606 19.5358ZM26 8.75H22V11.25H26V8.75ZM25.0653 29.346L22.0373 24.414L19.9067 25.722L22.9347 30.654L25.0653 29.346ZM22.0503 24.4357L19.0783 19.3677L16.9217 20.6323L19.8937 25.7003L22.0503 24.4357ZM19.1113 19.4277L16.0213 13.4277L13.7987 14.5723L16.8887 20.5723L19.1113 19.4277ZM14.91 12.75H10V15.25H14.91V12.75ZM31.3536 26.0777L33.5076 30.5977L35.7644 29.5223L33.6104 25.0023L31.3536 26.0777ZM13.9714 24.6347L10.9494 29.3227L13.0506 30.6773L16.0726 25.9893L13.9714 24.6347ZM12 31.25H18.94V28.75H12V31.25Z" fill="#01C6A5"/>
</svg>
