<svg width="48" height="48" viewBox="0 0 48 48" fill="none" xmlns="http://www.w3.org/2000/svg">
<path d="M16.7037 33.8C16.7037 33.1096 16.144 32.55 15.4537 32.55C14.7633 32.55 14.2037 33.1096 14.2037 33.8H16.7037ZM15.4537 35.9H14.2037C14.2037 35.9188 14.2041 35.9375 14.2049 35.9563L15.4537 35.9ZM13.5457 38L13.4836 39.2485C13.5254 39.2505 13.5672 39.2505 13.609 39.2484L13.5457 38ZM11.6357 35.9L12.8844 35.9562C12.8852 35.9375 12.8857 35.9187 12.8857 35.9H11.6357ZM12.8857 33.426C12.8857 32.7356 12.326 32.176 11.6357 32.176C10.9453 32.176 10.3857 32.7356 10.3857 33.426H12.8857ZM12.3109 32.3741C11.73 32.0012 10.9567 32.1698 10.5838 32.7507C10.2108 33.3317 10.3794 34.105 10.9604 34.4779L12.3109 32.3741ZM12.9077 33.8L12.9061 35.05H12.9077V33.8ZM35.8177 33.8V35.05L35.8192 35.05L35.8177 33.8ZM37.7649 34.4779C38.3459 34.105 38.5145 33.3317 38.1416 32.7507C37.7686 32.1698 36.9953 32.0012 36.4144 32.3741L37.7649 34.4779ZM10.9418 34.4657C11.516 34.8489 12.2922 34.6941 12.6754 34.1199C13.0586 33.5457 12.9038 32.7695 12.3296 32.3863L10.9418 34.4657ZM10.3637 31L11.6135 31.0206C11.6136 31.0137 11.6137 31.0069 11.6137 31H10.3637ZM11.6137 20.4C11.6137 19.7096 11.054 19.15 10.3637 19.15C9.67331 19.15 9.11367 19.7096 9.11367 20.4H11.6137ZM34.5237 33.8C34.5237 33.1096 33.964 32.55 33.2737 32.55C32.5833 32.55 32.0237 33.1096 32.0237 33.8H34.5237ZM33.2737 35.9L34.5178 36.021C34.5217 35.9808 34.5237 35.9404 34.5237 35.9H33.2737ZM34.1705 37.7148L33.5109 38.7766L34.1705 37.7148ZM36.1948 37.7148L36.8545 38.7766L36.1948 37.7148ZM37.0917 35.9H35.8417C35.8417 35.9404 35.8436 35.9808 35.8475 36.021L37.0917 35.9ZM38.3417 33.426C38.3417 32.7356 37.782 32.176 37.0917 32.176C36.4013 32.176 35.8417 32.7356 35.8417 33.426H38.3417ZM36.3978 32.3863C35.8236 32.7695 35.6687 33.5457 36.052 34.1199C36.4352 34.6941 37.2113 34.8489 37.7856 34.4657L36.3978 32.3863ZM38.3637 31H37.1137C37.1137 31.0069 37.1137 31.0137 37.1138 31.0206L38.3637 31ZM39.6137 20.4C39.6137 19.7096 39.054 19.15 38.3637 19.15C37.6733 19.15 37.1137 19.7096 37.1137 20.4H39.6137ZM15.0297 25.55C14.3393 25.55 13.7797 26.1096 13.7797 26.8C13.7797 27.4904 14.3393 28.05 15.0297 28.05V25.55ZM16.5857 28.05C17.276 28.05 17.8357 27.4904 17.8357 26.8C17.8357 26.1096 17.276 25.55 16.5857 25.55V28.05ZM32.1417 25.55C31.4513 25.55 30.8917 26.1096 30.8917 26.8C30.8917 27.4904 31.4513 28.05 32.1417 28.05V25.55ZM33.6977 28.05C34.388 28.05 34.9477 27.4904 34.9477 26.8C34.9477 26.1096 34.388 25.55 33.6977 25.55V28.05ZM37.1135 20.4C37.1135 21.0904 37.6731 21.65 38.3635 21.65C39.0538 21.65 39.6135 21.0904 39.6135 20.4H37.1135ZM38.3635 10.8H39.6135V10.7997L38.3635 10.8ZM37.9635 9.304L36.8657 9.90175C36.8704 9.91043 36.8752 9.91905 36.8801 9.92761L37.9635 9.304ZM35.8175 8L35.8423 6.75025C35.834 6.75008 35.8257 6.75 35.8175 6.75V8ZM12.9095 8V6.75C12.9012 6.75 12.8929 6.75008 12.8847 6.75025L12.9095 8ZM10.7635 9.304L11.8468 9.92761C11.8517 9.91905 11.8566 9.91043 11.8613 9.90175L10.7635 9.304ZM10.3635 10.8L9.11348 10.7997V10.8H10.3635ZM9.11348 20.4C9.11348 21.0904 9.67312 21.65 10.3635 21.65C11.0538 21.65 11.6135 21.0904 11.6135 20.4H9.11348ZM38.3637 21.65C39.054 21.65 39.6137 21.0904 39.6137 20.4C39.6137 19.7096 39.054 19.15 38.3637 19.15V21.65ZM10.3637 19.15C9.67331 19.15 9.11367 19.7096 9.11367 20.4C9.11367 21.0904 9.67331 21.65 10.3637 21.65V19.15ZM14.2037 33.8V35.9H16.7037V33.8H14.2037ZM14.2049 35.9563C14.2238 36.375 13.9009 36.7304 13.4823 36.7516L13.609 39.2484C15.4011 39.1575 16.7832 37.6363 16.7024 35.8437L14.2049 35.9563ZM13.6078 36.7515C13.1889 36.7307 12.8655 36.3752 12.8844 35.9562L10.3869 35.8438C10.3062 37.6375 11.6902 39.1592 13.4836 39.2485L13.6078 36.7515ZM12.8857 35.9V33.426H10.3857V35.9H12.8857ZM10.9604 34.4779C11.541 34.8506 12.2162 35.0491 12.9061 35.05L12.9092 32.55C12.6971 32.5497 12.4895 32.4887 12.3109 32.3741L10.9604 34.4779ZM12.9077 35.05H35.8177V32.55H12.9077V35.05ZM35.8192 35.05C36.5091 35.0491 37.1844 34.8506 37.7649 34.4779L36.4144 32.3741C36.2359 32.4887 36.0283 32.5497 35.8161 32.55L35.8192 35.05ZM12.3296 32.3863C11.8742 32.0824 11.6045 31.568 11.6135 31.0206L9.11384 30.9794C9.09082 32.3767 9.77938 33.69 10.9418 34.4657L12.3296 32.3863ZM11.6137 31V20.4H9.11367V31H11.6137ZM32.0237 33.8V35.9H34.5237V33.8H32.0237ZM32.0295 35.7791C31.9129 36.9787 32.4871 38.1405 33.5109 38.7766L34.8302 36.653C34.6143 36.5189 34.4932 36.2739 34.5178 36.021L32.0295 35.7791ZM33.5109 38.7766C34.5347 39.4126 35.8307 39.4126 36.8545 38.7766L35.5352 36.653C35.3193 36.7871 35.046 36.7871 34.8302 36.653L33.5109 38.7766ZM36.8545 38.7766C37.8782 38.1405 38.4524 36.9787 38.3358 35.7791L35.8475 36.021C35.8721 36.2739 35.7511 36.5189 35.5352 36.653L36.8545 38.7766ZM38.3417 35.9V33.426H35.8417V35.9H38.3417ZM37.7856 34.4657C38.948 33.69 39.6365 32.3767 39.6135 30.9794L37.1138 31.0206C37.1229 31.568 36.8531 32.0824 36.3978 32.3863L37.7856 34.4657ZM39.6137 31V20.4H37.1137V31H39.6137ZM15.0297 28.05H16.5857V25.55H15.0297V28.05ZM32.1417 28.05H33.6977V25.55H32.1417V28.05ZM39.6135 20.4V10.8H37.1135V20.4H39.6135ZM39.6135 10.7997C39.6133 10.0559 39.4179 9.32507 39.0468 8.68039L36.8801 9.92761C37.0329 10.1931 37.1134 10.494 37.1135 10.8003L39.6135 10.7997ZM39.0613 8.70625C38.4173 7.52356 37.1887 6.77698 35.8423 6.75025L35.7927 9.24975C36.2415 9.25866 36.651 9.50753 36.8657 9.90175L39.0613 8.70625ZM35.8175 6.75H12.9095V9.25H35.8175V6.75ZM12.8847 6.75025C11.5383 6.77698 10.3096 7.52356 9.66566 8.70625L11.8613 9.90175C12.0759 9.50753 12.4855 9.25866 12.9343 9.24975L12.8847 6.75025ZM9.68014 8.68039C9.30904 9.32507 9.11364 10.0559 9.11348 10.7997L11.6135 10.8003C11.6135 10.494 11.694 10.1931 11.8468 9.92761L9.68014 8.68039ZM9.11348 10.8V20.4H11.6135V10.8H9.11348ZM38.3637 19.15H10.3637V21.65H38.3637V19.15Z" fill="#F60834"/>
</svg>
