<svg width="18" height="11" viewBox="0 0 18 11" fill="none" xmlns="http://www.w3.org/2000/svg">
<path d="M1.53033 4.96967C1.23744 4.67678 0.762563 4.67678 0.46967 4.96967C0.176777 5.26256 0.176777 5.73744 0.46967 6.03033L1.53033 4.96967ZM5 9.5L4.46967 10.0303C4.76256 10.3232 5.23744 10.3232 5.53033 10.0303L5 9.5ZM13.5303 2.03033C13.8232 1.73744 13.8232 1.26256 13.5303 0.96967C13.2374 0.676777 12.7626 0.676777 12.4697 0.96967L13.5303 2.03033ZM5.53033 4.96967C5.23744 4.67678 4.76256 4.67678 4.46967 4.96967C4.17678 5.26256 4.17678 5.73744 4.46967 6.03033L5.53033 4.96967ZM9 9.5L8.46967 10.0303C8.76256 10.3232 9.23744 10.3232 9.53033 10.0303L9 9.5ZM17.5303 2.03033C17.8232 1.73744 17.8232 1.26256 17.5303 0.96967C17.2374 0.676777 16.7626 0.676777 16.4697 0.96967L17.5303 2.03033ZM0.46967 6.03033L4.46967 10.0303L5.53033 8.96967L1.53033 4.96967L0.46967 6.03033ZM5.53033 10.0303L13.5303 2.03033L12.4697 0.96967L4.46967 8.96967L5.53033 10.0303ZM4.46967 6.03033L8.46967 10.0303L9.53033 8.96967L5.53033 4.96967L4.46967 6.03033ZM9.53033 10.0303L17.5303 2.03033L16.4697 0.96967L8.46967 8.96967L9.53033 10.0303Z" fill="#FFF7F5"/>
</svg>
