<svg width="48" height="48" viewBox="0 0 48 48" fill="none" xmlns="http://www.w3.org/2000/svg">
<path fill-rule="evenodd" clip-rule="evenodd" d="M31.0462 22.8902C34.1776 22.8187 36.7741 25.2988 36.8462 28.4302C36.8469 28.9679 36.766 29.5027 36.6062 30.0162C38.5411 30.3467 39.9667 32.0076 40.0002 33.9702C39.9489 36.2465 38.0625 38.0504 35.7862 38.0002H21.0382C18.7619 38.0504 16.8756 36.2465 16.8242 33.9702C16.8537 32.0965 18.1593 30.4853 19.9862 30.0682C19.9862 30.0268 19.9862 29.9848 19.9862 29.9422C20.0376 27.6659 21.9239 25.8619 24.2002 25.9122C24.7282 25.9114 25.252 26.0063 25.7462 26.1922C26.721 24.155 28.7879 22.8672 31.0462 22.8902Z" stroke="#872000" stroke-width="2.5" stroke-linecap="round" stroke-linejoin="round"/>
<path d="M29.466 39.25C30.1564 39.25 30.716 38.6904 30.716 38C30.716 37.3096 30.1564 36.75 29.466 36.75V39.25ZM21.038 36.75C20.3476 36.75 19.788 37.3096 19.788 38C19.788 38.6904 20.3476 39.25 21.038 39.25V36.75ZM27.358 36.75C26.6676 36.75 26.108 37.3096 26.108 38C26.108 38.6904 26.6676 39.25 27.358 39.25V36.75ZM35.786 39.25C36.4764 39.25 37.036 38.6904 37.036 38C37.036 37.3096 36.4764 36.75 35.786 36.75V39.25ZM16.4364 10.4697C16.0949 9.86972 15.3317 9.66015 14.7317 10.0016C14.1317 10.3431 13.9221 11.1063 14.2636 11.7063L16.4364 10.4697ZM15.7536 14.3243C16.0951 14.9243 16.8583 15.1339 17.4583 14.7924C18.0583 14.4509 18.2678 13.6877 17.9264 13.0877L15.7536 14.3243ZM25.4129 10.3022C25.5798 9.6323 25.1721 8.95397 24.5022 8.78708C23.8323 8.62018 23.154 9.02794 22.9871 9.69782L25.4129 10.3022ZM22.2671 12.5878C22.1002 13.2577 22.5079 13.936 23.1778 14.1029C23.8477 14.2698 24.526 13.8621 24.6929 13.1922L22.2671 12.5878ZM10.345 17.1085C9.68143 16.918 8.98907 17.3015 8.79855 17.965C8.60802 18.6286 8.99148 19.3209 9.65503 19.5115L10.345 17.1085ZM12.483 20.3235C13.1466 20.514 13.8389 20.1305 14.0295 19.467C14.22 18.8034 13.8365 18.1111 13.173 17.9205L12.483 20.3235ZM24.9363 19.3223C25.4456 19.7883 26.2363 19.7531 26.7023 19.2437C27.1683 18.7344 27.1331 17.9437 26.6237 17.4777L24.9363 19.3223ZM19.076 17.622L18.4659 16.531C18.45 16.5399 18.4342 16.5492 18.4187 16.5588L19.076 17.622ZM15.1805 24.2646C15.3322 24.9381 16.0011 25.3611 16.6746 25.2095C17.3481 25.0578 17.7711 24.3889 17.6195 23.7154L15.1805 24.2646ZM29.466 36.75H21.038V39.25H29.466V36.75ZM27.358 39.25H35.786V36.75H27.358V39.25ZM14.2636 11.7063L15.7536 14.3243L17.9264 13.0877L16.4364 10.4697L14.2636 11.7063ZM22.9871 9.69782L22.2671 12.5878L24.6929 13.1922L25.4129 10.3022L22.9871 9.69782ZM9.65503 19.5115L12.483 20.3235L13.173 17.9205L10.345 17.1085L9.65503 19.5115ZM26.6237 17.4777C24.3928 15.4367 21.105 15.0552 18.4659 16.531L19.6861 18.713C21.3845 17.7632 23.5005 18.0088 24.9363 19.3223L26.6237 17.4777ZM18.4187 16.5588C15.8062 18.1738 14.5059 21.2682 15.1805 24.2646L17.6195 23.7154C17.1791 21.7595 18.0279 19.7395 19.7333 18.6852L18.4187 16.5588Z" fill="#872000"/>
</svg>
