<svg width="16" height="16" viewBox="0 0 16 16" fill="none" xmlns="http://www.w3.org/2000/svg">
<path fill-rule="evenodd" clip-rule="evenodd" d="M4.44517 1.0002L8.75317 1.0002C9.67215 1.00522 10.5515 1.37511 11.1977 2.02849C11.844 2.68187 12.2042 3.56522 12.1992 4.4842L12.1992 8.7162C12.2042 9.63517 11.844 10.5185 11.1977 11.1719C10.5515 11.8253 9.67215 12.1952 8.75317 12.2002L4.44517 12.2002C3.52619 12.1952 2.64684 11.8253 2.00059 11.1719C1.35434 10.5185 0.994114 9.63517 0.999167 8.7162L0.999167 4.4852C0.993849 3.56604 1.35395 2.68244 2.00024 2.02884C2.64652 1.37525 3.52601 1.00522 4.44517 1.0002Z" stroke="black" stroke-width="1.5" stroke-linecap="round" stroke-linejoin="round"/>
<path d="M5.66671 15L10.4367 15C12.9853 14.9709 15.028 12.8816 14.9997 10.333L14.9997 5.666" stroke="black" stroke-width="1.5" stroke-linecap="round" stroke-linejoin="round"/>
</svg>
