<svg width="24" height="25" viewBox="0 0 24 25" fill="none" xmlns="http://www.w3.org/2000/svg">
<g clip-path="url(#clip0_156_3560)">
<path d="M12 0.27124C5.37264 0.27124 0 5.64388 0 12.2712C0 17.8988 3.87456 22.621 9.10128 23.918V15.9384H6.62688V12.2712H9.10128V10.6911C9.10128 6.60676 10.9498 4.71364 14.9597 4.71364C15.72 4.71364 17.0318 4.86292 17.5685 5.01172V8.33572C17.2853 8.30596 16.7933 8.29108 16.1822 8.29108C14.2147 8.29108 13.4544 9.03652 13.4544 10.9743V12.2712H17.3741L16.7006 15.9384H13.4544V24.1834C19.3963 23.4658 24.0005 18.4066 24.0005 12.2712C24 5.64388 18.6274 0.27124 12 0.27124Z" fill="#01C6A5"/>
</g>
<defs>
<clipPath id="clip0_156_3560">
<rect width="24" height="24" fill="white" transform="translate(0 0.27124)"/>
</clipPath>
</defs>
</svg>
