<svg width="22" height="24" viewBox="0 0 22 24" fill="none" xmlns="http://www.w3.org/2000/svg">
<rect x="1" y="10.8472" width="17.4434" height="12.0258" stroke="white" stroke-linecap="round" stroke-linejoin="round"/>
<path d="M1 14.0405L0.919056 13.5471C0.677386 13.5868 0.5 13.7956 0.5 14.0405H1ZM1 19.8168H0.5C0.5 20.0617 0.677386 20.2705 0.919056 20.3102L1 19.8168ZM4.26097 22.8729L3.77387 22.9858C3.82638 23.2124 4.0283 23.3729 4.26097 23.3729V22.8729ZM15.4986 22.8729V23.3729C15.7312 23.3729 15.9331 23.2124 15.9857 22.9858L15.4986 22.8729ZM18.4434 19.8818L18.5639 20.3671C18.7869 20.3117 18.9434 20.1115 18.9434 19.8818H18.4434ZM18.4434 13.9755H18.9434C18.9434 13.7457 18.7869 13.5456 18.5639 13.4902L18.4434 13.9755ZM15.4693 10.8472L15.9601 10.7515C15.9143 10.5167 15.7085 10.3472 15.4693 10.3472V10.8472ZM4.29023 10.8472V10.3472C4.05097 10.3472 3.84525 10.5167 3.79947 10.7515L4.29023 10.8472ZM0.5 14.0405V19.8168H1.5V14.0405H0.5ZM0.919056 20.3102C2.32685 20.5411 3.45492 21.609 3.77387 22.9858L4.74807 22.7601C4.33821 20.9909 2.89125 19.6203 1.08094 19.3234L0.919056 20.3102ZM4.26097 23.3729H15.4986V22.3729H4.26097V23.3729ZM15.9857 22.9858C16.2834 21.7008 17.2863 20.6842 18.5639 20.3671L18.323 19.3965C16.6808 19.8042 15.3942 21.1081 15.0115 22.7601L15.9857 22.9858ZM18.9434 19.8818V13.9755H17.9434V19.8818H18.9434ZM18.5639 13.4902C17.2466 13.1632 16.2216 12.0929 15.9601 10.7515L14.9785 10.9428C15.3148 12.6677 16.6302 14.0405 18.323 14.4608L18.5639 13.4902ZM15.4693 10.3472H4.29023V11.3472H15.4693V10.3472ZM3.79947 10.7515C3.51983 12.1858 2.36766 13.3095 0.919056 13.5471L1.08094 14.5339C2.94341 14.2284 4.42156 12.7864 4.78098 10.9428L3.79947 10.7515Z" fill="white"/>
<circle cx="9.72165" cy="16.8601" r="2.06003" stroke="white" stroke-linecap="round" stroke-linejoin="round"/>
<circle cx="15.7027" cy="16.8601" r="0.61673" stroke="white" stroke-width="0.5" stroke-linecap="round" stroke-linejoin="round"/>
<circle cx="4.34378" cy="16.8601" r="0.61673" stroke="white" stroke-width="0.5" stroke-linecap="round" stroke-linejoin="round"/>
<mask id="mask0_540_7906" style="mask-type:alpha" maskUnits="userSpaceOnUse" x="1" y="0" width="21" height="21">
<path d="M11.946 10.3473H1.5V0.5H21.392V20.3473H18.6689L18.9188 10.8605L18.9324 10.3473H18.419H11.946Z" fill="#D9D9D9" stroke="white"/>
</mask>
<g mask="url(#mask0_540_7906)">
<path d="M-0.978524 12.8629L12.0579 1.27305L20.0481 10.2606L7.0117 21.8504L-0.978524 12.8629Z" stroke="white" stroke-linecap="round" stroke-linejoin="round"/>
<path d="M1.14323 15.2495L4.98111 19.5664C6.35902 18.6946 8.13135 18.7503 9.4488 19.6837L17.8473 12.2172C17.1258 10.8937 17.2105 9.26595 18.0607 8.02513L14.1364 3.61102C12.7634 4.33178 11.0772 4.19633 9.83517 3.24914L1.48044 10.6768C2.33057 12.1139 2.20005 13.9465 1.14323 15.2495Z" stroke="white" stroke-linecap="round" stroke-linejoin="round"/>
<path d="M11.0744 10.193C11.8303 11.0433 11.7538 12.3454 10.9036 13.1013C10.0533 13.8573 8.75118 13.7808 7.99525 12.9305C7.23931 12.0802 7.3158 10.7781 8.16608 10.0222C9.01636 9.26625 10.3185 9.34274 11.0744 10.193Z" stroke="white" stroke-linecap="round" stroke-linejoin="round"/>
<path d="M14.4655 7.17829C14.6918 7.43285 14.6689 7.82267 14.4143 8.04898C14.1598 8.27529 13.77 8.25239 13.5437 7.99783C13.3173 7.74327 13.3402 7.35345 13.5948 7.12714C13.8494 6.90083 14.2392 6.92373 14.4655 7.17829Z" stroke="white" stroke-linecap="round" stroke-linejoin="round"/>
<path d="M5.97646 14.7253C6.20277 14.9799 6.17987 15.3697 5.92532 15.596C5.67076 15.8223 5.28094 15.7994 5.05463 15.5449C4.82832 15.2903 4.85122 14.9005 5.10577 14.6742C5.36033 14.4479 5.75015 14.4708 5.97646 14.7253Z" stroke="white" stroke-linecap="round" stroke-linejoin="round"/>
</g>
</svg>
