<svg width="14" height="17" viewBox="0 0 14 17" fill="none" xmlns="http://www.w3.org/2000/svg">
<path fill-rule="evenodd" clip-rule="evenodd" d="M8.09213 7.946L10.2841 6.835C10.9306 6.45474 11.315 5.74934 11.2841 5V1.5H2.71413V5C2.68329 5.74934 3.0677 6.45474 3.71413 6.835L5.90813 7.946C6.59303 8.30024 7.40722 8.30024 8.09213 7.946Z" stroke="#F5FFFD" stroke-width="1.5" stroke-linecap="round" stroke-linejoin="round"/>
<path d="M13 16.25C13.4142 16.25 13.75 15.9142 13.75 15.5C13.75 15.0858 13.4142 14.75 13 14.75V16.25ZM1 14.75C0.585786 14.75 0.25 15.0858 0.25 15.5C0.25 15.9142 0.585786 16.25 1 16.25V14.75ZM1.964 15.5C1.964 15.9142 2.29979 16.25 2.714 16.25C3.12821 16.25 3.464 15.9142 3.464 15.5H1.964ZM2.714 12.438H3.464C3.464 12.4277 3.46379 12.4174 3.46337 12.4072L2.714 12.438ZM3.714 10.603L3.37494 9.93402C3.36097 9.9411 3.34723 9.94861 3.33373 9.95655L3.714 10.603ZM5.908 9.491L6.24708 10.16L6.25271 10.1571L5.908 9.491ZM8.093 9.491L7.74828 10.1571L7.75429 10.1602L8.093 9.491ZM10.284 10.6L10.6643 9.95355C10.6507 9.94555 10.6368 9.93797 10.6227 9.93084L10.284 10.6ZM11.284 12.435L10.5346 12.4042C10.5342 12.4144 10.534 12.4247 10.534 12.435H11.284ZM10.534 15.5C10.534 15.9142 10.8698 16.25 11.284 16.25C11.6982 16.25 12.034 15.9142 12.034 15.5H10.534ZM11.284 0.75C10.8698 0.75 10.534 1.08579 10.534 1.5C10.534 1.91421 10.8698 2.25 11.284 2.25V0.75ZM13 2.25C13.4142 2.25 13.75 1.91421 13.75 1.5C13.75 1.08579 13.4142 0.75 13 0.75V2.25ZM2.714 2.25C3.12821 2.25 3.464 1.91421 3.464 1.5C3.464 1.08579 3.12821 0.75 2.714 0.75V2.25ZM1 0.75C0.585786 0.75 0.25 1.08579 0.25 1.5C0.25 1.91421 0.585786 2.25 1 2.25V0.75ZM13 14.75H1V16.25H13V14.75ZM3.464 15.5V12.438H1.964V15.5H3.464ZM3.46337 12.4072C3.44391 11.9344 3.68644 11.4894 4.09427 11.2494L3.33373 9.95655C2.44871 10.4772 1.92241 11.4429 1.96463 12.4688L3.46337 12.4072ZM4.05306 11.272L6.24706 10.16L5.56894 8.82202L3.37494 9.93402L4.05306 11.272ZM6.25271 10.1571C6.7217 9.91438 7.2793 9.91438 7.74829 10.1571L8.43771 8.82491C7.53634 8.35844 6.46466 8.35844 5.56329 8.82491L6.25271 10.1571ZM7.75429 10.1602L9.9453 11.2692L10.6227 9.93084L8.4317 8.82184L7.75429 10.1602ZM9.90373 11.2464C10.3116 11.4864 10.5541 11.9314 10.5346 12.4042L12.0334 12.4658C12.0756 11.4399 11.5493 10.4742 10.6643 9.95355L9.90373 11.2464ZM10.534 12.435V15.5H12.034V12.435H10.534ZM11.284 2.25H13V0.75H11.284V2.25ZM2.714 0.75H1V2.25H2.714V0.75Z" fill="#F5FFFD"/>
</svg>
