<svg width="28" height="31" viewBox="0 0 28 31" fill="none" xmlns="http://www.w3.org/2000/svg">
<path fill-rule="evenodd" clip-rule="evenodd" d="M16.184 14.1784L20.568 11.9564C21.8609 11.1959 22.6297 9.78505 22.568 8.28638V1.28638H5.42801V8.28638C5.36633 9.78505 6.13516 11.1959 7.42801 11.9564L11.816 14.1784C13.1858 14.8869 14.8142 14.8869 16.184 14.1784Z" stroke="black" stroke-width="2.5" stroke-linecap="round" stroke-linejoin="round"/>
<path d="M26 30.5364C26.6904 30.5364 27.25 29.9767 27.25 29.2864C27.25 28.596 26.6904 28.0364 26 28.0364V30.5364ZM2 28.0364C1.30964 28.0364 0.75 28.596 0.75 29.2864C0.75 29.9767 1.30964 30.5364 2 30.5364V28.0364ZM4.178 29.2864C4.178 29.9767 4.73764 30.5364 5.428 30.5364C6.11836 30.5364 6.678 29.9767 6.678 29.2864H4.178ZM5.428 23.1624H6.678C6.678 23.1452 6.67765 23.1281 6.67694 23.111L5.428 23.1624ZM7.428 19.4924L6.86289 18.3774C6.83961 18.3892 6.81671 18.4017 6.79421 18.415L7.428 19.4924ZM11.816 17.2684L12.3811 18.3834L12.3905 18.3785L11.816 17.2684ZM16.186 17.2684L15.6115 18.3786L15.6215 18.3836L16.186 17.2684ZM20.568 19.4864L21.2018 18.409C21.1791 18.3956 21.156 18.383 21.1325 18.3711L20.568 19.4864ZM22.568 23.1564L21.3191 23.105C21.3183 23.1221 21.318 23.1392 21.318 23.1564H22.568ZM21.318 29.2864C21.318 29.9767 21.8776 30.5364 22.568 30.5364C23.2584 30.5364 23.818 29.9767 23.818 29.2864H21.318ZM22.568 0.036377C21.8776 0.036377 21.318 0.596021 21.318 1.28638C21.318 1.97673 21.8776 2.53638 22.568 2.53638V0.036377ZM26 2.53638C26.6904 2.53638 27.25 1.97673 27.25 1.28638C27.25 0.596021 26.6904 0.036377 26 0.036377V2.53638ZM5.428 2.53638C6.11836 2.53638 6.678 1.97673 6.678 1.28638C6.678 0.596021 6.11836 0.036377 5.428 0.036377V2.53638ZM2 0.036377C1.30964 0.036377 0.75 0.596021 0.75 1.28638C0.75 1.97673 1.30964 2.53638 2 2.53638V0.036377ZM26 28.0364H2V30.5364H26V28.0364ZM6.678 29.2864V23.1624H4.178V29.2864H6.678ZM6.67694 23.111C6.63423 22.0733 7.16659 21.0964 8.06178 20.5698L6.79421 18.415C5.10371 19.4094 4.09841 21.2541 4.17906 23.2138L6.67694 23.111ZM7.99311 20.6073L12.3811 18.3833L11.2509 16.1534L6.86289 18.3774L7.99311 20.6073ZM12.3905 18.3785C13.4006 17.8558 14.6014 17.8558 15.6115 18.3785L16.7605 16.1582C15.0298 15.2626 12.9721 15.2626 11.2415 16.1582L12.3905 18.3785ZM15.6215 18.3836L20.0035 20.6016L21.1325 18.3711L16.7505 16.1531L15.6215 18.3836ZM19.9342 20.5638C20.8294 21.0904 21.3618 22.0673 21.3191 23.105L23.8169 23.2078C23.8976 21.2481 22.8923 19.4034 21.2018 18.409L19.9342 20.5638ZM21.318 23.1564V29.2864H23.818V23.1564H21.318ZM22.568 2.53638H26V0.036377H22.568V2.53638ZM5.428 0.036377H2V2.53638H5.428V0.036377Z" fill="black"/>
</svg>
