<svg width="46" height="47" viewBox="0 0 46 47" fill="none" xmlns="http://www.w3.org/2000/svg">
<path d="M34.5 37.5316C35.1904 37.5316 35.75 36.9719 35.75 36.2816C35.75 35.5912 35.1904 35.0316 34.5 35.0316V37.5316ZM11.5 35.0316C10.8096 35.0316 10.25 35.5912 10.25 36.2816C10.25 36.9719 10.8096 37.5316 11.5 37.5316V35.0316ZM13.5352 36.2816C13.5352 36.9719 14.0948 37.5316 14.7852 37.5316C15.4755 37.5316 16.0352 36.9719 16.0352 36.2816H13.5352ZM14.7852 30.4127H16.0352C16.0352 30.3956 16.0348 30.3785 16.0341 30.3613L14.7852 30.4127ZM16.7018 26.8957L16.1367 25.7807C16.1134 25.7925 16.0905 25.805 16.068 25.8182L16.7018 26.8957ZM20.907 24.7643L21.4721 25.8793L21.4815 25.8745L20.907 24.7643ZM25.0949 24.7643L24.5204 25.8745L24.5304 25.8796L25.0949 24.7643ZM29.2943 26.8899L29.9281 25.8125C29.9054 25.7992 29.8823 25.7865 29.8588 25.7746L29.2943 26.8899ZM31.211 30.407L29.9621 30.3556C29.9613 30.3727 29.961 30.3899 29.961 30.407H31.211ZM29.961 36.2816C29.961 36.9719 30.5206 37.5316 31.211 37.5316C31.9014 37.5316 32.461 36.9719 32.461 36.2816H29.961ZM32.461 9.44824C32.461 8.75789 31.9014 8.19824 31.211 8.19824C30.5206 8.19824 29.961 8.75789 29.961 9.44824H32.461ZM31.211 16.1566H29.961C29.961 16.1737 29.9614 16.1909 29.9621 16.208L31.211 16.1566ZM29.2943 19.6737L29.8594 20.7886C29.8827 20.7768 29.9056 20.7643 29.9281 20.7511L29.2943 19.6737ZM25.093 21.8031L24.5279 20.6881L24.5185 20.6929L25.093 21.8031ZM20.9051 21.8031L21.4796 20.6929L21.4704 20.6882L20.9051 21.8031ZM16.7057 19.6737L16.0719 20.7511C16.0943 20.7643 16.1171 20.7768 16.1403 20.7885L16.7057 19.6737ZM14.789 16.1566L16.0379 16.208C16.0386 16.1909 16.039 16.1737 16.039 16.1566H14.789ZM16.039 9.44824C16.039 8.75789 15.4794 8.19824 14.789 8.19824C14.0986 8.19824 13.539 8.75789 13.539 9.44824H16.039ZM31.2167 8.19824C30.5264 8.19824 29.9667 8.75789 29.9667 9.44824C29.9667 10.1386 30.5264 10.6982 31.2167 10.6982V8.19824ZM34.5 10.6982C35.1904 10.6982 35.75 10.1386 35.75 9.44824C35.75 8.75789 35.1904 8.19824 34.5 8.19824V10.6982ZM31.2148 10.6982C31.9052 10.6982 32.4648 10.1386 32.4648 9.44824C32.4648 8.75789 31.9052 8.19824 31.2148 8.19824V10.6982ZM14.7852 8.19824C14.0948 8.19824 13.5352 8.75789 13.5352 9.44824C13.5352 10.1386 14.0948 10.6982 14.7852 10.6982V8.19824ZM14.7852 10.6982C15.4755 10.6982 16.0352 10.1386 16.0352 9.44824C16.0352 8.75789 15.4755 8.19824 14.7852 8.19824V10.6982ZM11.5 8.19824C10.8096 8.19824 10.25 8.75789 10.25 9.44824C10.25 10.1386 10.8096 10.6982 11.5 10.6982V8.19824ZM20.3447 16.0352C19.7485 15.6873 18.983 15.8887 18.6352 16.485C18.2873 17.0813 18.4886 17.8467 19.0849 18.1946L20.3447 16.0352ZM23 19.0316L22.3701 20.1113C22.7593 20.3384 23.2407 20.3384 23.6299 20.1113L23 19.0316ZM26.9151 18.1946C27.5114 17.8467 27.7127 17.0813 27.3648 16.485C27.0169 15.8887 26.2515 15.6873 25.6552 16.0352L26.9151 18.1946ZM34.5 35.0316H11.5V37.5316H34.5V35.0316ZM16.0352 36.2816V30.4127H13.5352V36.2816H16.0352ZM16.0341 30.3613C15.994 29.3861 16.4943 28.468 17.3356 27.9731L16.068 25.8182C14.4314 26.781 13.4581 28.5669 13.5362 30.4641L16.0341 30.3613ZM17.2669 28.0106L21.4721 25.8793L20.3419 23.6494L16.1367 25.7807L17.2669 28.0106ZM21.4815 25.8745C22.4345 25.3813 23.5675 25.3813 24.5204 25.8745L25.6694 23.6542C23.9959 22.7881 22.0061 22.7881 20.3325 23.6542L21.4815 25.8745ZM24.5304 25.8796L28.7298 28.0052L29.8588 25.7746L25.6594 23.6491L24.5304 25.8796ZM28.6605 27.9673C29.5019 28.4622 30.0022 29.3803 29.9621 30.3556L32.4599 30.4584C32.538 28.5612 31.5647 26.7752 29.9281 25.8125L28.6605 27.9673ZM29.961 30.407V36.2816H32.461V30.407H29.961ZM29.961 9.44824V16.1566H32.461V9.44824H29.961ZM29.9621 16.208C30.0022 17.1832 29.5019 18.1013 28.6605 18.5962L29.9281 20.7511C31.5648 19.7883 32.538 18.0024 32.4599 16.1052L29.9621 16.208ZM28.7292 18.5587L24.5279 20.6881L25.6581 22.918L29.8594 20.7886L28.7292 18.5587ZM24.5185 20.6929C23.5655 21.1861 22.4325 21.1861 21.4796 20.6929L20.3306 22.9132C22.0041 23.7793 23.9939 23.7793 25.6675 22.9132L24.5185 20.6929ZM21.4704 20.6882L17.271 18.5588L16.1403 20.7885L20.3398 22.9179L21.4704 20.6882ZM17.3395 18.5962C16.4981 18.1013 15.9978 17.1832 16.0379 16.208L13.5401 16.1052C13.462 18.0024 14.4352 19.7883 16.0719 20.7511L17.3395 18.5962ZM16.039 16.1566V9.44824H13.539V16.1566H16.039ZM31.2167 10.6982H34.5V8.19824H31.2167V10.6982ZM31.2148 8.19824H14.7852V10.6982H31.2148V8.19824ZM14.7852 8.19824H11.5V10.6982H14.7852V8.19824ZM19.0849 18.1946L22.3701 20.1113L23.6299 17.9519L20.3447 16.0352L19.0849 18.1946ZM23.6299 20.1113L26.9151 18.1946L25.6552 16.0352L22.3701 17.9519L23.6299 20.1113Z" fill="black"/>
</svg>
