<svg width="24" height="25" viewBox="0 0 24 25" fill="none" xmlns="http://www.w3.org/2000/svg">
<g clip-path="url(#clip0_156_3557)">
<path d="M22.2234 0.27124H1.77187C0.792187 0.27124 0 1.04468 0 2.00093V22.5369C0 23.4931 0.792187 24.2712 1.77187 24.2712H22.2234C23.2031 24.2712 24 23.4931 24 22.5416V2.00093C24 1.04468 23.2031 0.27124 22.2234 0.27124ZM7.12031 20.7228H3.55781V9.26655H7.12031V20.7228ZM5.33906 7.70562C4.19531 7.70562 3.27188 6.78218 3.27188 5.64312C3.27188 4.50405 4.19531 3.58062 5.33906 3.58062C6.47813 3.58062 7.40156 4.50405 7.40156 5.64312C7.40156 6.77749 6.47813 7.70562 5.33906 7.70562ZM20.4516 20.7228H16.8937V15.1541C16.8937 13.8275 16.8703 12.1166 15.0422 12.1166C13.1906 12.1166 12.9094 13.565 12.9094 15.0603V20.7228H9.35625V9.26655H12.7687V10.8322H12.8156C13.2891 9.93218 14.4516 8.98062 16.1813 8.98062C19.7859 8.98062 20.4516 11.3525 20.4516 14.4369V20.7228V20.7228Z" fill="#01C6A5"/>
</g>
<defs>
<clipPath id="clip0_156_3557">
<rect width="24" height="24" fill="white" transform="translate(0 0.27124)"/>
</clipPath>
</defs>
</svg>
