<svg width="17" height="17" viewBox="0 0 17 17" fill="none" xmlns="http://www.w3.org/2000/svg">
<path d="M15.2955 0.881836H1.65767C1.34442 0.881836 1.044 1.00627 0.822502 1.22778C0.601001 1.44928 0.476562 1.7497 0.476562 2.06295V15.7007C0.476562 16.014 0.601001 16.3144 0.822502 16.5359C1.044 16.7574 1.34442 16.8818 1.65767 16.8818H15.2955C15.6087 16.8818 15.9091 16.7574 16.1306 16.5359C16.3521 16.3144 16.4766 16.014 16.4766 15.7007V2.06295C16.4766 1.7497 16.3521 1.44928 16.1306 1.22778C15.9091 1.00627 15.6087 0.881836 15.2955 0.881836ZM5.24545 14.5118H2.8399V6.87073H5.24545V14.5118ZM4.04101 5.81184C3.76814 5.8103 3.50184 5.72797 3.27572 5.57523C3.0496 5.42249 2.87379 5.20619 2.77048 4.95363C2.66717 4.70107 2.64099 4.42356 2.69525 4.15614C2.74951 3.88871 2.88176 3.64335 3.07533 3.45102C3.2689 3.25869 3.51511 3.12801 3.78287 3.07548C4.05064 3.02294 4.32797 3.0509 4.57986 3.15583C4.83176 3.26075 5.04692 3.43795 5.19821 3.66504C5.34949 3.89214 5.43011 4.15896 5.4299 4.43184C5.43247 4.61453 5.39824 4.79586 5.32924 4.96504C5.26024 5.13422 5.15788 5.28777 5.02828 5.41655C4.89867 5.54533 4.74446 5.64669 4.57485 5.7146C4.40523 5.78252 4.22368 5.81558 4.04101 5.81184ZM14.1121 14.5185H11.7077V10.3441C11.7077 9.11295 11.1843 8.73295 10.5088 8.73295C9.79545 8.73295 9.09545 9.27073 9.09545 10.3752V14.5185H6.6899V6.87628H9.00323V7.93517H9.03434C9.26656 7.46517 10.0799 6.66184 11.321 6.66184C12.6632 6.66184 14.1132 7.4585 14.1132 9.79184L14.1121 14.5185Z" fill="#0A66C2"/>
</svg>
