<svg width="48" height="48" viewBox="0 0 48 48" fill="none" xmlns="http://www.w3.org/2000/svg">
<path fill-rule="evenodd" clip-rule="evenodd" d="M12.3591 14.0961C8.64626 19.5223 9.38183 26.8341 14.1011 31.4121L19.3331 35.4281L23.9991 40.0001L28.6651 35.4281L33.8971 31.4121C38.6164 26.8341 39.352 19.5223 35.6391 14.0961C34.0883 11.8302 31.9029 10.0728 29.3571 9.04409C25.9208 7.65197 22.0775 7.65197 18.6411 9.04409C16.0953 10.0728 13.91 11.8302 12.3591 14.0961Z" stroke="#B9C601" stroke-width="2.5" stroke-linecap="round" stroke-linejoin="round"/>
<path fill-rule="evenodd" clip-rule="evenodd" d="M23.998 26.2856C26.5102 26.234 28.5099 24.1647 28.4756 21.6522C28.4413 19.1398 26.386 17.1258 23.8733 17.1427C21.3607 17.1596 19.3326 19.2009 19.332 21.7136C19.3584 24.2644 21.4472 26.3111 23.998 26.2856Z" stroke="#B9C601" stroke-width="2.5" stroke-linecap="round" stroke-linejoin="round"/>
</svg>
