<svg width="24" height="24" viewBox="0 0 24 24" fill="none" xmlns="http://www.w3.org/2000/svg">
<path fill-rule="evenodd" clip-rule="evenodd" d="M6.17957 7.04804C4.32313 9.76117 4.69091 13.4171 7.05057 15.706L9.66657 17.714L11.9996 20L14.3326 17.714L16.9486 15.706C19.3082 13.4171 19.676 9.76117 17.8196 7.04804C17.0441 5.91512 15.9515 5.03638 14.6786 4.52204C12.9604 3.82599 11.0387 3.82599 9.32057 4.52204C8.04767 5.03638 6.95499 5.91512 6.17957 7.04804Z" stroke="black" stroke-width="1.5" stroke-linecap="round" stroke-linejoin="round"/>
<path fill-rule="evenodd" clip-rule="evenodd" d="M12.001 13.1428C13.257 13.117 14.2569 12.0823 14.2398 10.8261C14.2226 9.56989 13.1949 8.56291 11.9386 8.57134C10.6823 8.57978 9.66823 9.60046 9.66797 10.8568C9.68116 12.1322 10.7256 13.1556 12.001 13.1428Z" stroke="black" stroke-width="1.5" stroke-linecap="round" stroke-linejoin="round"/>
</svg>
