<svg width="160" height="115" viewBox="0 0 160 115" fill="none" xmlns="http://www.w3.org/2000/svg">
<ellipse cx="80" cy="103.5" rx="80" ry="11.5" fill="url(#paint0_radial_3289_8823)" fill-opacity="0.3"/>
<path fill-rule="evenodd" clip-rule="evenodd" d="M43.9416 48.7376C43.9416 48.7351 43.9436 48.7331 43.9461 48.733C58.2237 48.3623 69.6743 37.5971 69.6743 24.3714C69.6743 10.9115 57.8145 0 43.1848 0C28.8104 0 17.1102 10.534 16.7062 23.6691C16.7061 23.6721 16.7037 23.6745 16.7008 23.6745C16.6977 23.6745 16.6953 23.6769 16.6953 23.6799V45.7422C16.6953 47.3991 18.0385 48.7422 19.6953 48.7422H42.989C43.0542 48.7426 43.1195 48.7429 43.1848 48.7429C43.2502 48.7429 43.3155 48.7426 43.3807 48.7422H43.937C43.9395 48.7422 43.9416 48.7401 43.9416 48.7376Z" fill="#026A59"/>
<path fill-rule="evenodd" clip-rule="evenodd" d="M47.7828 48.7376C47.7828 48.7351 47.7848 48.733 47.7873 48.733C60.9231 48.3619 71.4577 37.5969 71.4577 24.3714C71.4577 10.9115 60.5462 0 47.0863 0C33.861 0 23.0961 10.5343 22.7248 23.6697C22.7247 23.6723 22.7225 23.6745 22.7199 23.6745C22.7172 23.6745 22.7151 23.6766 22.7151 23.6793V24.269C22.7149 24.3031 22.7148 24.3373 22.7148 24.3714C22.7148 24.4056 22.7149 24.4397 22.7151 24.4739V45.7422C22.7151 47.3991 24.0582 48.7422 25.7151 48.7422H46.9061C46.9661 48.7426 47.0262 48.7429 47.0863 48.7429C47.1464 48.7429 47.2065 48.7426 47.2665 48.7422H47.7782C47.7807 48.7422 47.7828 48.7401 47.7828 48.7376Z" fill="url(#paint1_linear_3289_8823)"/>
<path fill-rule="evenodd" clip-rule="evenodd" d="M47.7828 48.7376C47.7828 48.7351 47.7848 48.733 47.7873 48.733C60.9231 48.3619 71.4577 37.5969 71.4577 24.3714C71.4577 10.9115 60.5462 0 47.0863 0C33.861 0 23.0961 10.5343 22.7248 23.6697C22.7247 23.6723 22.7225 23.6745 22.7199 23.6745C22.7172 23.6745 22.7151 23.6766 22.7151 23.6793V24.269C22.7149 24.3031 22.7148 24.3373 22.7148 24.3714C22.7148 24.4056 22.7149 24.4397 22.7151 24.4739V45.7422C22.7151 47.3991 24.0582 48.7422 25.7151 48.7422H46.9061C46.9661 48.7426 47.0262 48.7429 47.0863 48.7429C47.1464 48.7429 47.2065 48.7426 47.2665 48.7422H47.7782C47.7807 48.7422 47.7828 48.7401 47.7828 48.7376Z" fill="url(#paint2_linear_3289_8823)" fill-opacity="0.9"/>
<circle cx="61.7111" cy="25.0685" r="2.78531" fill="url(#paint3_linear_3289_8823)"/>
<circle cx="47.7814" cy="25.0685" r="2.78531" fill="url(#paint4_linear_3289_8823)"/>
<circle cx="33.8556" cy="25.0685" r="2.78531" fill="url(#paint5_linear_3289_8823)"/>
<path fill-rule="evenodd" clip-rule="evenodd" d="M94.0436 85.1885C94.0436 85.1704 94.0293 85.1555 94.0112 85.1545C72.2255 83.9629 54.9547 67.1983 54.9547 46.6922C54.9547 25.4126 73.5529 8.16211 96.4949 8.16211C119.437 8.16211 138.035 25.4126 138.035 46.6922C138.035 51.2225 137.192 55.5701 135.644 59.6076C135.507 59.9655 135.432 60.3446 135.432 60.7279V82.2225C135.432 83.8794 134.089 85.2225 132.432 85.2225H94.0776C94.0588 85.2225 94.0436 85.2073 94.0436 85.1885Z" fill="#7D051B"/>
<path fill-rule="evenodd" clip-rule="evenodd" d="M98.9125 84.9456C98.9125 84.9414 98.9091 84.9379 98.9049 84.9378C78.2631 84.3547 61.7088 67.4383 61.7088 46.6554C61.7088 25.504 78.8553 8.35742 100.007 8.35742C120.79 8.35742 137.706 24.9117 138.289 45.5535C138.289 45.5577 138.293 45.5611 138.297 45.5611C138.301 45.5611 138.305 45.5646 138.305 45.5689V46.6554V81.9533C138.305 83.6102 136.962 84.9533 135.305 84.9533H100.049C100.035 84.9533 100.021 84.9533 100.007 84.9533C99.9926 84.9533 99.9785 84.9533 99.9644 84.9533H98.9203C98.916 84.9533 98.9125 84.9499 98.9125 84.9456Z" fill="url(#paint6_linear_3289_8823)"/>
<path fill-rule="evenodd" clip-rule="evenodd" d="M98.9125 84.9456C98.9125 84.9414 98.9091 84.9379 98.9049 84.9378C78.2631 84.3547 61.7088 67.4383 61.7088 46.6554C61.7088 25.504 78.8553 8.35742 100.007 8.35742C120.79 8.35742 137.706 24.9117 138.289 45.5535C138.289 45.5577 138.293 45.5611 138.297 45.5611C138.301 45.5611 138.305 45.5646 138.305 45.5689V46.6554V81.9533C138.305 83.6102 136.962 84.9533 135.305 84.9533H100.049C100.035 84.9533 100.021 84.9533 100.007 84.9533C99.9926 84.9533 99.9785 84.9533 99.9644 84.9533H98.9203C98.916 84.9533 98.9125 84.9499 98.9125 84.9456Z" fill="url(#paint7_linear_3289_8823)" fill-opacity="0.9"/>
<circle cx="4.17796" cy="4.17796" r="4.17796" transform="matrix(-1 0 0 1 81.207 43.1738)" fill="url(#paint8_linear_3289_8823)"/>
<circle cx="4.17796" cy="4.17796" r="4.17796" transform="matrix(-1 0 0 1 103.488 43.1738)" fill="url(#paint9_linear_3289_8823)"/>
<ellipse cx="4.87429" cy="4.17796" rx="4.87429" ry="4.17796" transform="matrix(-1 0 0 1 125.773 43.1738)" fill="url(#paint10_linear_3289_8823)"/>
<defs>
<radialGradient id="paint0_radial_3289_8823" cx="0" cy="0" r="1" gradientUnits="userSpaceOnUse" gradientTransform="translate(80 103.5) scale(80 11.5)">
<stop stop-color="#8B8888"/>
<stop offset="1" stop-color="#FEFFF5"/>
</radialGradient>
<linearGradient id="paint1_linear_3289_8823" x1="47.0863" y1="29.2457" x2="47.0863" y2="48.7429" gradientUnits="userSpaceOnUse">
<stop stop-color="#8EBFB0"/>
<stop offset="1" stop-color="#035A4B"/>
</linearGradient>
<linearGradient id="paint2_linear_3289_8823" x1="47.0863" y1="0" x2="47.0863" y2="8.93474" gradientUnits="userSpaceOnUse">
<stop stop-color="white"/>
<stop offset="1" stop-color="white" stop-opacity="0"/>
</linearGradient>
<linearGradient id="paint3_linear_3289_8823" x1="61.7111" y1="22.2832" x2="61.7111" y2="27.8538" gradientUnits="userSpaceOnUse">
<stop stop-color="#007663"/>
<stop offset="1" stop-color="#09F6CF"/>
</linearGradient>
<linearGradient id="paint4_linear_3289_8823" x1="47.7814" y1="22.2832" x2="47.7814" y2="27.8538" gradientUnits="userSpaceOnUse">
<stop stop-color="#007663"/>
<stop offset="1" stop-color="#09F6CF"/>
</linearGradient>
<linearGradient id="paint5_linear_3289_8823" x1="33.8556" y1="22.2832" x2="33.8556" y2="27.8538" gradientUnits="userSpaceOnUse">
<stop stop-color="#007663"/>
<stop offset="1" stop-color="#09F6CF"/>
</linearGradient>
<linearGradient id="paint6_linear_3289_8823" x1="100.007" y1="54.315" x2="100.007" y2="84.9533" gradientUnits="userSpaceOnUse">
<stop stop-color="#EF7B2E"/>
<stop offset="1" stop-color="#E43B07"/>
</linearGradient>
<linearGradient id="paint7_linear_3289_8823" x1="100.007" y1="8.35742" x2="100.007" y2="23.9007" gradientUnits="userSpaceOnUse">
<stop stop-color="white"/>
<stop offset="1" stop-color="white" stop-opacity="0"/>
</linearGradient>
<linearGradient id="paint8_linear_3289_8823" x1="4.17796" y1="0" x2="4.17796" y2="8.35592" gradientUnits="userSpaceOnUse">
<stop stop-color="#7D280E"/>
<stop offset="1" stop-color="#EF7B2E"/>
</linearGradient>
<linearGradient id="paint9_linear_3289_8823" x1="4.17796" y1="0" x2="4.17796" y2="8.35592" gradientUnits="userSpaceOnUse">
<stop stop-color="#7D280E"/>
<stop offset="1" stop-color="#EF7B2E"/>
</linearGradient>
<linearGradient id="paint10_linear_3289_8823" x1="4.87429" y1="0" x2="4.87429" y2="8.35592" gradientUnits="userSpaceOnUse">
<stop stop-color="#7D280E"/>
<stop offset="1" stop-color="#EF7B2E"/>
</linearGradient>
</defs>
</svg>
