<svg width="24" height="24" viewBox="0 0 24 24" fill="none" xmlns="http://www.w3.org/2000/svg">
<path fill-rule="evenodd" clip-rule="evenodd" d="M17.0022 17.2337C16.971 16.3066 16.1995 15.5773 15.2722 15.5981C14.3448 15.6189 13.6069 16.3821 13.6173 17.3097C13.6277 18.2372 14.3826 18.9837 15.3102 18.9837C16.2605 18.9672 17.0178 18.184 17.0022 17.2337Z" stroke="#F60834" stroke-width="1.5" stroke-linecap="round" stroke-linejoin="round"/>
<path fill-rule="evenodd" clip-rule="evenodd" d="M11.0774 11.9844C11.1007 13.4102 9.9642 14.5853 8.53836 14.6094C7.1129 14.5847 5.97696 13.4098 6.00035 11.9844C5.97696 10.5589 7.1129 9.38402 8.53836 9.35938C9.9642 9.38348 11.1007 10.5585 11.0774 11.9844Z" stroke="#F60834" stroke-width="1.5" stroke-linecap="round" stroke-linejoin="round"/>
<path fill-rule="evenodd" clip-rule="evenodd" d="M16.155 6.73414C16.17 7.34862 15.8507 7.92293 15.3209 8.23456C14.7911 8.54619 14.134 8.54619 13.6042 8.23456C13.0744 7.92293 12.7551 7.34862 12.77 6.73414C12.7551 6.11966 13.0744 5.54536 13.6042 5.23372C14.134 4.92209 14.7911 4.92209 15.3209 5.23372C15.8507 5.54536 16.17 6.11966 16.155 6.73414Z" stroke="#F60834" stroke-width="1.5" stroke-linecap="round" stroke-linejoin="round"/>
<path d="M13.6053 16.6884C13.9433 16.9279 14.4114 16.8482 14.6509 16.5102C14.8905 16.1723 14.8107 15.7042 14.4728 15.4646L13.6053 16.6884ZM10.9728 12.9836C10.6349 12.7441 10.1667 12.8239 9.9272 13.1618C9.68765 13.4997 9.76741 13.9678 10.1053 14.2074L10.9728 12.9836ZM13.7016 8.44303C14.004 8.15996 14.0197 7.68534 13.7366 7.38295C13.4535 7.08056 12.9789 7.0649 12.6765 7.34798L13.7016 8.44303ZM10.0305 9.82498C9.72812 10.1081 9.71246 10.5827 9.99554 10.8851C10.2786 11.1875 10.7532 11.2031 11.0556 10.92L10.0305 9.82498ZM14.4728 15.4646L10.9728 12.9836L10.1053 14.2074L13.6053 16.6884L14.4728 15.4646ZM12.6765 7.34798L10.0305 9.82498L11.0556 10.92L13.7016 8.44303L12.6765 7.34798Z" fill="#F60834"/>
</svg>
