<svg width="48" height="48" viewBox="0 0 48 48" fill="none" xmlns="http://www.w3.org/2000/svg">
<path fill-rule="evenodd" clip-rule="evenodd" d="M27.698 17.03L24 10L20.302 17.03C20.0408 17.5437 19.6626 17.989 19.198 18.33C18.7311 18.6728 18.1909 18.9021 17.62 19L10 20.494L15.32 26.856C16.0475 27.6534 16.3908 28.7286 16.26 29.8L15.248 38L22.264 34.6C22.8052 34.3379 23.3986 34.2011 24 34.2C24.5642 34.2017 25.1198 34.3389 25.62 34.6L32.8 37.79L31.788 29.688C31.6601 28.6189 32.004 27.5471 32.73 26.752L38 20.494L30.38 19C29.8084 18.9024 29.2675 18.673 28.8 18.33C28.3361 17.9888 27.9587 17.5435 27.698 17.03Z" stroke="#EF7B2E" stroke-width="2.5" stroke-linecap="round" stroke-linejoin="round"/>
</svg>
