<svg width="24" height="25" viewBox="0 0 24 25" fill="none" xmlns="http://www.w3.org/2000/svg">
<path fill-rule="evenodd" clip-rule="evenodd" d="M19 13.7712C19 17.6372 15.866 20.7712 12 20.7712C8.13401 20.7712 5 17.6372 5 13.7712C5 9.90525 8.13401 6.77124 12 6.77124C13.8565 6.77124 15.637 7.50874 16.9497 8.82149C18.2625 10.1342 19 11.9147 19 13.7712Z" stroke="#08F6CF" stroke-width="1.5" stroke-linecap="round" stroke-linejoin="round"/>
<path fill-rule="evenodd" clip-rule="evenodd" d="M13 14.2362C13 15.0646 12.3284 15.7362 11.5 15.7362C10.6716 15.7362 10 15.0646 10 14.2362C10 13.4078 10.6716 12.7362 11.5 12.7362C12.3284 12.7362 13 13.4078 13 14.2362Z" stroke="#08F6CF" stroke-width="1.5" stroke-linecap="round" stroke-linejoin="round"/>
<path d="M11.25 6.77124C11.25 7.18545 11.5858 7.52124 12 7.52124C12.4142 7.52124 12.75 7.18545 12.75 6.77124H11.25ZM12.75 3.77124C12.75 3.35703 12.4142 3.02124 12 3.02124C11.5858 3.02124 11.25 3.35703 11.25 3.77124H12.75ZM15.4953 11.3016C15.7882 11.0087 15.7882 10.5338 15.4953 10.2409C15.2024 9.94802 14.7276 9.94802 14.4347 10.2409L15.4953 11.3016ZM12.0347 12.6409C11.7418 12.9338 11.7418 13.4087 12.0347 13.7016C12.3276 13.9945 12.8024 13.9945 13.0953 13.7016L12.0347 12.6409ZM14 4.52124C14.4142 4.52124 14.75 4.18545 14.75 3.77124C14.75 3.35703 14.4142 3.02124 14 3.02124V4.52124ZM10 3.02124C9.58579 3.02124 9.25 3.35703 9.25 3.77124C9.25 4.18545 9.58579 4.52124 10 4.52124V3.02124ZM19.555 7.17575C19.8336 6.86925 19.811 6.39492 19.5045 6.11629C19.198 5.83766 18.7237 5.86024 18.445 6.16674L19.555 7.17575ZM16.445 8.36674C16.1664 8.67323 16.189 9.14757 16.4955 9.4262C16.802 9.70483 17.2763 9.68224 17.555 9.37574L16.445 8.36674ZM5.53033 6.14091C5.23744 5.84802 4.76256 5.84802 4.46967 6.14091C4.17678 6.4338 4.17678 6.90868 4.46967 7.20157L5.53033 6.14091ZM6.56967 9.30157C6.86256 9.59446 7.33744 9.59446 7.63033 9.30157C7.92322 9.00868 7.92322 8.5338 7.63033 8.24091L6.56967 9.30157ZM12.75 6.77124V3.77124H11.25V6.77124H12.75ZM14.4347 10.2409L12.0347 12.6409L13.0953 13.7016L15.4953 11.3016L14.4347 10.2409ZM14 3.02124H10V4.52124H14V3.02124ZM18.445 6.16674L16.445 8.36674L17.555 9.37574L19.555 7.17575L18.445 6.16674ZM4.46967 7.20157L6.56967 9.30157L7.63033 8.24091L5.53033 6.14091L4.46967 7.20157Z" fill="#08F6CF"/>
</svg>
