<svg width="24" height="25" viewBox="0 0 24 25" fill="none" xmlns="http://www.w3.org/2000/svg">
<g clip-path="url(#clip0_156_3555)">
<path d="M17.0725 0.27124H13.0278V16.619C13.0278 18.5669 11.4722 20.1669 9.53626 20.1669C7.60034 20.1669 6.04469 18.5669 6.04469 16.619C6.04469 14.706 7.56577 13.1408 9.43257 13.0712V8.96691C5.31872 9.03644 2 12.4104 2 16.619C2 20.8626 5.38786 24.2712 9.57085 24.2712C13.7538 24.2712 17.1416 20.8278 17.1416 16.619V8.23644C18.6627 9.34951 20.5295 10.0104 22.5 10.0452V5.94081C19.4579 5.83646 17.0725 3.33211 17.0725 0.27124Z" fill="#01C6A5"/>
</g>
<defs>
<clipPath id="clip0_156_3555">
<rect width="24" height="24" fill="white" transform="translate(0 0.27124)"/>
</clipPath>
</defs>
</svg>
