<svg width="30" height="34" viewBox="0 0 30 34" fill="none" xmlns="http://www.w3.org/2000/svg">
<path fill-rule="evenodd" clip-rule="evenodd" d="M22.6666 19.203C22.6666 23.4372 19.2341 26.8697 14.9999 26.8697C10.7657 26.8697 7.33325 23.4372 7.33325 19.203C7.33325 14.9689 10.7657 11.5364 14.9999 11.5364C17.0332 11.5364 18.9833 12.3441 20.4211 13.7819C21.8588 15.2197 22.6666 17.1697 22.6666 19.203Z" stroke="black" stroke-width="2.5" stroke-linecap="round" stroke-linejoin="round"/>
<path d="M9.24992 7.03634C9.94028 7.03634 10.4999 6.47669 10.4999 5.78634C10.4999 5.09598 9.94028 4.53634 9.24992 4.53634V7.03634ZM20.7499 4.53634C20.0596 4.53634 19.4999 5.09598 19.4999 5.78634C19.4999 6.47669 20.0596 7.03634 20.7499 7.03634V4.53634ZM9.24992 4.53634C8.55956 4.53634 7.99992 5.09598 7.99992 5.78634C7.99992 6.47669 8.55956 7.03634 9.24992 7.03634V4.53634ZM20.7499 7.03634C21.4403 7.03634 21.9999 6.47669 21.9999 5.78634C21.9999 5.09598 21.4403 4.53634 20.7499 4.53634V7.03634ZM10.4999 5.78634C10.4999 5.09598 9.94027 4.53634 9.24992 4.53634C8.55956 4.53634 7.99992 5.09598 7.99992 5.78634H10.4999ZM7.99992 7.703C7.99992 8.39336 8.55956 8.953 9.24992 8.953C9.94027 8.953 10.4999 8.39336 10.4999 7.703H7.99992ZM7.99992 5.78634C7.99992 6.47669 8.55956 7.03634 9.24992 7.03634C9.94027 7.03634 10.4999 6.47669 10.4999 5.78634H7.99992ZM10.4999 1.953C10.4999 1.26265 9.94027 0.703003 9.24992 0.703003C8.55956 0.703003 7.99992 1.26265 7.99992 1.953H10.4999ZM21.9999 5.78634C21.9999 5.09598 21.4403 4.53634 20.7499 4.53634C20.0596 4.53634 19.4999 5.09598 19.4999 5.78634H21.9999ZM19.4999 7.703C19.4999 8.39336 20.0596 8.953 20.7499 8.953C21.4403 8.953 21.9999 8.39336 21.9999 7.703H19.4999ZM19.4999 5.78634C19.4999 6.47669 20.0596 7.03634 20.7499 7.03634C21.4403 7.03634 21.9999 6.47669 21.9999 5.78634H19.4999ZM21.9999 1.953C21.9999 1.26265 21.4403 0.703003 20.7499 0.703003C20.0596 0.703003 19.4999 1.26265 19.4999 1.953H21.9999ZM15.1555 17.0123C15.1555 16.3219 14.5959 15.7623 13.9055 15.7623C13.2151 15.7623 12.6555 16.3219 12.6555 17.0123H15.1555ZM13.9055 20.2974H12.6555C12.6555 20.9878 13.2151 21.5474 13.9055 21.5474V20.2974ZM17.1907 21.5474C17.881 21.5474 18.4407 20.9878 18.4407 20.2974C18.4407 19.6071 17.881 19.0474 17.1907 19.0474V21.5474ZM9.24992 4.53634C4.32538 4.53634 0.333252 8.52846 0.333252 13.453H2.83325C2.83325 9.90918 5.70609 7.03634 9.24992 7.03634V4.53634ZM0.333252 13.453V24.953H2.83325V13.453H0.333252ZM0.333252 24.953C0.333252 29.8775 4.32538 33.8697 9.24992 33.8697V31.3697C5.70609 31.3697 2.83325 28.4968 2.83325 24.953H0.333252ZM9.24992 33.8697H20.7499V31.3697H9.24992V33.8697ZM20.7499 33.8697C25.6745 33.8697 29.6666 29.8775 29.6666 24.953H27.1666C27.1666 28.4968 24.2937 31.3697 20.7499 31.3697V33.8697ZM29.6666 24.953V13.453H27.1666V24.953H29.6666ZM29.6666 13.453C29.6666 8.52846 25.6745 4.53634 20.7499 4.53634V7.03634C24.2937 7.03634 27.1666 9.90918 27.1666 13.453H29.6666ZM9.24992 7.03634H20.7499V4.53634H9.24992V7.03634ZM7.99992 5.78634V7.703H10.4999V5.78634H7.99992ZM10.4999 5.78634V1.953H7.99992V5.78634H10.4999ZM19.4999 5.78634V7.703H21.9999V5.78634H19.4999ZM21.9999 5.78634V1.953H19.4999V5.78634H21.9999ZM12.6555 17.0123V20.2974H15.1555V17.0123H12.6555ZM13.9055 21.5474H17.1907V19.0474H13.9055V21.5474Z" fill="black"/>
</svg>
