<svg width="48" height="48" viewBox="0 0 48 48" fill="none" xmlns="http://www.w3.org/2000/svg">
<path d="M21.7509 31C21.7509 31.6904 22.3106 32.25 23.0009 32.25C23.6913 32.25 24.2509 31.6904 24.2509 31H21.7509ZM24.2509 27.5C24.2509 26.8096 23.6913 26.25 23.0009 26.25C22.3106 26.25 21.7509 26.8096 21.7509 27.5H24.2509ZM15.8269 17.22C15.8269 17.9104 16.3866 18.47 17.0769 18.47C17.7673 18.47 18.3269 17.9104 18.3269 17.22H15.8269ZM17.0769 16.3H18.3269C18.3269 16.2875 18.3268 16.2751 18.3264 16.2626L17.0769 16.3ZM23.0009 10L23.0154 8.75008C22.9974 8.74988 22.9794 8.75006 22.9615 8.75062L23.0009 10ZM26.9794 13.6522C27.3098 14.2584 28.069 14.4819 28.6752 14.1515C29.2813 13.8211 29.5049 13.0619 29.1745 12.4558L26.9794 13.6522ZM17.0769 17.22L16.7562 16.0119C16.7502 16.0135 16.7441 16.0151 16.7381 16.0168L17.0769 17.22ZM18.7689 17L18.7678 18.25H18.7689V17ZM27.2309 17V18.25L27.2321 18.25L27.2309 17ZM28.9229 17.22L29.2614 16.0167C29.2555 16.015 29.2496 16.0134 29.2437 16.0119L28.9229 17.22ZM34.0009 24L32.7509 23.9863V24H34.0009ZM34.0009 31H32.7509C32.7509 31.0068 32.751 31.0137 32.7511 31.0205L34.0009 31ZM27.2309 38V39.25C27.238 39.25 27.2451 39.2499 27.2522 39.2498L27.2309 38ZM18.7709 38L18.7497 39.2498C18.7568 39.2499 18.7639 39.25 18.7709 39.25V38ZM12.0009 31L13.2508 31.0205C13.2509 31.0137 13.2509 31.0068 13.2509 31H12.0009ZM12.0009 24H13.251L13.2509 23.9862L12.0009 24ZM24.2509 31V27.5H21.7509V31H24.2509ZM18.3269 17.22V16.3H15.8269V17.22H18.3269ZM18.3264 16.2626C18.246 13.5774 20.3553 11.3342 23.0404 11.2494L22.9615 8.75062C18.898 8.87901 15.7059 12.2737 15.8275 16.3374L18.3264 16.2626ZM22.9865 11.2499C24.6542 11.2691 26.1812 12.1879 26.9794 13.6522L29.1745 12.4558C27.9433 10.197 25.5877 8.77974 23.0154 8.75008L22.9865 11.2499ZM17.3977 18.4281C17.8447 18.3095 18.3053 18.2496 18.7678 18.25L18.7701 15.75C18.0903 15.7494 17.4132 15.8374 16.7562 16.0119L17.3977 18.4281ZM18.7689 18.25H27.2309V15.75H18.7689V18.25ZM27.2321 18.25C27.6946 18.2496 28.1552 18.3095 28.6022 18.4281L29.2437 16.0119C28.5866 15.8374 27.9096 15.7494 27.2298 15.75L27.2321 18.25ZM28.5845 18.4233C31.0711 19.1227 32.7793 21.4034 32.751 23.9863L35.2509 24.0137C35.2915 20.3006 32.836 17.0221 29.2614 16.0167L28.5845 18.4233ZM32.7509 24V31H35.2509V24H32.7509ZM32.7511 31.0205C32.8022 34.1326 30.3217 36.6973 27.2097 36.7502L27.2522 39.2498C31.7442 39.1735 35.3245 35.4715 35.2508 30.9795L32.7511 31.0205ZM27.2309 36.75H18.7709V39.25H27.2309V36.75ZM18.7922 36.7502C15.6802 36.6973 13.1997 34.1326 13.2508 31.0205L10.7511 30.9795C10.6774 35.4715 14.2577 39.1735 18.7497 39.2498L18.7922 36.7502ZM13.2509 31V24H10.7509V31H13.2509ZM13.2509 23.9862C13.2224 21.4037 14.9298 19.1232 17.4158 18.4232L16.7381 16.0168C13.1645 17.0231 10.7101 20.3014 10.751 24.0138L13.2509 23.9862Z" fill="black"/>
</svg>
