<svg width="48" height="49" viewBox="0 0 48 49" fill="none" xmlns="http://www.w3.org/2000/svg">
<path fill-rule="evenodd" clip-rule="evenodd" d="M26 38.7714C32.2314 38.7701 37.7119 34.6504 39.4448 28.6648C41.1778 22.6792 38.746 16.2687 33.4792 12.9384C28.2124 9.60815 21.3784 10.1598 16.7139 14.2918C12.0494 18.4237 10.6774 25.1412 13.348 30.7714L10 38.7714L18.784 36.7714C20.9618 38.084 23.4572 38.7756 26 38.7714Z" stroke="#01C6A5" stroke-width="2.5" stroke-linecap="round" stroke-linejoin="round"/>
<path fill-rule="evenodd" clip-rule="evenodd" d="M22.0822 22.9034C20.9436 22.8935 20.0276 21.9642 20.0342 20.8255C20.0408 19.6869 20.9675 18.7682 22.1061 18.7715C23.2448 18.7748 24.1661 19.6987 24.1662 20.8374C24.1607 21.9832 23.2279 22.9078 22.0822 22.9034V22.9034Z" stroke="#01C6A5" stroke-width="2.5" stroke-linecap="round" stroke-linejoin="round"/>
<path fill-rule="evenodd" clip-rule="evenodd" d="M27.834 28.6074C27.8276 29.4507 28.3305 30.2147 29.1077 30.5421C29.8849 30.8695 30.7829 30.6957 31.3818 30.102C31.9807 29.5082 32.1623 28.6118 31.8416 27.8318C31.521 27.0518 30.7614 26.5422 29.918 26.5414C28.7723 26.537 27.8396 27.4616 27.834 28.6074V28.6074Z" stroke="#01C6A5" stroke-width="2.5" stroke-linecap="round" stroke-linejoin="round"/>
<path d="M20.0001 20.8374C19.9721 27.7714 26.6001 31.4314 29.9181 30.6734" stroke="#01C6A5" stroke-width="2.5" stroke-linecap="round"/>
</svg>
