<svg width="24" height="25" viewBox="0 0 24 25" fill="none" xmlns="http://www.w3.org/2000/svg">
<path d="M23.7609 7.47129C23.7609 7.47129 23.5266 5.8166 22.8047 5.09004C21.8906 4.13379 20.8688 4.1291 20.4 4.07285C17.0438 3.8291 12.0047 3.8291 12.0047 3.8291H11.9953C11.9953 3.8291 6.95625 3.8291 3.6 4.07285C3.13125 4.1291 2.10938 4.13379 1.19531 5.09004C0.473438 5.8166 0.24375 7.47129 0.24375 7.47129C0.24375 7.47129 0 9.4166 0 11.3572V13.176C0 15.1166 0.239062 17.0619 0.239062 17.0619C0.239062 17.0619 0.473437 18.7166 1.19062 19.4432C2.10469 20.3994 3.30469 20.3666 3.83906 20.4697C5.76094 20.6525 12 20.7088 12 20.7088C12 20.7088 17.0438 20.6994 20.4 20.4604C20.8688 20.4041 21.8906 20.3994 22.8047 19.4432C23.5266 18.7166 23.7609 17.0619 23.7609 17.0619C23.7609 17.0619 24 15.1213 24 13.176V11.3572C24 9.4166 23.7609 7.47129 23.7609 7.47129ZM9.52031 15.3838V8.63848L16.0031 12.0229L9.52031 15.3838Z" fill="#01C6A5"/>
</svg>
